<svg version="1.1" xmlns="http://www.w3.org/2000/svg" xmlns:xlink="http://www.w3.org/1999/xlink" width="972" height="764"><defs/><g><g transform="translate(-166,-46) scale(1,1)"><rect fill="#ebd8ff" stroke="none" x="176" y="56" width="240" height="744"/></g><g transform="translate(-166,-46) scale(1,1)"><path fill="none" stroke="#000000" d="M 176 56 L 416 56 L 416 800 L 176 800 L 176 56 Z Z" stroke-miterlimit="10"/></g><g transform="translate(-166,-46) scale(1,1)"><rect fill="#d8fff8" stroke="none" x="448" y="408" width="680" height="392"/></g><g transform="translate(-166,-46) scale(1,1)"><path fill="none" stroke="#000000" d="M 448 408 L 1128 408 L 1128 800 L 448 800 L 448 408 Z Z" stroke-miterlimit="10"/></g><g transform="translate(-166,-46) scale(1,1)"><rect fill="#ffffd8" stroke="none" x="448" y="56" width="680" height="336"/></g><g transform="translate(-166,-46) scale(1,1)"><path fill="none" stroke="#000000" d="M 448 56 L 1128 56 L 1128 392 L 448 392 L 448 56 Z Z" stroke-miterlimit="10"/></g><g transform="translate(-166,-46) scale(1,1)"><rect fill="#C0C0C0" stroke="none" x="735" y="551" width="144" height="64" opacity="0.2"/></g><g transform="translate(-166,-46) scale(1,1)"><rect fill="#ffffff" stroke="none" x="728" y="544" width="144" height="64"/></g><g transform="translate(-166,-46) scale(1,1)"><path fill="none" stroke="#000000" d="M 728 544 L 872 544 L 872 608 L 728 608 L 728 544 Z Z" stroke-miterlimit="10"/></g><g transform="translate(-166,-46) scale(1,1)"><g><path fill="none" stroke="none"/><text fill="#000000" stroke="none" font-family="Arial" font-size="13px" font-style="normal" font-weight="bold" text-decoration="none" x="761.701416015625" y="563.5">Consignment</text></g></g><g transform="translate(-166,-46) scale(1,1)"><rect fill="#C0C0C0" stroke="none" x="735" y="303" width="144" height="64" opacity="0.2"/></g><g transform="translate(-166,-46) scale(1,1)"><rect fill="#ffffff" stroke="none" x="728" y="296" width="144" height="64"/></g><g transform="translate(-166,-46) scale(1,1)"><path fill="none" stroke="#000000" d="M 728 296 L 872 296 L 872 360 L 728 360 L 728 296 Z Z" stroke-miterlimit="10"/></g><g transform="translate(-166,-46) scale(1,1)"><g><path fill="none" stroke="none"/><text fill="#000000" stroke="none" font-family="Arial" font-size="13px" font-style="normal" font-weight="bold" text-decoration="none" x="772.5400390625" y="315.5">Shipment</text></g></g><g transform="translate(-166,-46) scale(1,1)"><rect fill="#C0C0C0" stroke="none" x="503" y="463" width="144" height="64" opacity="0.2"/></g><g transform="translate(-166,-46) scale(1,1)"><rect fill="#ffffff" stroke="none" x="496" y="456" width="144" height="64"/></g><g transform="translate(-166,-46) scale(1,1)"><path fill="none" stroke="#000000" d="M 496 456 L 640 456 L 640 520 L 496 520 L 496 456 Z Z" stroke-miterlimit="10"/></g><g transform="translate(-166,-46) scale(1,1)"><g><path fill="none" stroke="none"/><text fill="#000000" stroke="none" font-family="Arial" font-size="13px" font-style="normal" font-weight="bold" text-decoration="none" x="515.254150390625" y="475.5">Consignment Item</text></g></g><g transform="translate(-166,-46) scale(1,1)"><rect fill="#C0C0C0" stroke="none" x="735" y="695" width="144" height="64" opacity="0.2"/></g><g transform="translate(-166,-46) scale(1,1)"><rect fill="#ffffff" stroke="none" x="728" y="688" width="144" height="64"/></g><g transform="translate(-166,-46) scale(1,1)"><path fill="none" stroke="#000000" d="M 728 688 L 872 688 L 872 752 L 728 752 L 728 688 Z Z" stroke-miterlimit="10"/></g><g transform="translate(-166,-46) scale(1,1)"><g><path fill="none" stroke="none"/><text fill="#000000" stroke="none" font-family="Arial" font-size="13px" font-style="normal" font-weight="bold" text-decoration="none" x="740.27490234375" y="707.5">Transport Movement</text></g></g><g transform="translate(-166,-46) scale(1,1)"><rect fill="#C0C0C0" stroke="none" x="511" y="695" width="144" height="64" opacity="0.2"/></g><g transform="translate(-166,-46) scale(1,1)"><rect fill="#ffffff" stroke="none" x="504" y="688" width="144" height="64"/></g><g transform="translate(-166,-46) scale(1,1)"><path fill="none" stroke="#000000" d="M 504 688 L 648 688 L 648 752 L 504 752 L 504 688 Z Z" stroke-miterlimit="10"/></g><g transform="translate(-166,-46) scale(1,1)"><g><path fill="none" stroke="none"/><text fill="#000000" stroke="none" font-family="Arial" font-size="13px" font-style="normal" font-weight="bold" text-decoration="none" x="515.544921875" y="707.5">Transport Equipment</text></g></g><g transform="translate(-166,-46) scale(1,1)"><rect fill="#C0C0C0" stroke="none" x="935" y="463" width="144" height="64" opacity="0.2"/></g><g transform="translate(-166,-46) scale(1,1)"><rect fill="#ffffff" stroke="none" x="928" y="456" width="144" height="64"/></g><g transform="translate(-166,-46) scale(1,1)"><path fill="none" stroke="#000000" d="M 928 456 L 1072 456 L 1072 520 L 928 520 L 928 456 Z Z" stroke-miterlimit="10"/></g><g transform="translate(-166,-46) scale(1,1)"><g><path fill="none" stroke="none"/><text fill="#000000" stroke="none" font-family="Arial" font-size="13px" font-style="normal" font-weight="bold" text-decoration="none" x="940.265380859375" y="475.5">Transport Packaging</text></g></g><g transform="translate(-166,-46) scale(1,1)"><rect fill="#C0C0C0" stroke="none" x="935" y="695" width="144" height="64" opacity="0.2"/></g><g transform="translate(-166,-46) scale(1,1)"><rect fill="#ffffff" stroke="none" x="928" y="688" width="144" height="64"/></g><g transform="translate(-166,-46) scale(1,1)"><path fill="none" stroke="#000000" d="M 928 688 L 1072 688 L 1072 752 L 928 752 L 928 688 Z Z" stroke-miterlimit="10"/></g><g transform="translate(-166,-46) scale(1,1)"><g><path fill="none" stroke="none"/><text fill="#000000" stroke="none" font-family="Arial" font-size="13px" font-style="normal" font-weight="bold" text-decoration="none" x="951.1103515625" y="707.5">Transport Means</text></g></g><g transform="translate(-166,-46) scale(1,1)"><path fill="none" stroke="#000000" d="M 872 568 L 1000 568 L 1000 520" stroke-miterlimit="10"/></g><g transform="translate(-166,-46) scale(1,1)"><g><path fill="none" stroke="none"/><text fill="#000000" stroke="none" font-family="Arial" font-size="13px" font-style="normal" font-weight="normal" text-decoration="none" x="877.74365234375" y="564.5">1..*</text></g></g><g transform="translate(-166,-46) scale(1,1)"><g><path fill="none" stroke="none"/><text fill="#000000" stroke="none" font-family="Arial" font-size="13px" font-style="normal" font-weight="normal" text-decoration="none" x="1001.74365234375" y="547.5">1..*</text></g></g><g transform="translate(-166,-46) scale(1,1)"><path fill="none" stroke="#000000" d="M 568 520 L 568 560 L 728 560" stroke-miterlimit="10"/></g><g transform="translate(-166,-46) scale(1,1)"><path fill="#000000" stroke="none" d="M 717.8373251423759 564.209517756016 L 728 560 L 717.8373251423758 555.790482243984 L 706 560"/></g><g transform="translate(-166,-46) scale(1,1)"><path fill="none" stroke="#000000" d="M 717.8373251423759 564.209517756016 L 728 560 L 717.8373251423758 555.790482243984 L 706 560 L 717.8373251423759 564.209517756016" stroke-miterlimit="10"/></g><g transform="translate(-166,-46) scale(1,1)"><g><path fill="none" stroke="none"/><text fill="#000000" stroke="none" font-family="Arial" font-size="13px" font-style="normal" font-weight="normal" text-decoration="none" x="544.74365234375" y="547.5">1..*</text></g></g><g transform="translate(-166,-46) scale(1,1)"><g><path fill="none" stroke="none"/><text fill="#000000" stroke="none" font-family="Arial" font-size="13px" font-style="normal" font-weight="normal" text-decoration="none" x="703.5" y="555.5">1</text></g></g><g transform="translate(-166,-46) scale(1,1)"><path fill="none" stroke="#000000" d="M 927 720 L 873 720" stroke-miterlimit="10"/></g><g transform="translate(-166,-46) scale(1,1)"><g><path fill="none" stroke="none"/><text fill="#000000" stroke="none" font-family="Arial" font-size="13px" font-style="normal" font-weight="normal" text-decoration="none" x="914.5" y="718.5">1</text></g></g><g transform="translate(-166,-46) scale(1,1)"><g><path fill="none" stroke="none"/><text fill="#000000" stroke="none" font-family="Arial" font-size="13px" font-style="normal" font-weight="normal" text-decoration="none" x="878.74365234375" y="716.5">1..*</text></g></g><g transform="translate(-166,-46) scale(1,1)"><path fill="none" stroke="#000000" d="M 727 720 L 649 720" stroke-miterlimit="10"/></g><g transform="translate(-166,-46) scale(1,1)"><g><path fill="none" stroke="none"/><text fill="#000000" stroke="none" font-family="Arial" font-size="13px" font-style="normal" font-weight="normal" text-decoration="none" x="702.74365234375" y="707.5">1..*</text></g></g><g transform="translate(-166,-46) scale(1,1)"><g><path fill="none" stroke="none"/><text fill="#000000" stroke="none" font-family="Arial" font-size="13px" font-style="normal" font-weight="normal" text-decoration="none" x="654.74365234375" y="708.5">1..*</text></g></g><g transform="translate(-166,-46) scale(1,1)"><path fill="none" stroke="#000000" d="M 800 609 L 800 687" stroke-miterlimit="10"/></g><g transform="translate(-166,-46) scale(1,1)"><g><path fill="none" stroke="none"/><text fill="#000000" stroke="none" font-family="Arial" font-size="13px" font-style="normal" font-weight="normal" text-decoration="none" x="773.74365234375" y="629.5">1..*</text></g></g><g transform="translate(-166,-46) scale(1,1)"><g><path fill="none" stroke="none"/><text fill="#000000" stroke="none" font-family="Arial" font-size="13px" font-style="normal" font-weight="normal" text-decoration="none" x="776.74365234375" y="684.5">1..*</text></g></g><g transform="translate(-166,-46) scale(1,1)"><path fill="none" stroke="#000000" d="M 728 600 L 576 600 L 576 688" stroke-miterlimit="10"/></g><g transform="translate(-166,-46) scale(1,1)"><g><path fill="none" stroke="none"/><text fill="#000000" stroke="none" font-family="Arial" font-size="13px" font-style="normal" font-weight="normal" text-decoration="none" x="702.74365234375" y="620.5">1..*</text></g></g><g transform="translate(-166,-46) scale(1,1)"><g><path fill="none" stroke="none"/><text fill="#000000" stroke="none" font-family="Arial" font-size="13px" font-style="normal" font-weight="normal" text-decoration="none" x="552.74365234375" y="672.5">1..*</text></g></g><g transform="translate(-166,-46) scale(1,1)"><path fill="none" stroke="#000000" d="M 641 488 L 927 488" stroke-miterlimit="10"/></g><g transform="translate(-166,-46) scale(1,1)"><g><path fill="none" stroke="none"/><text fill="#000000" stroke="none" font-family="Arial" font-size="13px" font-style="normal" font-weight="normal" text-decoration="none" x="651.74365234375" y="506.5">1..*</text></g></g><g transform="translate(-166,-46) scale(1,1)"><g><path fill="none" stroke="none"/><text fill="#000000" stroke="none" font-family="Arial" font-size="13px" font-style="normal" font-weight="normal" text-decoration="none" x="911.5" y="506.5">1</text></g></g><g transform="translate(-166,-46) scale(1,1)"><rect fill="#C0C0C0" stroke="none" x="735" y="95" width="144" height="64" opacity="0.2"/></g><g transform="translate(-166,-46) scale(1,1)"><rect fill="#ffffff" stroke="none" x="728" y="88" width="144" height="64"/></g><g transform="translate(-166,-46) scale(1,1)"><path fill="none" stroke="#000000" d="M 728 88 L 872 88 L 872 152 L 728 152 L 728 88 Z Z" stroke-miterlimit="10"/></g><g transform="translate(-166,-46) scale(1,1)"><g><path fill="none" stroke="none"/><text fill="#000000" stroke="none" font-family="Arial" font-size="13px" font-style="normal" font-weight="bold" text-decoration="none" x="783.26123046875" y="107.5">Trade</text></g></g><g transform="translate(-166,-46) scale(1,1)"><rect fill="#C0C0C0" stroke="none" x="503" y="215" width="144" height="64" opacity="0.2"/></g><g transform="translate(-166,-46) scale(1,1)"><rect fill="#ffffff" stroke="none" x="496" y="208" width="144" height="64"/></g><g transform="translate(-166,-46) scale(1,1)"><path fill="none" stroke="#000000" d="M 496 208 L 640 208 L 640 272 L 496 272 L 496 208 Z Z" stroke-miterlimit="10"/></g><g transform="translate(-166,-46) scale(1,1)"><g><path fill="none" stroke="none"/><text fill="#000000" stroke="none" font-family="Arial" font-size="13px" font-style="normal" font-weight="bold" text-decoration="none" x="536.81396484375" y="227.5">Trade Item</text></g></g><g transform="translate(-166,-46) scale(1,1)"><rect fill="#C0C0C0" stroke="none" x="935" y="215" width="144" height="64" opacity="0.2"/></g><g transform="translate(-166,-46) scale(1,1)"><rect fill="#ffffff" stroke="none" x="928" y="208" width="144" height="64"/></g><g transform="translate(-166,-46) scale(1,1)"><path fill="none" stroke="#000000" d="M 928 208 L 1072 208 L 1072 272 L 928 272 L 928 208 Z Z" stroke-miterlimit="10"/></g><g transform="translate(-166,-46) scale(1,1)"><g><path fill="none" stroke="none"/><text fill="#000000" stroke="none" font-family="Arial" font-size="13px" font-style="normal" font-weight="bold" text-decoration="none" x="940.379638671875" y="227.5">Shipment Packaging</text></g></g><g transform="translate(-166,-46) scale(1,1)"><path fill="none" stroke="#000000" d="M 568 273 L 568 455" stroke-miterlimit="10"/></g><g transform="translate(-166,-46) scale(1,1)"><g><path fill="none" stroke="none"/><text fill="#000000" stroke="none" font-family="Arial" font-size="13px" font-style="normal" font-weight="normal" text-decoration="none" x="544.74365234375" y="300.5">1..*</text></g></g><g transform="translate(-166,-46) scale(1,1)"><g><path fill="none" stroke="none"/><text fill="#000000" stroke="none" font-family="Arial" font-size="13px" font-style="normal" font-weight="normal" text-decoration="none" x="551.5" y="439.5">1</text></g></g><g transform="translate(-166,-46) scale(1,1)"><path fill="none" stroke="#000000" d="M 1000 273 L 1000 455" stroke-miterlimit="10"/></g><g transform="translate(-166,-46) scale(1,1)"><g><path fill="none" stroke="none"/><text fill="#000000" stroke="none" font-family="Arial" font-size="13px" font-style="normal" font-weight="normal" text-decoration="none" x="1005.74365234375" y="291.5">1..*</text></g></g><g transform="translate(-166,-46) scale(1,1)"><g><path fill="none" stroke="none"/><text fill="#000000" stroke="none" font-family="Arial" font-size="13px" font-style="normal" font-weight="normal" text-decoration="none" x="983.5" y="439.5">1</text></g></g><g transform="translate(-166,-46) scale(1,1)"><path fill="none" stroke="#000000" d="M 800 361 L 800 543" stroke-miterlimit="10"/></g><g transform="translate(-166,-46) scale(1,1)"><g><path fill="none" stroke="none"/><text fill="#000000" stroke="none" font-family="Arial" font-size="13px" font-style="normal" font-weight="normal" text-decoration="none" x="776.74365234375" y="388.5">1..*</text></g></g><g transform="translate(-166,-46) scale(1,1)"><g><path fill="none" stroke="none"/><text fill="#000000" stroke="none" font-family="Arial" font-size="13px" font-style="normal" font-weight="normal" text-decoration="none" x="776.74365234375" y="527.5">1..*</text></g></g><g transform="translate(-166,-46) scale(1,1)"><path fill="none" stroke="#000000" d="M 800 295 L 800 153" stroke-miterlimit="10"/></g><g transform="translate(-166,-46) scale(1,1)"><g><path fill="none" stroke="none"/><text fill="#000000" stroke="none" font-family="Arial" font-size="13px" font-style="normal" font-weight="normal" text-decoration="none" x="801.74365234375" y="279.5">1..*</text></g></g><g transform="translate(-166,-46) scale(1,1)"><g><path fill="none" stroke="none"/><text fill="#000000" stroke="none" font-family="Arial" font-size="13px" font-style="normal" font-weight="normal" text-decoration="none" x="801.74365234375" y="180.5">1..*</text></g></g><g transform="translate(-166,-46) scale(1,1)"><path fill="none" stroke="#000000" d="M 568 208 L 568 120 L 728 120" stroke-miterlimit="10"/></g><g transform="translate(-166,-46) scale(1,1)"><path fill="#000000" stroke="none" d="M 717.8373251423759 124.20951775601598 L 728 120 L 717.8373251423758 115.79048224398402 L 706 120"/></g><g transform="translate(-166,-46) scale(1,1)"><path fill="none" stroke="#000000" d="M 717.8373251423759 124.20951775601598 L 728 120 L 717.8373251423758 115.79048224398402 L 706 120 L 717.8373251423759 124.20951775601598" stroke-miterlimit="10"/></g><g transform="translate(-166,-46) scale(1,1)"><g><path fill="none" stroke="none"/><text fill="#000000" stroke="none" font-family="Arial" font-size="13px" font-style="normal" font-weight="normal" text-decoration="none" x="569.74365234375" y="192.5">1..*</text></g></g><g transform="translate(-166,-46) scale(1,1)"><g><path fill="none" stroke="none"/><text fill="#000000" stroke="none" font-family="Arial" font-size="13px" font-style="normal" font-weight="normal" text-decoration="none" x="711.5" y="107.5">1</text></g></g><g transform="translate(-166,-46) scale(1,1)"><path fill="none" stroke="#000000" d="M 641 240 L 927 240" stroke-miterlimit="10"/></g><g transform="translate(-166,-46) scale(1,1)"><g><path fill="none" stroke="none"/><text fill="#000000" stroke="none" font-family="Arial" font-size="13px" font-style="normal" font-weight="normal" text-decoration="none" x="651.74365234375" y="258.5">1..*</text></g></g><g transform="translate(-166,-46) scale(1,1)"><g><path fill="none" stroke="none"/><text fill="#000000" stroke="none" font-family="Arial" font-size="13px" font-style="normal" font-weight="normal" text-decoration="none" x="894.74365234375" y="258.5">0..*</text></g></g><g transform="translate(-166,-46) scale(1,1)"><path fill="none" stroke="#000000" d="M 872 324 L 960 324 L 960 272" stroke-miterlimit="10"/></g><g transform="translate(-166,-46) scale(1,1)"><g><path fill="none" stroke="none"/><text fill="#000000" stroke="none" font-family="Arial" font-size="13px" font-style="normal" font-weight="normal" text-decoration="none" x="873.5" y="343.5">1</text></g></g><g transform="translate(-166,-46) scale(1,1)"><g><path fill="none" stroke="none"/><text fill="#000000" stroke="none" font-family="Arial" font-size="13px" font-style="normal" font-weight="normal" text-decoration="none" x="933.74365234375" y="292.5">0..*</text></g></g><g transform="translate(-166,-46) scale(1,1)"><path fill="none" stroke="#000000" d="M 728 328 L 600 328 L 600 272" stroke-miterlimit="10"/></g><g transform="translate(-166,-46) scale(1,1)"><g><path fill="none" stroke="none"/><text fill="#000000" stroke="none" font-family="Arial" font-size="13px" font-style="normal" font-weight="normal" text-decoration="none" x="702.5" y="321.5">1</text></g></g><g transform="translate(-166,-46) scale(1,1)"><g><path fill="none" stroke="none"/><text fill="#000000" stroke="none" font-family="Arial" font-size="13px" font-style="normal" font-weight="normal" text-decoration="none" x="601.74365234375" y="299.5">1..*</text></g></g><g transform="translate(-166,-46) scale(1,1)"><path fill="none" stroke="#000000" d="M 1048 208 L 1048 188 L 1096 188 L 1096 230 L 1072 230" stroke-miterlimit="10"/></g><g transform="translate(-166,-46) scale(1,1)"><path fill="#000000" stroke="none" d="M 1082.162674857624 225.790482243984 L 1072 230 L 1082.162674857624 234.209517756016 L 1094 230"/></g><g transform="translate(-166,-46) scale(1,1)"><path fill="none" stroke="#000000" d="M 1082.162674857624 225.790482243984 L 1072 230 L 1082.162674857624 234.209517756016 L 1094 230 L 1082.162674857624 225.790482243984" stroke-miterlimit="10"/></g><g transform="translate(-166,-46) scale(1,1)"><path fill="none" stroke="#000000" d="M 1032 456 L 1032 436 L 1096 436 L 1096 479 L 1072 479" stroke-miterlimit="10"/></g><g transform="translate(-166,-46) scale(1,1)"><path fill="#000000" stroke="none" d="M 1082.162674857624 474.790482243984 L 1072 479 L 1082.162674857624 483.209517756016 L 1094 479"/></g><g transform="translate(-166,-46) scale(1,1)"><path fill="none" stroke="#000000" d="M 1082.162674857624 474.790482243984 L 1072 479 L 1082.162674857624 483.209517756016 L 1094 479 L 1082.162674857624 474.790482243984" stroke-miterlimit="10"/></g><g transform="translate(-166,-46) scale(1,1)"><path fill="none" stroke="#000000" d="M 872 120 L 1000 120 L 1000 208" stroke-miterlimit="10"/></g><g transform="translate(-166,-46) scale(1,1)"><g><path fill="none" stroke="none"/><text fill="#000000" stroke="none" font-family="Arial" font-size="13px" font-style="normal" font-weight="normal" text-decoration="none" x="879.5" y="116.5">1</text></g></g><g transform="translate(-166,-46) scale(1,1)"><g><path fill="none" stroke="none"/><text fill="#000000" stroke="none" font-family="Arial" font-size="13px" font-style="normal" font-weight="normal" text-decoration="none" x="976.74365234375" y="192.5">0..*</text></g></g><g transform="translate(-166,-46) scale(1,1)"><path fill="none" stroke="#000000" d="M 872 592 L 912 592 L 912 640 L 848 640 L 848 608" stroke-miterlimit="10"/></g><g transform="translate(-166,-46) scale(1,1)"><g><path fill="none" stroke="none"/><text fill="#000000" stroke="none" font-family="Arial" font-size="13px" font-style="normal" font-weight="normal" text-decoration="none" x="883.5" y="610.5">1..*</text></g></g><g transform="translate(-166,-46) scale(1,1)"><g><path fill="none" stroke="none"/><text fill="#000000" stroke="none" font-family="Arial" font-size="13px" font-style="normal" font-weight="normal" text-decoration="none" x="850.5" y="635.5">1..*</text></g></g><g transform="translate(-166,-46) scale(1,1)"><g><path fill="none" stroke="none"/><text fill="#000000" stroke="none" font-family="Arial" font-size="20px" font-style="normal" font-weight="normal" text-decoration="none" x="461" y="89">Trade Model</text></g></g><g transform="translate(-166,-46) scale(1,1)"><g><path fill="none" stroke="none"/><text fill="#000000" stroke="none" font-family="Arial" font-size="20px" font-style="normal" font-weight="normal" text-decoration="none" x="461" y="785">Transport Model</text></g></g><g transform="translate(-166,-46) scale(1,1)"><rect fill="#C0C0C0" stroke="none" x="239" y="319" width="144" height="64" opacity="0.2"/></g><g transform="translate(-166,-46) scale(1,1)"><rect fill="#ffffff" stroke="none" x="232" y="312" width="144" height="64"/></g><g transform="translate(-166,-46) scale(1,1)"><path fill="none" stroke="#000000" d="M 232 312 L 376 312 L 376 376 L 232 376 L 232 312 Z Z" stroke-miterlimit="10"/></g><g transform="translate(-166,-46) scale(1,1)"><g><path fill="none" stroke="none"/><text fill="#000000" stroke="none" font-family="Arial" font-size="13px" font-style="normal" font-weight="bold" text-decoration="none" x="271.122314453125" y="331.5">Declaration</text></g></g><g transform="translate(-166,-46) scale(1,1)"><rect fill="#C0C0C0" stroke="none" x="239" y="567" width="144" height="64" opacity="0.2"/></g><g transform="translate(-166,-46) scale(1,1)"><rect fill="#ffffff" stroke="none" x="232" y="560" width="144" height="64"/></g><g transform="translate(-166,-46) scale(1,1)"><path fill="none" stroke="#000000" d="M 232 560 L 376 560 L 376 624 L 232 624 L 232 560 Z Z" stroke-miterlimit="10"/></g><g transform="translate(-166,-46) scale(1,1)"><g><path fill="none" stroke="none"/><text fill="#000000" stroke="none" font-family="Arial" font-size="13px" font-style="normal" font-weight="bold" text-decoration="none" x="264.98095703125" y="579.5">Cargo Report</text></g></g><g transform="translate(-166,-46) scale(1,1)"><rect fill="#C0C0C0" stroke="none" x="239" y="455" width="144" height="64" opacity="0.2"/></g><g transform="translate(-166,-46) scale(1,1)"><rect fill="#ffffff" stroke="none" x="232" y="448" width="144" height="64"/></g><g transform="translate(-166,-46) scale(1,1)"><path fill="none" stroke="#000000" d="M 232 448 L 376 448 L 376 512 L 232 512 L 232 448 Z Z" stroke-miterlimit="10"/></g><g transform="translate(-166,-46) scale(1,1)"><g><path fill="none" stroke="none"/><text fill="#000000" stroke="none" font-family="Arial" font-size="13px" font-style="normal" font-weight="bold" text-decoration="none" x="264.622314453125" y="467.5">Cargo Details</text></g></g><g transform="translate(-166,-46) scale(1,1)"><rect fill="#C0C0C0" stroke="none" x="239" y="215" width="144" height="64" opacity="0.2"/></g><g transform="translate(-166,-46) scale(1,1)"><rect fill="#ffffff" stroke="none" x="232" y="208" width="144" height="64"/></g><g transform="translate(-166,-46) scale(1,1)"><path fill="none" stroke="#000000" d="M 232 208 L 376 208 L 376 272 L 232 272 L 232 208 Z Z" stroke-miterlimit="10"/></g><g transform="translate(-166,-46) scale(1,1)"><g><path fill="none" stroke="none"/><text fill="#000000" stroke="none" font-family="Arial" font-size="13px" font-style="normal" font-weight="bold" text-decoration="none" x="249.4482421875" y="227.5">Declaration Details</text></g></g><g transform="translate(-166,-46) scale(1,1)"><path fill="none" stroke="#000000" d="M 304 273 L 304 311" stroke-miterlimit="10"/></g><g transform="translate(-166,-46) scale(1,1)"><path fill="#000000" stroke="none" d="M 299.790482243984 300.83732514237585 L 304 311 L 308.209517756016 300.83732514237585 L 304 289"/></g><g transform="translate(-166,-46) scale(1,1)"><path fill="none" stroke="#000000" d="M 299.790482243984 300.83732514237585 L 304 311 L 308.209517756016 300.83732514237585 L 304 289 L 299.790482243984 300.83732514237585" stroke-miterlimit="10"/></g><g transform="translate(-166,-46) scale(1,1)"><g><path fill="none" stroke="none"/><text fill="#000000" stroke="none" font-family="Arial" font-size="13px" font-style="normal" font-weight="normal" text-decoration="none" x="278.5" y="292.5">1..*</text></g></g><g transform="translate(-166,-46) scale(1,1)"><path fill="none" stroke="#000000" d="M 304 513 L 304 559" stroke-miterlimit="10"/></g><g transform="translate(-166,-46) scale(1,1)"><path fill="#000000" stroke="none" d="M 299.790482243984 548.8373251423759 L 304 559 L 308.209517756016 548.8373251423759 L 304 537"/></g><g transform="translate(-166,-46) scale(1,1)"><path fill="none" stroke="#000000" d="M 299.790482243984 548.8373251423759 L 304 559 L 308.209517756016 548.8373251423759 L 304 537 L 299.790482243984 548.8373251423759" stroke-miterlimit="10"/></g><g transform="translate(-166,-46) scale(1,1)"><g><path fill="none" stroke="none"/><text fill="#000000" stroke="none" font-family="Arial" font-size="13px" font-style="normal" font-weight="normal" text-decoration="none" x="279.5" y="532.5">1..*</text></g></g><g transform="translate(-166,-46) scale(1,1)"><path fill="none" stroke="#000000" d="M 496 240 L 376 240" stroke-miterlimit="10"/></g><g transform="translate(-166,-46) scale(1,1)"><g><path fill="none" stroke="none"/><text fill="#000000" stroke="none" font-family="Arial" font-size="13px" font-style="normal" font-weight="normal" text-decoration="none" x="464.5" y="233.5">1..*</text></g></g><g transform="translate(-166,-46) scale(1,1)"><g><path fill="none" stroke="none"/><text fill="#000000" stroke="none" font-family="Arial" font-size="13px" font-style="normal" font-weight="normal" text-decoration="none" x="393.5" y="233.5">1</text></g></g><g transform="translate(-166,-46) scale(1,1)"><path fill="none" stroke="#000000" d="M 728 344 L 376 344" stroke-miterlimit="10"/></g><g transform="translate(-166,-46) scale(1,1)"><g><path fill="none" stroke="none"/><text fill="#000000" stroke="none" font-family="Arial" font-size="13px" font-style="normal" font-weight="normal" text-decoration="none" x="703.5" y="364.5">1</text></g></g><g transform="translate(-166,-46) scale(1,1)"><g><path fill="none" stroke="none"/><text fill="#000000" stroke="none" font-family="Arial" font-size="13px" font-style="normal" font-weight="normal" text-decoration="none" x="393.5" y="337.5">1</text></g></g><g transform="translate(-166,-46) scale(1,1)"><path fill="none" stroke="#000000" d="M 496 488 L 376 488" stroke-miterlimit="10"/></g><g transform="translate(-166,-46) scale(1,1)"><g><path fill="none" stroke="none"/><text fill="#000000" stroke="none" font-family="Arial" font-size="13px" font-style="normal" font-weight="normal" text-decoration="none" x="464.5" y="481.5">1..*</text></g></g><g transform="translate(-166,-46) scale(1,1)"><g><path fill="none" stroke="none"/><text fill="#000000" stroke="none" font-family="Arial" font-size="13px" font-style="normal" font-weight="normal" text-decoration="none" x="393.5" y="481.5">1</text></g></g><g transform="translate(-166,-46) scale(1,1)"><path fill="none" stroke="#000000" d="M 376 576 L 728 576" stroke-miterlimit="10"/></g><g transform="translate(-166,-46) scale(1,1)"><g><path fill="none" stroke="none"/><text fill="#000000" stroke="none" font-family="Arial" font-size="13px" font-style="normal" font-weight="normal" text-decoration="none" x="393.5" y="594.5">1</text></g></g><g transform="translate(-166,-46) scale(1,1)"><g><path fill="none" stroke="none"/><text fill="#000000" stroke="none" font-family="Arial" font-size="13px" font-style="normal" font-weight="normal" text-decoration="none" x="702.641357421875" y="594.5">1</text></g></g><g transform="translate(-166,-46) scale(1,1)"><g><path fill="none" stroke="none"/><text fill="#000000" stroke="none" font-family="Arial" font-size="20px" font-style="normal" font-weight="normal" text-decoration="none" x="189" y="89">Regulatory Model</text></g></g></g></svg>