<svg version="1.1" xmlns="http://www.w3.org/2000/svg" xmlns:xlink="http://www.w3.org/1999/xlink" width="500" height="292"><defs/><g><g transform="translate(-326,-206) scale(1,1)"><rect fill="#C0C0C0" stroke="none" x="679" y="431" width="144" height="64" opacity="0.2"/></g><g transform="translate(-326,-206) scale(1,1)"><rect fill="#ffffff" stroke="none" x="672" y="424" width="144" height="64"/></g><g transform="translate(-326,-206) scale(1,1)"><path fill="none" stroke="#000000" d="M 672 424 L 816 424 L 816 488 L 672 488 L 672 424 Z Z" stroke-miterlimit="10"/></g><g transform="translate(-326,-206) scale(1,1)"><path fill="none" stroke="#000000" d="M 672 449 L 816 449" stroke-miterlimit="10"/></g><g transform="translate(-326,-206) scale(1,1)"><g><path fill="none" stroke="none"/><text fill="#000000" stroke="none" font-family="Arial" font-size="13px" font-style="normal" font-weight="bold" text-decoration="none" x="723.773193359375" y="443.5">Railcar</text></g></g><g transform="translate(-326,-206) scale(1,1)"><rect fill="#C0C0C0" stroke="none" x="599" y="223" width="146.26806640625" height="72" opacity="0.2"/></g><g transform="translate(-326,-206) scale(1,1)"><rect fill="#ffffff" stroke="none" x="592" y="216" width="146.26806640625" height="72"/></g><g transform="translate(-326,-206) scale(1,1)"><path fill="none" stroke="#000000" d="M 592 216 L 738.26806640625 216 L 738.26806640625 288 L 592 288 L 592 216 Z Z" stroke-miterlimit="10"/></g><g transform="translate(-326,-206) scale(1,1)"><path fill="none" stroke="#000000" d="M 592 256 L 738.26806640625 256" stroke-miterlimit="10"/></g><g transform="translate(-326,-206) scale(1,1)"><g><path fill="none" stroke="none"/><text fill="#000000" stroke="none" font-family="Arial" font-size="13px" font-style="normal" font-weight="bold" text-decoration="none" x="616.244384765625" y="235.5">Transport Means</text></g></g><g transform="translate(-326,-206) scale(1,1)"><g><path fill="none" stroke="none"/><text fill="#000000" stroke="none" font-family="Arial" font-size="13px" font-style="normal" font-weight="normal" text-decoration="none" x="596.5" y="250.5">(from Reference Model)</text></g></g><g transform="translate(-326,-206) scale(1,1)"><g><path fill="none" stroke="none"/><text fill="#000000" stroke="none" font-family="Arial" font-size="13px" font-style="normal" font-weight="normal" text-decoration="none" x="597" y="273.5">+id: string</text></g></g><g transform="translate(-326,-206) scale(1,1)"><path fill="none" stroke="#000000" d="M 744 423 L 744 368 L 690 289" stroke-miterlimit="10"/></g><g transform="translate(-326,-206) scale(1,1)"><path fill="#FFFFFF" stroke="none" d="M 708.4202308535862 301.02892743766427 L 690 289 L 694.5193339860191 310.53080630916577"/></g><g transform="translate(-326,-206) scale(1,1)"><path fill="none" stroke="#000000" d="M 708.4202308535862 301.02892743766427 L 690 289 L 694.5193339860191 310.53080630916577 L 708.4202308535862 301.02892743766427" stroke-miterlimit="10"/></g><g transform="translate(-326,-206) scale(1,1)"><rect fill="#C0C0C0" stroke="none" x="359" y="391" width="128" height="72" opacity="0.2"/></g><g transform="translate(-326,-206) scale(1,1)"><rect fill="#ffffff" stroke="none" x="352" y="384" width="128" height="72"/></g><g transform="translate(-326,-206) scale(1,1)"><path fill="none" stroke="#000000" d="M 352 384 L 480 384 L 480 456 L 352 456 L 352 384 Z Z" stroke-miterlimit="10"/></g><g transform="translate(-326,-206) scale(1,1)"><path fill="none" stroke="#000000" d="M 352 409 L 480 409" stroke-miterlimit="10"/></g><g transform="translate(-326,-206) scale(1,1)"><g><path fill="none" stroke="none"/><text fill="#000000" stroke="none" font-family="Arial" font-size="13px" font-style="normal" font-weight="bold" text-decoration="none" x="392.87548828125" y="403.5">Journey</text></g></g><g transform="translate(-326,-206) scale(1,1)"><rect fill="#C0C0C0" stroke="none" x="343" y="223" width="146.26806640625" height="72" opacity="0.2"/></g><g transform="translate(-326,-206) scale(1,1)"><rect fill="#ffffff" stroke="none" x="336" y="216" width="146.26806640625" height="72"/></g><g transform="translate(-326,-206) scale(1,1)"><path fill="none" stroke="#000000" d="M 336 216 L 482.26806640625 216 L 482.26806640625 288 L 336 288 L 336 216 Z Z" stroke-miterlimit="10"/></g><g transform="translate(-326,-206) scale(1,1)"><path fill="none" stroke="#000000" d="M 336 256 L 482.26806640625 256" stroke-miterlimit="10"/></g><g transform="translate(-326,-206) scale(1,1)"><g><path fill="none" stroke="none"/><text fill="#000000" stroke="none" font-family="Arial" font-size="13px" font-style="normal" font-weight="bold" text-decoration="none" x="349.408935546875" y="235.5">Transport Movement</text></g></g><g transform="translate(-326,-206) scale(1,1)"><g><path fill="none" stroke="none"/><text fill="#000000" stroke="none" font-family="Arial" font-size="13px" font-style="normal" font-weight="normal" text-decoration="none" x="340.5" y="250.5">(from Reference Model)</text></g></g><g transform="translate(-326,-206) scale(1,1)"><g><path fill="none" stroke="none"/><text fill="#000000" stroke="none" font-family="Arial" font-size="13px" font-style="normal" font-weight="normal" text-decoration="none" x="341" y="273.5">+id: string</text></g></g><g transform="translate(-326,-206) scale(1,1)"><path fill="none" stroke="#000000" d="M 591 252 L 483 252" stroke-miterlimit="10"/></g><g transform="translate(-326,-206) scale(1,1)"><g><path fill="none" stroke="none"/><text fill="#000000" stroke="none" font-family="Arial" font-size="13px" font-style="normal" font-weight="normal" text-decoration="none" x="565.5" y="245.5">1</text></g></g><g transform="translate(-326,-206) scale(1,1)"><g><path fill="none" stroke="none"/><text fill="#000000" stroke="none" font-family="Arial" font-size="13px" font-style="normal" font-weight="normal" text-decoration="none" x="494.5" y="245.5">1..*</text></g></g><g transform="translate(-326,-206) scale(1,1)"><path fill="none" stroke="#000000" d="M 414 383 L 411 289" stroke-miterlimit="10"/></g><g transform="translate(-326,-206) scale(1,1)"><path fill="#FFFFFF" stroke="none" d="M 420.06310240189595 309.0464504302569 L 411 289 L 403.23360012901406 309.58356220492334"/></g><g transform="translate(-326,-206) scale(1,1)"><path fill="none" stroke="#000000" d="M 420.06310240189595 309.0464504302569 L 411 289 L 403.23360012901406 309.58356220492334 L 420.06310240189595 309.0464504302569" stroke-miterlimit="10"/></g><g transform="translate(-326,-206) scale(1,1)"><rect fill="#C0C0C0" stroke="none" x="575" y="359" width="128" height="56" opacity="0.2"/></g><g transform="translate(-326,-206) scale(1,1)"><rect fill="#ffffff" stroke="none" x="568" y="352" width="128" height="56"/></g><g transform="translate(-326,-206) scale(1,1)"><path fill="none" stroke="#000000" d="M 568 352 L 696 352 L 696 408 L 568 408 L 568 352 Z Z" stroke-miterlimit="10"/></g><g transform="translate(-326,-206) scale(1,1)"><path fill="none" stroke="#000000" d="M 568 377 L 696 377" stroke-miterlimit="10"/></g><g transform="translate(-326,-206) scale(1,1)"><g><path fill="none" stroke="none"/><text fill="#000000" stroke="none" font-family="Arial" font-size="13px" font-style="normal" font-weight="bold" text-decoration="none" x="617.43212890625" y="371.5">Train</text></g></g><g transform="translate(-326,-206) scale(1,1)"><path fill="none" stroke="#000000" d="M 639 351 L 655 289" stroke-miterlimit="10"/></g><g transform="translate(-326,-206) scale(1,1)"><path fill="#FFFFFF" stroke="none" d="M 658.0731030510334 310.78430714155786 L 655 289 L 641.7691807034247 306.5768433099169"/></g><g transform="translate(-326,-206) scale(1,1)"><path fill="none" stroke="#000000" d="M 658.0731030510334 310.78430714155786 L 655 289 L 641.7691807034247 306.5768433099169 L 658.0731030510334 310.78430714155786" stroke-miterlimit="10"/></g><g transform="translate(-326,-206) scale(1,1)"><path fill="none" stroke="#000000" d="M 567 392 L 481 408" stroke-miterlimit="10"/></g><g transform="translate(-326,-206) scale(1,1)"><g><path fill="none" stroke="none"/><text fill="#000000" stroke="none" font-family="Arial" font-size="13px" font-style="normal" font-weight="normal" text-decoration="none" x="539.5" y="389.5">1</text></g></g><g transform="translate(-326,-206) scale(1,1)"><g><path fill="none" stroke="none"/><text fill="#000000" stroke="none" font-family="Arial" font-size="13px" font-style="normal" font-weight="normal" text-decoration="none" x="489.5" y="397.5">1..*</text></g></g><g transform="translate(-326,-206) scale(1,1)"><path fill="none" stroke="#000000" d="M 671 448 L 481 427" stroke-miterlimit="10"/></g><g transform="translate(-326,-206) scale(1,1)"><g><path fill="none" stroke="none"/><text fill="#000000" stroke="none" font-family="Arial" font-size="13px" font-style="normal" font-weight="normal" text-decoration="none" x="640.5" y="439.5">1..*</text></g></g><g transform="translate(-326,-206) scale(1,1)"><g><path fill="none" stroke="none"/><text fill="#000000" stroke="none" font-family="Arial" font-size="13px" font-style="normal" font-weight="normal" text-decoration="none" x="493.5" y="422.5">1..*</text></g></g></g></svg>