<svg version="1.1" xmlns="http://www.w3.org/2000/svg" xmlns:xlink="http://www.w3.org/1999/xlink" width="140" height="315"><defs/><g><g transform="translate(-174,-54) scale(1,1)"><path fill="#C0C0C0" stroke="none" d="M 247 80.5 C 247 75.2532944 251.2532944 71 256.5 71 C 261.7467056 71 266 75.2532944 266 80.5 C 266 85.7467056 261.7467056 90 256.5 90 C 251.2532944 90 247 85.7467056 247 80.5 Z" opacity="0.2"/></g><g transform="translate(-174,-54) scale(1,1)"><path fill="#000000" stroke="none" d="M 240 73.5 C 240 68.2532944 244.2532944 64 249.5 64 C 254.7467056 64 259 68.2532944 259 73.5 C 259 78.7467056 254.7467056 83 249.5 83 C 244.2532944 83 240 78.7467056 240 73.5 Z"/></g><g transform="translate(-174,-54) scale(1,1)"><path fill="#C0C0C0" stroke="none" d="M 201 223 L 301 223 Q 311 223 311 233 L 311 252 Q 311 262 301 262 L 201 262 Q 191 262 191 252 L 191 233 Q 191 223 201 223 Z" opacity="0.2"/></g><g transform="translate(-174,-54) scale(1,1)"><path fill="#ffffff" stroke="none" d="M 194 216 L 294 216 Q 304 216 304 226 L 304 245 Q 304 255 294 255 L 194 255 Q 184 255 184 245 L 184 226 Q 184 216 194 216 Z"/></g><g transform="translate(-174,-54) scale(1,1)"><path fill="none" stroke="#000000" d="M 194 216 L 294 216 Q 304 216 304 226 L 304 245 Q 304 255 294 255 L 194 255 Q 184 255 184 245 L 184 226 Q 184 216 194 216 Z" stroke-miterlimit="10"/></g><g transform="translate(-174,-54) scale(1,1)"><g><path fill="none" stroke="none"/><text fill="#000000" stroke="none" font-family="Arial" font-size="13px" font-style="normal" font-weight="bold" text-decoration="none" x="226" y="235.5">at sea</text></g></g><g transform="translate(-174,-54) scale(1,1)"><path fill="none" stroke="#000000" d="M 248 84 L 245 127" stroke-miterlimit="10"/></g><g transform="translate(-174,-54) scale(1,1)"><path fill="none" stroke="#000000" d="M 241.50799441606074 116.56899348088896 L 245 127 L 249.90661461591975 117.15494372739076" stroke-miterlimit="10"/></g><g transform="translate(-174,-54) scale(1,1)"><g><path fill="none" stroke="none"/><text fill="#000000" stroke="none" font-family="Arial" font-size="13px" font-style="normal" font-weight="normal" text-decoration="none" x="260.5" y="111.5">E034</text></g></g><g transform="translate(-174,-54) scale(1,1)"><path fill="#C0C0C0" stroke="none" d="M 201 327 L 301 327 Q 311 327 311 337 L 311 356 Q 311 366 301 366 L 201 366 Q 191 366 191 356 L 191 337 Q 191 327 201 327 Z" opacity="0.2"/></g><g transform="translate(-174,-54) scale(1,1)"><path fill="#ffffff" stroke="none" d="M 194 320 L 294 320 Q 304 320 304 330 L 304 349 Q 304 359 294 359 L 194 359 Q 184 359 184 349 L 184 330 Q 184 320 194 320 Z"/></g><g transform="translate(-174,-54) scale(1,1)"><path fill="none" stroke="#000000" d="M 194 320 L 294 320 Q 304 320 304 330 L 304 349 Q 304 359 294 359 L 194 359 Q 184 359 184 349 L 184 330 Q 184 320 194 320 Z" stroke-miterlimit="10"/></g><g transform="translate(-174,-54) scale(1,1)"><g><path fill="none" stroke="none"/><text fill="#000000" stroke="none" font-family="Arial" font-size="13px" font-style="normal" font-weight="bold" text-decoration="none" x="224.5" y="339.5">arrived</text></g></g><g transform="translate(-174,-54) scale(1,1)"><path fill="none" stroke="#000000" d="M 244 256 L 244 319" stroke-miterlimit="10"/></g><g transform="translate(-174,-54) scale(1,1)"><path fill="none" stroke="#000000" d="M 239.790482243984 308.83732514237585 L 244 319 L 248.209517756016 308.83732514237585" stroke-miterlimit="10"/></g><g transform="translate(-174,-54) scale(1,1)"><path fill="#C0C0C0" stroke="none" d="M 201 135 L 301 135 Q 311 135 311 145 L 311 164 Q 311 174 301 174 L 201 174 Q 191 174 191 164 L 191 145 Q 191 135 201 135 Z" opacity="0.2"/></g><g transform="translate(-174,-54) scale(1,1)"><path fill="#ffffff" stroke="none" d="M 194 128 L 294 128 Q 304 128 304 138 L 304 157 Q 304 167 294 167 L 194 167 Q 184 167 184 157 L 184 138 Q 184 128 194 128 Z"/></g><g transform="translate(-174,-54) scale(1,1)"><path fill="none" stroke="#000000" d="M 194 128 L 294 128 Q 304 128 304 138 L 304 157 Q 304 167 294 167 L 194 167 Q 184 167 184 157 L 184 138 Q 184 128 194 128 Z" stroke-miterlimit="10"/></g><g transform="translate(-174,-54) scale(1,1)"><g><path fill="none" stroke="none"/><text fill="#000000" stroke="none" font-family="Arial" font-size="13px" font-style="normal" font-weight="bold" text-decoration="none" x="221.5" y="147.5">planned</text></g></g><g transform="translate(-174,-54) scale(1,1)"><path fill="none" stroke="#000000" d="M 244 168 L 244 215" stroke-miterlimit="10"/></g><g transform="translate(-174,-54) scale(1,1)"><path fill="none" stroke="#000000" d="M 239.790482243984 204.83732514237585 L 244 215 L 248.209517756016 204.83732514237585" stroke-miterlimit="10"/></g><g transform="translate(-174,-54) scale(1,1)"><g><path fill="none" stroke="none"/><text fill="#000000" stroke="none" font-family="Arial" font-size="13px" font-style="normal" font-weight="normal" text-decoration="none" x="258.5" y="195.5">E025</text></g></g></g></svg>