<svg version="1.1" xmlns="http://www.w3.org/2000/svg" xmlns:xlink="http://www.w3.org/1999/xlink" width="205" height="725"><defs/><g><g transform="translate(-182,-14) scale(1,1)"><path fill="#C0C0C0" stroke="none" d="M 239 40.5 C 239 35.2532944 243.2532944 31 248.5 31 C 253.7467056 31 258 35.2532944 258 40.5 C 258 45.7467056 253.7467056 50 248.5 50 C 243.2532944 50 239 45.7467056 239 40.5 Z" opacity="0.2"/></g><g transform="translate(-182,-14) scale(1,1)"><path fill="#000000" stroke="none" d="M 232 33.5 C 232 28.2532944 236.2532944 24 241.5 24 C 246.7467056 24 251 28.2532944 251 33.5 C 251 38.7467056 246.7467056 43 241.5 43 C 236.2532944 43 232 38.7467056 232 33.5 Z"/></g><g transform="translate(-182,-14) scale(1,1)"><path fill="#C0C0C0" stroke="none" d="M 209 159 L 285 159 Q 295 159 295 169 L 295 188 Q 295 198 285 198 L 209 198 Q 199 198 199 188 L 199 169 Q 199 159 209 159 Z" opacity="0.2"/></g><g transform="translate(-182,-14) scale(1,1)"><path fill="#ffffff" stroke="none" d="M 202 152 L 278 152 Q 288 152 288 162 L 288 181 Q 288 191 278 191 L 202 191 Q 192 191 192 181 L 192 162 Q 192 152 202 152 Z"/></g><g transform="translate(-182,-14) scale(1,1)"><path fill="none" stroke="#000000" d="M 202 152 L 278 152 Q 288 152 288 162 L 288 181 Q 288 191 278 191 L 202 191 Q 192 191 192 181 L 192 162 Q 192 152 202 152 Z" stroke-miterlimit="10"/></g><g transform="translate(-182,-14) scale(1,1)"><g><path fill="none" stroke="none"/><text fill="#000000" stroke="none" font-family="Arial" font-size="13px" font-style="normal" font-weight="bold" text-decoration="none" x="220" y="171.5">stuffed</text></g></g><g transform="translate(-182,-14) scale(1,1)"><path fill="#C0C0C0" stroke="none" d="M 209 247 L 288 247 Q 298 247 298 257 L 298 276 Q 298 286 288 286 L 209 286 Q 199 286 199 276 L 199 257 Q 199 247 209 247 Z" opacity="0.2"/></g><g transform="translate(-182,-14) scale(1,1)"><path fill="#ffffff" stroke="none" d="M 202 240 L 281 240 Q 291 240 291 250 L 291 269 Q 291 279 281 279 L 202 279 Q 192 279 192 269 L 192 250 Q 192 240 202 240 Z"/></g><g transform="translate(-182,-14) scale(1,1)"><path fill="none" stroke="#000000" d="M 202 240 L 281 240 Q 291 240 291 250 L 291 269 Q 291 279 281 279 L 202 279 Q 192 279 192 269 L 192 250 Q 192 240 202 240 Z" stroke-miterlimit="10"/></g><g transform="translate(-182,-14) scale(1,1)"><g><path fill="none" stroke="none"/><text fill="#000000" stroke="none" font-family="Arial" font-size="13px" font-style="normal" font-weight="bold" text-decoration="none" x="222.5" y="259.5">sealed</text></g></g><g transform="translate(-182,-14) scale(1,1)"><path fill="none" stroke="#000000" d="M 240 112 L 240 151" stroke-miterlimit="10"/></g><g transform="translate(-182,-14) scale(1,1)"><path fill="none" stroke="#000000" d="M 235.790482243984 140.83732514237585 L 240 151 L 244.209517756016 140.83732514237585" stroke-miterlimit="10"/></g><g transform="translate(-182,-14) scale(1,1)"><g><path fill="none" stroke="none"/><text fill="#000000" stroke="none" font-family="Arial" font-size="13px" font-style="normal" font-weight="normal" text-decoration="none" x="253.5" y="140.5">E229</text></g></g><g transform="translate(-182,-14) scale(1,1)"><path fill="none" stroke="#000000" d="M 240 192 L 241 239" stroke-miterlimit="10"/></g><g transform="translate(-182,-14) scale(1,1)"><path fill="none" stroke="#000000" d="M 236.5752565323953 228.9291685921226 L 241 239 L 244.9923870697424 228.7500807083493" stroke-miterlimit="10"/></g><g transform="translate(-182,-14) scale(1,1)"><g><path fill="none" stroke="none"/><text fill="#000000" stroke="none" font-family="Arial" font-size="13px" font-style="normal" font-weight="normal" text-decoration="none" x="246.5" y="220.5">E014</text></g></g><g transform="translate(-182,-14) scale(1,1)"><path fill="#C0C0C0" stroke="none" d="M 217 583 L 289 583 Q 299 583 299 593 L 299 612 Q 299 622 289 622 L 217 622 Q 207 622 207 612 L 207 593 Q 207 583 217 583 Z" opacity="0.2"/></g><g transform="translate(-182,-14) scale(1,1)"><path fill="#ffffff" stroke="none" d="M 210 576 L 282 576 Q 292 576 292 586 L 292 605 Q 292 615 282 615 L 210 615 Q 200 615 200 605 L 200 586 Q 200 576 210 576 Z"/></g><g transform="translate(-182,-14) scale(1,1)"><path fill="none" stroke="#000000" d="M 210 576 L 282 576 Q 292 576 292 586 L 292 605 Q 292 615 282 615 L 210 615 Q 200 615 200 605 L 200 586 Q 200 576 210 576 Z" stroke-miterlimit="10"/></g><g transform="translate(-182,-14) scale(1,1)"><g><path fill="none" stroke="none"/><text fill="#000000" stroke="none" font-family="Arial" font-size="13px" font-style="normal" font-weight="bold" text-decoration="none" x="223" y="595.5">stripped</text></g></g><g transform="translate(-182,-14) scale(1,1)"><path fill="none" stroke="#000000" d="M 245 344 L 245 367" stroke-miterlimit="10"/></g><g transform="translate(-182,-14) scale(1,1)"><path fill="none" stroke="#000000" d="M 240.790482243984 356.83732514237585 L 245 367 L 249.209517756016 356.83732514237585" stroke-miterlimit="10"/></g><g transform="translate(-182,-14) scale(1,1)"><path fill="#C0C0C0" stroke="none" d="M 217 439 L 285 439 Q 295 439 295 449 L 295 468 Q 295 478 285 478 L 217 478 Q 207 478 207 468 L 207 449 Q 207 439 217 439 Z" opacity="0.2"/></g><g transform="translate(-182,-14) scale(1,1)"><path fill="#ffffff" stroke="none" d="M 210 432 L 278 432 Q 288 432 288 442 L 288 461 Q 288 471 278 471 L 210 471 Q 200 471 200 461 L 200 442 Q 200 432 210 432 Z"/></g><g transform="translate(-182,-14) scale(1,1)"><path fill="none" stroke="#000000" d="M 210 432 L 278 432 Q 288 432 288 442 L 288 461 Q 288 471 278 471 L 210 471 Q 200 471 200 461 L 200 442 Q 200 432 210 432 Z" stroke-miterlimit="10"/></g><g transform="translate(-182,-14) scale(1,1)"><g><path fill="none" stroke="none"/><text fill="#000000" stroke="none" font-family="Arial" font-size="13px" font-style="normal" font-weight="bold" text-decoration="none" x="226" y="451.5">transit</text></g></g><g transform="translate(-182,-14) scale(1,1)"><path fill="#C0C0C0" stroke="none" d="M 217 511 L 285 511 Q 295 511 295 521 L 295 540 Q 295 550 285 550 L 217 550 Q 207 550 207 540 L 207 521 Q 207 511 217 511 Z" opacity="0.2"/></g><g transform="translate(-182,-14) scale(1,1)"><path fill="#ffffff" stroke="none" d="M 210 504 L 278 504 Q 288 504 288 514 L 288 533 Q 288 543 278 543 L 210 543 Q 200 543 200 533 L 200 514 Q 200 504 210 504 Z"/></g><g transform="translate(-182,-14) scale(1,1)"><path fill="none" stroke="#000000" d="M 210 504 L 278 504 Q 288 504 288 514 L 288 533 Q 288 543 278 543 L 210 543 Q 200 543 200 533 L 200 514 Q 200 504 210 504 Z" stroke-miterlimit="10"/></g><g transform="translate(-182,-14) scale(1,1)"><g><path fill="none" stroke="none"/><text fill="#000000" stroke="none" font-family="Arial" font-size="13px" font-style="normal" font-weight="bold" text-decoration="none" x="212.5" y="523.5">discharged</text></g></g><g transform="translate(-182,-14) scale(1,1)"><path fill="none" stroke="#000000" d="M 244 472 L 244 503" stroke-miterlimit="10"/></g><g transform="translate(-182,-14) scale(1,1)"><path fill="none" stroke="#000000" d="M 239.790482243984 492.83732514237585 L 244 503 L 248.209517756016 492.83732514237585" stroke-miterlimit="10"/></g><g transform="translate(-182,-14) scale(1,1)"><path fill="none" stroke="#000000" d="M 289 522 L 376 520 L 376 320 L 301 322" stroke-miterlimit="10"/></g><g transform="translate(-182,-14) scale(1,1)"><path fill="none" stroke="#000000" d="M 311.0468494724857 317.52106980661523 L 301 322 L 311.27127730375867 325.9371134793516" stroke-miterlimit="10"/></g><g transform="translate(-182,-14) scale(1,1)"><path fill="#C0C0C0" stroke="none" d="M 231 723.5 C 231 716.59644 236.59644 711 243.5 711 C 250.40356 711 256 716.59644 256 723.5 C 256 730.40356 250.40356 736 243.5 736 C 236.59644 736 231 730.40356 231 723.5 Z" opacity="0.2"/></g><g transform="translate(-182,-14) scale(1,1)"><path fill="none" stroke="#000000" d="M 224 716.5 C 224 709.59644 229.59644 704 236.5 704 C 243.40356 704 249 709.59644 249 716.5 C 249 723.40356 243.40356 729 236.5 729 C 229.59644 729 224 723.40356 224 716.5 Z" stroke-miterlimit="10"/></g><g transform="translate(-182,-14) scale(1,1)"><path fill="#000000" stroke="none" d="M 229 716.5 C 229 712.357864 232.357864 709 236.5 709 C 240.642136 709 244 712.357864 244 716.5 C 244 720.642136 240.642136 724 236.5 724 C 232.357864 724 229 720.642136 229 716.5 Z"/></g><g transform="translate(-182,-14) scale(1,1)"><path fill="none" stroke="#000000" d="M 245 616 L 245 639" stroke-miterlimit="10"/></g><g transform="translate(-182,-14) scale(1,1)"><path fill="none" stroke="#000000" d="M 240.790482243984 628.8373251423759 L 245 639 L 249.209517756016 628.8373251423759" stroke-miterlimit="10"/></g><g transform="translate(-182,-14) scale(1,1)"><path fill="#C0C0C0" stroke="none" d="M 217 647 L 285 647 Q 295 647 295 657 L 295 676 Q 295 686 285 686 L 217 686 Q 207 686 207 676 L 207 657 Q 207 647 217 647 Z" opacity="0.2"/></g><g transform="translate(-182,-14) scale(1,1)"><path fill="#ffffff" stroke="none" d="M 210 640 L 278 640 Q 288 640 288 650 L 288 669 Q 288 679 278 679 L 210 679 Q 200 679 200 669 L 200 650 Q 200 640 210 640 Z"/></g><g transform="translate(-182,-14) scale(1,1)"><path fill="none" stroke="#000000" d="M 210 640 L 278 640 Q 288 640 288 650 L 288 669 Q 288 679 278 679 L 210 679 Q 200 679 200 669 L 200 650 Q 200 640 210 640 Z" stroke-miterlimit="10"/></g><g transform="translate(-182,-14) scale(1,1)"><g><path fill="none" stroke="none"/><text fill="#000000" stroke="none" font-family="Arial" font-size="13px" font-style="normal" font-weight="bold" text-decoration="none" x="219.5" y="659.5">released</text></g></g><g transform="translate(-182,-14) scale(1,1)"><path fill="none" stroke="#000000" d="M 244 408 L 244 431" stroke-miterlimit="10"/></g><g transform="translate(-182,-14) scale(1,1)"><path fill="none" stroke="#000000" d="M 239.790482243984 420.83732514237585 L 244 431 L 248.209517756016 420.83732514237585" stroke-miterlimit="10"/></g><g transform="translate(-182,-14) scale(1,1)"><path fill="#C0C0C0" stroke="none" d="M 209 311 L 297 311 Q 307 311 307 321 L 307 340 Q 307 350 297 350 L 209 350 Q 199 350 199 340 L 199 321 Q 199 311 209 311 Z" opacity="0.2"/></g><g transform="translate(-182,-14) scale(1,1)"><path fill="#ffffff" stroke="none" d="M 202 304 L 290 304 Q 300 304 300 314 L 300 333 Q 300 343 290 343 L 202 343 Q 192 343 192 333 L 192 314 Q 192 304 202 304 Z"/></g><g transform="translate(-182,-14) scale(1,1)"><path fill="none" stroke="#000000" d="M 202 304 L 290 304 Q 300 304 300 314 L 300 333 Q 300 343 290 343 L 202 343 Q 192 343 192 333 L 192 314 Q 192 304 202 304 Z" stroke-miterlimit="10"/></g><g transform="translate(-182,-14) scale(1,1)"><g><path fill="none" stroke="none"/><text fill="#000000" stroke="none" font-family="Arial" font-size="13px" font-style="normal" font-weight="bold" text-decoration="none" x="222.5" y="323.5">at depot</text></g></g><g transform="translate(-182,-14) scale(1,1)"><path fill="none" stroke="#000000" d="M 241 680 L 238 703" stroke-miterlimit="10"/></g><g transform="translate(-182,-14) scale(1,1)"><path fill="none" stroke="#000000" d="M 235.14027253626998 692.3782318405462 L 238 703 L 243.4885916117923 693.4671430243098" stroke-miterlimit="10"/></g><g transform="translate(-182,-14) scale(1,1)"><path fill="#C0C0C0" stroke="none" d="M 209 79 L 285 79 Q 295 79 295 89 L 295 108 Q 295 118 285 118 L 209 118 Q 199 118 199 108 L 199 89 Q 199 79 209 79 Z" opacity="0.2"/></g><g transform="translate(-182,-14) scale(1,1)"><path fill="#ffffff" stroke="none" d="M 202 72 L 278 72 Q 288 72 288 82 L 288 101 Q 288 111 278 111 L 202 111 Q 192 111 192 101 L 192 82 Q 192 72 202 72 Z"/></g><g transform="translate(-182,-14) scale(1,1)"><path fill="none" stroke="#000000" d="M 202 72 L 278 72 Q 288 72 288 82 L 288 101 Q 288 111 278 111 L 202 111 Q 192 111 192 101 L 192 82 Q 192 72 202 72 Z" stroke-miterlimit="10"/></g><g transform="translate(-182,-14) scale(1,1)"><g><path fill="none" stroke="none"/><text fill="#000000" stroke="none" font-family="Arial" font-size="13px" font-style="normal" font-weight="bold" text-decoration="none" x="219" y="91.5">booked</text></g></g><g transform="translate(-182,-14) scale(1,1)"><path fill="#C0C0C0" stroke="none" d="M 217 375 L 285 375 Q 295 375 295 385 L 295 404 Q 295 414 285 414 L 217 414 Q 207 414 207 404 L 207 385 Q 207 375 217 375 Z" opacity="0.2"/></g><g transform="translate(-182,-14) scale(1,1)"><path fill="#ffffff" stroke="none" d="M 210 368 L 278 368 Q 288 368 288 378 L 288 397 Q 288 407 278 407 L 210 407 Q 200 407 200 397 L 200 378 Q 200 368 210 368 Z"/></g><g transform="translate(-182,-14) scale(1,1)"><path fill="none" stroke="#000000" d="M 210 368 L 278 368 Q 288 368 288 378 L 288 397 Q 288 407 278 407 L 210 407 Q 200 407 200 397 L 200 378 Q 200 368 210 368 Z" stroke-miterlimit="10"/></g><g transform="translate(-182,-14) scale(1,1)"><g><path fill="none" stroke="none"/><text fill="#000000" stroke="none" font-family="Arial" font-size="13px" font-style="normal" font-weight="bold" text-decoration="none" x="225" y="387.5">loaded</text></g></g><g transform="translate(-182,-14) scale(1,1)"><path fill="none" stroke="#000000" d="M 241 44 L 240 71" stroke-miterlimit="10"/></g><g transform="translate(-182,-14) scale(1,1)"><path fill="none" stroke="#000000" d="M 236.16950393511132 60.688487021931635 L 240 71 L 244.58277100829406 61.000089506123594" stroke-miterlimit="10"/></g><g transform="translate(-182,-14) scale(1,1)"><path fill="none" stroke="#000000" d="M 243 280 L 244 303" stroke-miterlimit="10"/></g><g transform="translate(-182,-14) scale(1,1)"><path fill="none" stroke="#000000" d="M 239.35301697510945 293.02976686499363 L 244 303 L 247.76410625081493 292.6640673312673" stroke-miterlimit="10"/></g><g transform="translate(-182,-14) scale(1,1)"><path fill="none" stroke="#000000" d="M 245 544 L 245 575" stroke-miterlimit="10"/></g><g transform="translate(-182,-14) scale(1,1)"><path fill="none" stroke="#000000" d="M 240.790482243984 564.8373251423759 L 245 575 L 249.209517756016 564.8373251423759" stroke-miterlimit="10"/></g><g transform="translate(-182,-14) scale(1,1)"><g><path fill="none" stroke="none"/><text fill="#000000" stroke="none" font-family="Arial" font-size="13px" font-style="normal" font-weight="normal" text-decoration="none" x="262.5" y="564.5">E021</text></g></g></g></svg>