<svg version="1.1" xmlns="http://www.w3.org/2000/svg" xmlns:xlink="http://www.w3.org/1999/xlink" width="1045" height="697"><defs/><g><g transform="translate(-62,-38) scale(1,1)"><rect fill="#C0C0C0" stroke="none" x="95" y="119" width="146.26806640625" height="80" opacity="0.2"/></g><g transform="translate(-62,-38) scale(1,1)"><rect fill="#ffffff" stroke="none" x="88" y="112" width="146.26806640625" height="80"/></g><g transform="translate(-62,-38) scale(1,1)"><path fill="none" stroke="#000000" d="M 88 112 L 234.26806640625 112 L 234.26806640625 192 L 88 192 L 88 112 Z Z" stroke-miterlimit="10"/></g><g transform="translate(-62,-38) scale(1,1)"><path fill="none" stroke="#000000" d="M 88 152 L 234.26806640625 152" stroke-miterlimit="10"/></g><g transform="translate(-62,-38) scale(1,1)"><g><path fill="none" stroke="none"/><text fill="#000000" stroke="none" font-family="Arial" font-size="13px" font-style="normal" font-weight="bold" text-decoration="none" x="100.678955078125" y="131.5">Transport Equipment</text></g></g><g transform="translate(-62,-38) scale(1,1)"><g><path fill="none" stroke="none"/><text fill="#000000" stroke="none" font-family="Arial" font-size="13px" font-style="normal" font-weight="normal" text-decoration="none" x="92.5" y="146.5">(from Reference Model)</text></g></g><g transform="translate(-62,-38) scale(1,1)"><g><path fill="none" stroke="none"/><text fill="#000000" stroke="none" font-family="Arial" font-size="13px" font-style="normal" font-weight="normal" text-decoration="none" x="93" y="169.5">+id: string</text></g></g><g transform="translate(-62,-38) scale(1,1)"><rect fill="#C0C0C0" stroke="none" x="95" y="423" width="143" height="96" opacity="0.2"/></g><g transform="translate(-62,-38) scale(1,1)"><rect fill="#ffffff" stroke="none" x="88" y="416" width="143" height="96"/></g><g transform="translate(-62,-38) scale(1,1)"><path fill="none" stroke="#000000" d="M 88 416 L 231 416 L 231 512 L 88 512 L 88 416 Z Z" stroke-miterlimit="10"/></g><g transform="translate(-62,-38) scale(1,1)"><path fill="none" stroke="#000000" d="M 88 441 L 231 441" stroke-miterlimit="10"/></g><g transform="translate(-62,-38) scale(1,1)"><g><path fill="none" stroke="none"/><text fill="#000000" stroke="none" font-family="Arial" font-size="13px" font-style="normal" font-weight="bold" text-decoration="none" x="131.31640625" y="435.5">Container</text></g></g><g transform="translate(-62,-38) scale(1,1)"><g><path fill="none" stroke="none"/><text fill="#000000" stroke="none" font-family="Arial" font-size="13px" font-style="normal" font-weight="normal" text-decoration="none" x="93" y="458.5">+bic: identifier</text></g></g><g transform="translate(-62,-38) scale(1,1)"><g><path fill="none" stroke="none"/><text fill="#000000" stroke="none" font-family="Arial" font-size="13px" font-style="normal" font-weight="normal" text-decoration="none" x="93" y="473.5">+type: code</text></g></g><g transform="translate(-62,-38) scale(1,1)"><g><path fill="none" stroke="none"/><text fill="#000000" stroke="none" font-family="Arial" font-size="13px" font-style="normal" font-weight="normal" text-decoration="none" x="93" y="488.5">+operator: party</text></g></g><g transform="translate(-62,-38) scale(1,1)"><path fill="none" stroke="#000000" d="M 159 415 L 161 193" stroke-miterlimit="10"/></g><g transform="translate(-62,-38) scale(1,1)"><path fill="#FFFFFF" stroke="none" d="M 169.23559005063527 213.40036902896313 L 161 193 L 152.39820229278882 213.2486808509645"/></g><g transform="translate(-62,-38) scale(1,1)"><path fill="none" stroke="#000000" d="M 169.23559005063527 213.40036902896313 L 161 193 L 152.39820229278882 213.2486808509645 L 169.23559005063527 213.40036902896313" stroke-miterlimit="10"/></g><g transform="translate(-62,-38) scale(1,1)"><rect fill="#C0C0C0" stroke="none" x="567" y="119" width="146.26806640625" height="88" opacity="0.2"/></g><g transform="translate(-62,-38) scale(1,1)"><rect fill="#ffffff" stroke="none" x="560" y="112" width="146.26806640625" height="88"/></g><g transform="translate(-62,-38) scale(1,1)"><path fill="none" stroke="#000000" d="M 560 112 L 706.26806640625 112 L 706.26806640625 200 L 560 200 L 560 112 Z Z" stroke-miterlimit="10"/></g><g transform="translate(-62,-38) scale(1,1)"><path fill="none" stroke="#000000" d="M 560 152 L 706.26806640625 152" stroke-miterlimit="10"/></g><g transform="translate(-62,-38) scale(1,1)"><g><path fill="none" stroke="none"/><text fill="#000000" stroke="none" font-family="Arial" font-size="13px" font-style="normal" font-weight="bold" text-decoration="none" x="573.408935546875" y="131.5">Transport Movement</text></g></g><g transform="translate(-62,-38) scale(1,1)"><g><path fill="none" stroke="none"/><text fill="#000000" stroke="none" font-family="Arial" font-size="13px" font-style="normal" font-weight="normal" text-decoration="none" x="564.5" y="146.5">(from Reference Model)</text></g></g><g transform="translate(-62,-38) scale(1,1)"><g><path fill="none" stroke="none"/><text fill="#000000" stroke="none" font-family="Arial" font-size="13px" font-style="normal" font-weight="normal" text-decoration="none" x="565" y="169.5">+id: string</text></g></g><g transform="translate(-62,-38) scale(1,1)"><path fill="none" stroke="#000000" d="M 633 111 L 632 48 L 160 48 L 161 111" stroke-miterlimit="10"/></g><g transform="translate(-62,-38) scale(1,1)"><g><path fill="none" stroke="none"/><text fill="#000000" stroke="none" font-family="Arial" font-size="13px" font-style="normal" font-weight="normal" text-decoration="none" x="634.74365234375" y="95.5">1..*</text></g></g><g transform="translate(-62,-38) scale(1,1)"><g><path fill="none" stroke="none"/><text fill="#000000" stroke="none" font-family="Arial" font-size="13px" font-style="normal" font-weight="normal" text-decoration="none" x="137.74365234375" y="95.5">1..*</text></g></g><g transform="translate(-62,-38) scale(1,1)"><rect fill="#C0C0C0" stroke="none" x="567" y="439" width="152" height="137" opacity="0.2"/></g><g transform="translate(-62,-38) scale(1,1)"><rect fill="#ffffff" stroke="none" x="560" y="432" width="152" height="137"/></g><g transform="translate(-62,-38) scale(1,1)"><path fill="none" stroke="#000000" d="M 560 432 L 712 432 L 712 569 L 560 569 L 560 432 Z Z" stroke-miterlimit="10"/></g><g transform="translate(-62,-38) scale(1,1)"><path fill="none" stroke="#000000" d="M 560 457 L 712 457" stroke-miterlimit="10"/></g><g transform="translate(-62,-38) scale(1,1)"><g><path fill="none" stroke="none"/><text fill="#000000" stroke="none" font-family="Arial" font-size="13px" font-style="normal" font-weight="bold" text-decoration="none" x="614.313232421875" y="451.5">Voyage</text></g></g><g transform="translate(-62,-38) scale(1,1)"><g><path fill="none" stroke="none"/><text fill="#000000" stroke="none" font-family="Arial" font-size="13px" font-style="normal" font-weight="normal" text-decoration="none" x="565" y="474.5">+number: string</text></g></g><g transform="translate(-62,-38) scale(1,1)"><g><path fill="none" stroke="none"/><text fill="#000000" stroke="none" font-family="Arial" font-size="13px" font-style="normal" font-weight="normal" text-decoration="none" x="565" y="489.5">+departure_port: locode</text></g></g><g transform="translate(-62,-38) scale(1,1)"><g><path fill="none" stroke="none"/><text fill="#000000" stroke="none" font-family="Arial" font-size="13px" font-style="normal" font-weight="normal" text-decoration="none" x="565" y="504.5">+arrival_port: locode</text></g></g><g transform="translate(-62,-38) scale(1,1)"><g><path fill="none" stroke="none"/><text fill="#000000" stroke="none" font-family="Arial" font-size="13px" font-style="normal" font-weight="normal" text-decoration="none" x="565" y="519.5">+etd: datetime</text></g></g><g transform="translate(-62,-38) scale(1,1)"><g><path fill="none" stroke="none"/><text fill="#000000" stroke="none" font-family="Arial" font-size="13px" font-style="normal" font-weight="normal" text-decoration="none" x="565" y="534.5">+eta: datetime</text></g></g><g transform="translate(-62,-38) scale(1,1)"><g><path fill="none" stroke="none"/><text fill="#000000" stroke="none" font-family="Arial" font-size="13px" font-style="normal" font-weight="normal" text-decoration="none" x="565" y="549.5">+atd: datetime</text></g></g><g transform="translate(-62,-38) scale(1,1)"><g><path fill="none" stroke="none"/><text fill="#000000" stroke="none" font-family="Arial" font-size="13px" font-style="normal" font-weight="normal" text-decoration="none" x="565" y="564.5">+ata: datetime</text></g></g><g transform="translate(-62,-38) scale(1,1)"><path fill="none" stroke="#000000" d="M 622 431 L 600 325 L 624 201" stroke-miterlimit="10"/></g><g transform="translate(-62,-38) scale(1,1)"><path fill="#FFFFFF" stroke="none" d="M 628.4033777226076 222.5548199860737 L 624 201 L 611.8720988683737 219.3552176271897"/></g><g transform="translate(-62,-38) scale(1,1)"><path fill="none" stroke="#000000" d="M 628.4033777226076 222.5548199860737 L 624 201 L 611.8720988683737 219.3552176271897 L 628.4033777226076 222.5548199860737" stroke-miterlimit="10"/></g><g transform="translate(-62,-38) scale(1,1)"><rect fill="#C0C0C0" stroke="none" x="783" y="455" width="166.50439453125" height="95" opacity="0.2"/></g><g transform="translate(-62,-38) scale(1,1)"><rect fill="#ffffff" stroke="none" x="776" y="448" width="166.50439453125" height="95"/></g><g transform="translate(-62,-38) scale(1,1)"><path fill="none" stroke="#000000" d="M 776 448 L 942.50439453125 448 L 942.50439453125 543 L 776 543 L 776 448 Z Z" stroke-miterlimit="10"/></g><g transform="translate(-62,-38) scale(1,1)"><path fill="none" stroke="#000000" d="M 776 473 L 942.50439453125 473" stroke-miterlimit="10"/></g><g transform="translate(-62,-38) scale(1,1)"><g><path fill="none" stroke="none"/><text fill="#000000" stroke="none" font-family="Arial" font-size="13px" font-style="normal" font-weight="bold" text-decoration="none" x="840.101318359375" y="467.5">Vessel</text></g></g><g transform="translate(-62,-38) scale(1,1)"><g><path fill="none" stroke="none"/><text fill="#000000" stroke="none" font-family="Arial" font-size="13px" font-style="normal" font-weight="normal" text-decoration="none" x="781" y="490.5">+name: string</text></g></g><g transform="translate(-62,-38) scale(1,1)"><g><path fill="none" stroke="none"/><text fill="#000000" stroke="none" font-family="Arial" font-size="13px" font-style="normal" font-weight="normal" text-decoration="none" x="781" y="505.5">+number: identifier</text></g></g><g transform="translate(-62,-38) scale(1,1)"><g><path fill="none" stroke="none"/><text fill="#000000" stroke="none" font-family="Arial" font-size="13px" font-style="normal" font-weight="normal" text-decoration="none" x="781" y="520.5">+carrier: party</text></g></g><g transform="translate(-62,-38) scale(1,1)"><rect fill="#C0C0C0" stroke="none" x="303" y="71" width="152" height="167" opacity="0.2"/></g><g transform="translate(-62,-38) scale(1,1)"><rect fill="#ffffff" stroke="none" x="296" y="64" width="152" height="167"/></g><g transform="translate(-62,-38) scale(1,1)"><path fill="none" stroke="#000000" d="M 296 64 L 448 64 L 448 231 L 296 231 L 296 64 Z Z" stroke-miterlimit="10"/></g><g transform="translate(-62,-38) scale(1,1)"><path fill="none" stroke="#000000" d="M 296 104 L 448 104" stroke-miterlimit="10"/></g><g transform="translate(-62,-38) scale(1,1)"><g><path fill="none" stroke="none"/><text fill="#000000" stroke="none" font-family="Arial" font-size="13px" font-style="normal" font-weight="bold" text-decoration="none" x="333.701416015625" y="83.5">Consignment</text></g></g><g transform="translate(-62,-38) scale(1,1)"><g><path fill="none" stroke="none"/><text fill="#000000" stroke="none" font-family="Arial" font-size="13px" font-style="normal" font-weight="normal" text-decoration="none" x="303.365966796875" y="98.5">(from Reference Model)</text></g></g><g transform="translate(-62,-38) scale(1,1)"><g><path fill="none" stroke="none"/><text fill="#000000" stroke="none" font-family="Arial" font-size="13px" font-style="normal" font-weight="normal" text-decoration="none" x="301" y="121.5">+id: string</text></g></g><g transform="translate(-62,-38) scale(1,1)"><g><path fill="none" stroke="none"/><text fill="#000000" stroke="none" font-family="Arial" font-size="13px" font-style="normal" font-weight="normal" text-decoration="none" x="301" y="136.5">+import_country: code</text></g></g><g transform="translate(-62,-38) scale(1,1)"><g><path fill="none" stroke="none"/><text fill="#000000" stroke="none" font-family="Arial" font-size="13px" font-style="normal" font-weight="normal" text-decoration="none" x="301" y="151.5">+export_country: code</text></g></g><g transform="translate(-62,-38) scale(1,1)"><g><path fill="none" stroke="none"/><text fill="#000000" stroke="none" font-family="Arial" font-size="13px" font-style="normal" font-weight="normal" text-decoration="none" x="301" y="166.5">+entry_port: locode</text></g></g><g transform="translate(-62,-38) scale(1,1)"><g><path fill="none" stroke="none"/><text fill="#000000" stroke="none" font-family="Arial" font-size="13px" font-style="normal" font-weight="normal" text-decoration="none" x="301" y="181.5">+exit_port: locode</text></g></g><g transform="translate(-62,-38) scale(1,1)"><g><path fill="none" stroke="none"/><text fill="#000000" stroke="none" font-family="Arial" font-size="13px" font-style="normal" font-weight="normal" text-decoration="none" x="301" y="196.5">+consignee: party</text></g></g><g transform="translate(-62,-38) scale(1,1)"><g><path fill="none" stroke="none"/><text fill="#000000" stroke="none" font-family="Arial" font-size="13px" font-style="normal" font-weight="normal" text-decoration="none" x="301" y="211.5">+consignor: party</text></g></g><g transform="translate(-62,-38) scale(1,1)"><g><path fill="none" stroke="none"/><text fill="#000000" stroke="none" font-family="Arial" font-size="13px" font-style="normal" font-weight="normal" text-decoration="none" x="301" y="226.5">+status: code</text></g></g><g transform="translate(-62,-38) scale(1,1)"><path fill="none" stroke="#000000" d="M 449 150 L 559 153" stroke-miterlimit="10"/></g><g transform="translate(-62,-38) scale(1,1)"><g><path fill="none" stroke="none"/><text fill="#000000" stroke="none" font-family="Arial" font-size="13px" font-style="normal" font-weight="normal" text-decoration="none" x="459.74365234375" y="169.5">1..*</text></g></g><g transform="translate(-62,-38) scale(1,1)"><g><path fill="none" stroke="none"/><text fill="#000000" stroke="none" font-family="Arial" font-size="13px" font-style="normal" font-weight="normal" text-decoration="none" x="534.74365234375" y="144.5">1..*</text></g></g><g transform="translate(-62,-38) scale(1,1)"><path fill="none" stroke="#000000" d="M 295 149 L 235 150" stroke-miterlimit="10"/></g><g transform="translate(-62,-38) scale(1,1)"><g><path fill="none" stroke="none"/><text fill="#000000" stroke="none" font-family="Arial" font-size="13px" font-style="normal" font-weight="normal" text-decoration="none" x="270.74365234375" y="165.5">1..*</text></g></g><g transform="translate(-62,-38) scale(1,1)"><g><path fill="none" stroke="none"/><text fill="#000000" stroke="none" font-family="Arial" font-size="13px" font-style="normal" font-weight="normal" text-decoration="none" x="238.74365234375" y="141.5">1..*</text></g></g><g transform="translate(-62,-38) scale(1,1)"><rect fill="#C0C0C0" stroke="none" x="79" y="591" width="156.3671875" height="92" opacity="0.2"/></g><g transform="translate(-62,-38) scale(1,1)"><rect fill="#ffffff" stroke="none" x="72" y="584" width="156.3671875" height="92"/></g><g transform="translate(-62,-38) scale(1,1)"><path fill="none" stroke="#000000" d="M 72 584 L 228.3671875 584 L 228.3671875 676 L 72 676 L 72 584 Z Z" stroke-miterlimit="10"/></g><g transform="translate(-62,-38) scale(1,1)"><path fill="none" stroke="#000000" d="M 72 609 L 228.3671875 609" stroke-miterlimit="10"/></g><g transform="translate(-62,-38) scale(1,1)"><g><path fill="none" stroke="none"/><text fill="#000000" stroke="none" font-family="Arial" font-size="13px" font-style="normal" font-weight="bold" text-decoration="none" x="81.171875" y="603.5">Container Sensor Event</text></g></g><g transform="translate(-62,-38) scale(1,1)"><g><path fill="none" stroke="none"/><text fill="#000000" stroke="none" font-family="Arial" font-size="13px" font-style="normal" font-weight="normal" text-decoration="none" x="77" y="626.5">+timestamp: datetime</text></g></g><g transform="translate(-62,-38) scale(1,1)"><g><path fill="none" stroke="none"/><text fill="#000000" stroke="none" font-family="Arial" font-size="13px" font-style="normal" font-weight="normal" text-decoration="none" x="77" y="641.5">+type: code</text></g></g><g transform="translate(-62,-38) scale(1,1)"><g><path fill="none" stroke="none"/><text fill="#000000" stroke="none" font-family="Arial" font-size="13px" font-style="normal" font-weight="normal" text-decoration="none" x="77" y="656.5">+location: geocode</text></g></g><g transform="translate(-62,-38) scale(1,1)"><g><path fill="none" stroke="none"/><text fill="#000000" stroke="none" font-family="Arial" font-size="13px" font-style="normal" font-weight="normal" text-decoration="none" x="77" y="671.5">+value: measure</text></g></g><g transform="translate(-62,-38) scale(1,1)"><path fill="none" stroke="#000000" d="M 152 584 L 152 512" stroke-miterlimit="10"/></g><g transform="translate(-62,-38) scale(1,1)"><path fill="#000000" stroke="none" d="M 156.209517756016 522.1626748576241 L 152 512 L 147.790482243984 522.1626748576241 L 152 534"/></g><g transform="translate(-62,-38) scale(1,1)"><path fill="none" stroke="#000000" d="M 156.209517756016 522.1626748576241 L 152 512 L 147.790482243984 522.1626748576241 L 152 534 L 156.209517756016 522.1626748576241" stroke-miterlimit="10"/></g><g transform="translate(-62,-38) scale(1,1)"><g><path fill="none" stroke="none"/><text fill="#000000" stroke="none" font-family="Arial" font-size="13px" font-style="normal" font-weight="normal" text-decoration="none" x="158.74365234375" y="580.5">0..*</text></g></g><g transform="translate(-62,-38) scale(1,1)"><g><path fill="none" stroke="none"/><text fill="#000000" stroke="none" font-family="Arial" font-size="13px" font-style="normal" font-weight="normal" text-decoration="none" x="160.5" y="539.5">1</text></g></g><g transform="translate(-62,-38) scale(1,1)"><rect fill="#C0C0C0" stroke="none" x="303" y="415" width="166.50439453125" height="104" opacity="0.2"/></g><g transform="translate(-62,-38) scale(1,1)"><rect fill="#ffffff" stroke="none" x="296" y="408" width="166.50439453125" height="104"/></g><g transform="translate(-62,-38) scale(1,1)"><path fill="none" stroke="#000000" d="M 296 408 L 462.50439453125 408 L 462.50439453125 512 L 296 512 L 296 408 Z Z" stroke-miterlimit="10"/></g><g transform="translate(-62,-38) scale(1,1)"><path fill="none" stroke="#000000" d="M 296 433 L 462.50439453125 433" stroke-miterlimit="10"/></g><g transform="translate(-62,-38) scale(1,1)"><g><path fill="none" stroke="none"/><text fill="#000000" stroke="none" font-family="Arial" font-size="13px" font-style="normal" font-weight="bold" text-decoration="none" x="321.6884765625" y="427.5">Container Transport</text></g></g><g transform="translate(-62,-38) scale(1,1)"><g><path fill="none" stroke="none"/><text fill="#000000" stroke="none" font-family="Arial" font-size="13px" font-style="normal" font-weight="normal" text-decoration="none" x="301" y="450.5">+stuffed: datetime</text></g></g><g transform="translate(-62,-38) scale(1,1)"><g><path fill="none" stroke="none"/><text fill="#000000" stroke="none" font-family="Arial" font-size="13px" font-style="normal" font-weight="normal" text-decoration="none" x="301" y="465.5">+stripped: datetime</text></g></g><g transform="translate(-62,-38) scale(1,1)"><g><path fill="none" stroke="none"/><text fill="#000000" stroke="none" font-family="Arial" font-size="13px" font-style="normal" font-weight="normal" text-decoration="none" x="301" y="480.5">+status: code</text></g></g><g transform="translate(-62,-38) scale(1,1)"><path fill="none" stroke="#000000" d="M 232 463 L 295 462" stroke-miterlimit="10"/></g><g transform="translate(-62,-38) scale(1,1)"><g><path fill="none" stroke="none"/><text fill="#000000" stroke="none" font-family="Arial" font-size="13px" font-style="normal" font-weight="normal" text-decoration="none" x="239.5" y="451.5">1</text></g></g><g transform="translate(-62,-38) scale(1,1)"><g><path fill="none" stroke="none"/><text fill="#000000" stroke="none" font-family="Arial" font-size="13px" font-style="normal" font-weight="normal" text-decoration="none" x="262.74365234375" y="480.5">1..*</text></g></g><g transform="translate(-62,-38) scale(1,1)"><path fill="none" stroke="#000000" d="M 464 473 L 559 488" stroke-miterlimit="10"/></g><g transform="translate(-62,-38) scale(1,1)"><g><path fill="none" stroke="none"/><text fill="#000000" stroke="none" font-family="Arial" font-size="13px" font-style="normal" font-weight="normal" text-decoration="none" x="472.74365234375" y="494.5">1..*</text></g></g><g transform="translate(-62,-38) scale(1,1)"><g><path fill="none" stroke="none"/><text fill="#000000" stroke="none" font-family="Arial" font-size="13px" font-style="normal" font-weight="normal" text-decoration="none" x="538.5" y="481.5">1..*</text></g></g><g transform="translate(-62,-38) scale(1,1)"><path fill="none" stroke="#000000" d="M 775 497 L 713 498" stroke-miterlimit="10"/></g><g transform="translate(-62,-38) scale(1,1)"><g><path fill="none" stroke="none"/><text fill="#000000" stroke="none" font-family="Arial" font-size="13px" font-style="normal" font-weight="normal" text-decoration="none" x="759.5" y="491.5">1</text></g></g><g transform="translate(-62,-38) scale(1,1)"><g><path fill="none" stroke="none"/><text fill="#000000" stroke="none" font-family="Arial" font-size="13px" font-style="normal" font-weight="normal" text-decoration="none" x="717.74365234375" y="519.5">1..*</text></g></g><g transform="translate(-62,-38) scale(1,1)"><rect fill="#C0C0C0" stroke="none" x="567" y="655" width="144" height="77" opacity="0.2"/></g><g transform="translate(-62,-38) scale(1,1)"><rect fill="#ffffff" stroke="none" x="560" y="648" width="144" height="77"/></g><g transform="translate(-62,-38) scale(1,1)"><path fill="none" stroke="#000000" d="M 560 648 L 704 648 L 704 725 L 560 725 L 560 648 Z Z" stroke-miterlimit="10"/></g><g transform="translate(-62,-38) scale(1,1)"><path fill="none" stroke="#000000" d="M 560 673 L 704 673" stroke-miterlimit="10"/></g><g transform="translate(-62,-38) scale(1,1)"><g><path fill="none" stroke="none"/><text fill="#000000" stroke="none" font-family="Arial" font-size="13px" font-style="normal" font-weight="bold" text-decoration="none" x="591.885986328125" y="667.5">Voyage Event</text></g></g><g transform="translate(-62,-38) scale(1,1)"><g><path fill="none" stroke="none"/><text fill="#000000" stroke="none" font-family="Arial" font-size="13px" font-style="normal" font-weight="normal" text-decoration="none" x="565" y="690.5">+timestamp: datetime</text></g></g><g transform="translate(-62,-38) scale(1,1)"><g><path fill="none" stroke="none"/><text fill="#000000" stroke="none" font-family="Arial" font-size="13px" font-style="normal" font-weight="normal" text-decoration="none" x="565" y="705.5">+type: code</text></g></g><g transform="translate(-62,-38) scale(1,1)"><path fill="none" stroke="#000000" d="M 633 647 L 634 570" stroke-miterlimit="10"/></g><g transform="translate(-62,-38) scale(1,1)"><path fill="#000000" stroke="none" d="M 638.0771911455154 580.2164823869535 L 634 570 L 629.6588655314998 580.1071534828754 L 633.7143098058821 591.9981449470855"/></g><g transform="translate(-62,-38) scale(1,1)"><path fill="none" stroke="#000000" d="M 638.0771911455154 580.2164823869535 L 634 570 L 629.6588655314998 580.1071534828754 L 633.7143098058821 591.9981449470855 L 638.0771911455154 580.2164823869535" stroke-miterlimit="10"/></g><g transform="translate(-62,-38) scale(1,1)"><rect fill="#C0C0C0" stroke="none" x="303" y="583" width="176" height="96" opacity="0.2"/></g><g transform="translate(-62,-38) scale(1,1)"><rect fill="#ffffff" stroke="none" x="296" y="576" width="176" height="96"/></g><g transform="translate(-62,-38) scale(1,1)"><path fill="none" stroke="#000000" d="M 296 576 L 472 576 L 472 672 L 296 672 L 296 576 Z Z" stroke-miterlimit="10"/></g><g transform="translate(-62,-38) scale(1,1)"><path fill="none" stroke="#000000" d="M 296 601 L 472 601" stroke-miterlimit="10"/></g><g transform="translate(-62,-38) scale(1,1)"><g><path fill="none" stroke="none"/><text fill="#000000" stroke="none" font-family="Arial" font-size="13px" font-style="normal" font-weight="bold" text-decoration="none" x="308.009033203125" y="595.5">Container Transport Event</text></g></g><g transform="translate(-62,-38) scale(1,1)"><g><path fill="none" stroke="none"/><text fill="#000000" stroke="none" font-family="Arial" font-size="13px" font-style="normal" font-weight="normal" text-decoration="none" x="301" y="618.5">+timestamp: datetime</text></g></g><g transform="translate(-62,-38) scale(1,1)"><g><path fill="none" stroke="none"/><text fill="#000000" stroke="none" font-family="Arial" font-size="13px" font-style="normal" font-weight="normal" text-decoration="none" x="301" y="633.5">+type: code</text></g></g><g transform="translate(-62,-38) scale(1,1)"><g><path fill="none" stroke="none"/><text fill="#000000" stroke="none" font-family="Arial" font-size="13px" font-style="normal" font-weight="normal" text-decoration="none" x="301" y="648.5">+leg: code</text></g></g><g transform="translate(-62,-38) scale(1,1)"><g><path fill="none" stroke="none"/><text fill="#000000" stroke="none" font-family="Arial" font-size="13px" font-style="normal" font-weight="normal" text-decoration="none" x="301" y="663.5">+mode: code</text></g></g><g transform="translate(-62,-38) scale(1,1)"><path fill="none" stroke="#000000" d="M 383 575 L 381 513" stroke-miterlimit="10"/></g><g transform="translate(-62,-38) scale(1,1)"><path fill="#000000" stroke="none" d="M 385.5349870761203 523.0216711290793 L 381 513 L 377.1203284999246 523.2931117283115 L 381.7093084682411 534.9885625154734"/></g><g transform="translate(-62,-38) scale(1,1)"><path fill="none" stroke="#000000" d="M 385.5349870761203 523.0216711290793 L 381 513 L 377.1203284999246 523.2931117283115 L 381.7093084682411 534.9885625154734 L 385.5349870761203 523.0216711290793" stroke-miterlimit="10"/></g><g transform="translate(-62,-38) scale(1,1)"><g><path fill="none" stroke="none"/><text fill="#000000" stroke="none" font-family="Arial" font-size="13px" font-style="normal" font-weight="normal" text-decoration="none" x="384.5" y="571.5">1..*</text></g></g><g transform="translate(-62,-38) scale(1,1)"><g><path fill="none" stroke="none"/><text fill="#000000" stroke="none" font-family="Arial" font-size="13px" font-style="normal" font-weight="normal" text-decoration="none" x="390.5" y="540.5">1</text></g></g><g transform="translate(-62,-38) scale(1,1)"><rect fill="#C0C0C0" stroke="none" x="375" y="295" width="146.26806640625" height="72" opacity="0.2"/></g><g transform="translate(-62,-38) scale(1,1)"><rect fill="#ffffff" stroke="none" x="368" y="288" width="146.26806640625" height="72"/></g><g transform="translate(-62,-38) scale(1,1)"><path fill="none" stroke="#000000" d="M 368 288 L 514.26806640625 288 L 514.26806640625 360 L 368 360 L 368 288 Z Z" stroke-miterlimit="10"/></g><g transform="translate(-62,-38) scale(1,1)"><path fill="none" stroke="#000000" d="M 368 328 L 514.26806640625 328" stroke-miterlimit="10"/></g><g transform="translate(-62,-38) scale(1,1)"><path fill="none" stroke="#000000" d="M 368 351 L 514.26806640625 351" stroke-miterlimit="10"/></g><g transform="translate(-62,-38) scale(1,1)"><g><path fill="none" stroke="none"/><text fill="#000000" stroke="none" font-family="Arial" font-size="13px" font-style="normal" font-weight="bold" text-decoration="none" x="388.38818359375" y="307.5">Consignment Item</text></g></g><g transform="translate(-62,-38) scale(1,1)"><g><path fill="none" stroke="none"/><text fill="#000000" stroke="none" font-family="Arial" font-size="13px" font-style="normal" font-weight="normal" text-decoration="none" x="372.5" y="322.5">(from Reference Model)</text></g></g><g transform="translate(-62,-38) scale(1,1)"><g><path fill="none" stroke="none"/><text fill="#000000" stroke="none" font-family="Arial" font-size="13px" font-style="normal" font-weight="normal" text-decoration="none" x="373" y="345.5">+id: string</text></g></g><g transform="translate(-62,-38) scale(1,1)"><path fill="none" stroke="#000000" d="M 427 287 L 405 232" stroke-miterlimit="10"/></g><g transform="translate(-62,-38) scale(1,1)"><path fill="#000000" stroke="none" d="M 412.68276180526834 239.8724310758183 L 405 232 L 404.86588357261144 242.9991823688811 L 413.17059487979026 252.4264871994757"/></g><g transform="translate(-62,-38) scale(1,1)"><path fill="none" stroke="#000000" d="M 412.68276180526834 239.8724310758183 L 405 232 L 404.86588357261144 242.9991823688811 L 413.17059487979026 252.4264871994757 L 412.68276180526834 239.8724310758183" stroke-miterlimit="10"/></g><g transform="translate(-62,-38) scale(1,1)"><g><path fill="none" stroke="none"/><text fill="#000000" stroke="none" font-family="Arial" font-size="13px" font-style="normal" font-weight="normal" text-decoration="none" x="424.5" y="280.5">1..*</text></g></g><g transform="translate(-62,-38) scale(1,1)"><g><path fill="none" stroke="none"/><text fill="#000000" stroke="none" font-family="Arial" font-size="13px" font-style="normal" font-weight="normal" text-decoration="none" x="420.5" y="253.5">1</text></g></g><g transform="translate(-62,-38) scale(1,1)"><path fill="none" stroke="#000000" d="M 403 407 L 424 361" stroke-miterlimit="10"/></g><g transform="translate(-62,-38) scale(1,1)"><path fill="#FFFFFF" stroke="none" d="M 423.21773336991566 382.98608784935277 L 424 361 L 407.9003421511309 375.9933657712119"/></g><g transform="translate(-62,-38) scale(1,1)"><path fill="none" stroke="#000000" d="M 423.21773336991566 382.98608784935277 L 424 361 L 407.9003421511309 375.9933657712119 L 423.21773336991566 382.98608784935277" stroke-miterlimit="10"/></g><g transform="translate(-62,-38) scale(1,1)"><path fill="none" stroke="#000000" d="M 345 407 L 280 304 L 322 232" stroke-miterlimit="10"/></g><g transform="translate(-62,-38) scale(1,1)"><path fill="#000000" stroke="none" d="M 320.515415218025 242.89935814739238 L 322 232 L 313.24322997681713 238.6572500900211 L 310.9148374384701 251.00313581976553"/></g><g transform="translate(-62,-38) scale(1,1)"><path fill="none" stroke="#000000" d="M 320.515415218025 242.89935814739238 L 322 232 L 313.24322997681713 238.6572500900211 L 310.9148374384701 251.00313581976553 L 320.515415218025 242.89935814739238" stroke-miterlimit="10"/></g><g transform="translate(-62,-38) scale(1,1)"><g><path fill="none" stroke="none"/><text fill="#000000" stroke="none" font-family="Arial" font-size="13px" font-style="normal" font-weight="normal" text-decoration="none" x="302.5" y="397.5">1..*</text></g></g><g transform="translate(-62,-38) scale(1,1)"><g><path fill="none" stroke="none"/><text fill="#000000" stroke="none" font-family="Arial" font-size="13px" font-style="normal" font-weight="normal" text-decoration="none" x="317.5" y="262.5">1</text></g></g><g transform="translate(-62,-38) scale(1,1)"><rect fill="#C0C0C0" stroke="none" x="804" y="127" width="146.26806640625" height="72" opacity="0.2"/></g><g transform="translate(-62,-38) scale(1,1)"><rect fill="#ffffff" stroke="none" x="797" y="120" width="146.26806640625" height="72"/></g><g transform="translate(-62,-38) scale(1,1)"><path fill="none" stroke="#000000" d="M 797 120 L 943.26806640625 120 L 943.26806640625 192 L 797 192 L 797 120 Z Z" stroke-miterlimit="10"/></g><g transform="translate(-62,-38) scale(1,1)"><path fill="none" stroke="#000000" d="M 797 160 L 943.26806640625 160" stroke-miterlimit="10"/></g><g transform="translate(-62,-38) scale(1,1)"><path fill="none" stroke="#000000" d="M 797 183 L 943.26806640625 183" stroke-miterlimit="10"/></g><g transform="translate(-62,-38) scale(1,1)"><g><path fill="none" stroke="none"/><text fill="#000000" stroke="none" font-family="Arial" font-size="13px" font-style="normal" font-weight="bold" text-decoration="none" x="821.244384765625" y="139.5">Transport Means</text></g></g><g transform="translate(-62,-38) scale(1,1)"><g><path fill="none" stroke="none"/><text fill="#000000" stroke="none" font-family="Arial" font-size="13px" font-style="normal" font-weight="normal" text-decoration="none" x="801.5" y="154.5">(from Reference Model)</text></g></g><g transform="translate(-62,-38) scale(1,1)"><g><path fill="none" stroke="none"/><text fill="#000000" stroke="none" font-family="Arial" font-size="13px" font-style="normal" font-weight="normal" text-decoration="none" x="802" y="177.5">+id: string</text></g></g><g transform="translate(-62,-38) scale(1,1)"><path fill="none" stroke="#000000" d="M 796 156 L 707 156" stroke-miterlimit="10"/></g><g transform="translate(-62,-38) scale(1,1)"><g><path fill="none" stroke="none"/><text fill="#000000" stroke="none" font-family="Arial" font-size="13px" font-style="normal" font-weight="normal" text-decoration="none" x="770.5" y="149.5">1</text></g></g><g transform="translate(-62,-38) scale(1,1)"><g><path fill="none" stroke="none"/><text fill="#000000" stroke="none" font-family="Arial" font-size="13px" font-style="normal" font-weight="normal" text-decoration="none" x="718.5" y="149.5">1..*</text></g></g><g transform="translate(-62,-38) scale(1,1)"><path fill="none" stroke="#000000" d="M 861 447 L 869 193" stroke-miterlimit="10"/></g><g transform="translate(-62,-38) scale(1,1)"><path fill="#FFFFFF" stroke="none" d="M 876.7750115595355 213.5803108637622 L 869 193 L 859.945286026858 213.0502407682448"/></g><g transform="translate(-62,-38) scale(1,1)"><path fill="none" stroke="#000000" d="M 876.7750115595355 213.5803108637622 L 869 193 L 859.945286026858 213.0502407682448 L 876.7750115595355 213.5803108637622" stroke-miterlimit="10"/></g><g transform="translate(-62,-38) scale(1,1)"><rect fill="#C0C0C0" stroke="none" x="655" y="311" width="167.44384765625" height="59" opacity="0.2"/></g><g transform="translate(-62,-38) scale(1,1)"><rect fill="#ffffff" stroke="none" x="648" y="304" width="167.44384765625" height="59"/></g><g transform="translate(-62,-38) scale(1,1)"><path fill="none" stroke="#000000" d="M 648 304 L 815.44384765625 304 L 815.44384765625 363 L 648 363 L 648 304 Z Z" stroke-miterlimit="10"/></g><g transform="translate(-62,-38) scale(1,1)"><path fill="none" stroke="#000000" d="M 648 344 L 815.44384765625 344" stroke-miterlimit="10"/></g><g transform="translate(-62,-38) scale(1,1)"><g><path fill="none" stroke="none"/><text fill="#000000" stroke="none" font-family="Arial" font-size="13px" font-style="normal" font-weight="bold" text-decoration="none" x="708.597412109375" y="323.5">Journey</text></g></g><g transform="translate(-62,-38) scale(1,1)"><g><path fill="none" stroke="none"/><text fill="#000000" stroke="none" font-family="Arial" font-size="13px" font-style="normal" font-weight="normal" text-decoration="none" x="652.5" y="338.5">(from Rail Transport Model)</text></g></g><g transform="translate(-62,-38) scale(1,1)"><path fill="none" stroke="#000000" d="M 714 303 L 658 201" stroke-miterlimit="10"/></g><g transform="translate(-62,-38) scale(1,1)"><path fill="#FFFFFF" stroke="none" d="M 675.1616996094609 214.76503056715197 L 658 201 L 660.4018077132631 222.86850062780962"/></g><g transform="translate(-62,-38) scale(1,1)"><path fill="none" stroke="#000000" d="M 675.1616996094609 214.76503056715197 L 658 201 L 660.4018077132631 222.86850062780962 L 675.1616996094609 214.76503056715197" stroke-miterlimit="10"/></g><g transform="translate(-62,-38) scale(1,1)"><rect fill="#C0C0C0" stroke="none" x="895" y="247" width="167.44384765625" height="59" opacity="0.2"/></g><g transform="translate(-62,-38) scale(1,1)"><rect fill="#ffffff" stroke="none" x="888" y="240" width="167.44384765625" height="59"/></g><g transform="translate(-62,-38) scale(1,1)"><path fill="none" stroke="#000000" d="M 888 240 L 1055.44384765625 240 L 1055.44384765625 299 L 888 299 L 888 240 Z Z" stroke-miterlimit="10"/></g><g transform="translate(-62,-38) scale(1,1)"><path fill="none" stroke="#000000" d="M 888 280 L 1055.44384765625 280" stroke-miterlimit="10"/></g><g transform="translate(-62,-38) scale(1,1)"><path fill="none" stroke="#000000" d="M 888 290 L 1055.44384765625 290" stroke-miterlimit="10"/></g><g transform="translate(-62,-38) scale(1,1)"><g><path fill="none" stroke="none"/><text fill="#000000" stroke="none" font-family="Arial" font-size="13px" font-style="normal" font-weight="bold" text-decoration="none" x="957.154052734375" y="259.5">Train</text></g></g><g transform="translate(-62,-38) scale(1,1)"><g><path fill="none" stroke="none"/><text fill="#000000" stroke="none" font-family="Arial" font-size="13px" font-style="normal" font-weight="normal" text-decoration="none" x="892.5" y="274.5">(from Rail Transport Model)</text></g></g><g transform="translate(-62,-38) scale(1,1)"><path fill="none" stroke="#000000" d="M 944 239 L 903 193" stroke-miterlimit="10"/></g><g transform="translate(-62,-38) scale(1,1)"><path fill="#FFFFFF" stroke="none" d="M 922.8088103502935 202.57136523731617 L 903 193 L 910.2389668614113 213.77492139045026"/></g><g transform="translate(-62,-38) scale(1,1)"><path fill="none" stroke="#000000" d="M 922.8088103502935 202.57136523731617 L 903 193 L 910.2389668614113 213.77492139045026 L 922.8088103502935 202.57136523731617" stroke-miterlimit="10"/></g><g transform="translate(-62,-38) scale(1,1)"><path fill="none" stroke="#000000" d="M 887 291 L 816 310" stroke-miterlimit="10"/></g><g transform="translate(-62,-38) scale(1,1)"><g><path fill="none" stroke="none"/><text fill="#000000" stroke="none" font-family="Arial" font-size="13px" font-style="normal" font-weight="normal" text-decoration="none" x="858.5" y="290.5">1</text></g></g><g transform="translate(-62,-38) scale(1,1)"><g><path fill="none" stroke="none"/><text fill="#000000" stroke="none" font-family="Arial" font-size="13px" font-style="normal" font-weight="normal" text-decoration="none" x="823.5" y="298.5">1..*</text></g></g><g transform="translate(-62,-38) scale(1,1)"><rect fill="#C0C0C0" stroke="none" x="919" y="359" width="167.44384765625" height="59" opacity="0.2"/></g><g transform="translate(-62,-38) scale(1,1)"><rect fill="#ffffff" stroke="none" x="912" y="352" width="167.44384765625" height="59"/></g><g transform="translate(-62,-38) scale(1,1)"><path fill="none" stroke="#000000" d="M 912 352 L 1079.44384765625 352 L 1079.44384765625 411 L 912 411 L 912 352 Z Z" stroke-miterlimit="10"/></g><g transform="translate(-62,-38) scale(1,1)"><path fill="none" stroke="#000000" d="M 912 392 L 1079.44384765625 392" stroke-miterlimit="10"/></g><g transform="translate(-62,-38) scale(1,1)"><path fill="none" stroke="#000000" d="M 912 402 L 1079.44384765625 402" stroke-miterlimit="10"/></g><g transform="translate(-62,-38) scale(1,1)"><g><path fill="none" stroke="none"/><text fill="#000000" stroke="none" font-family="Arial" font-size="13px" font-style="normal" font-weight="bold" text-decoration="none" x="975.4951171875" y="371.5">Railcar</text></g></g><g transform="translate(-62,-38) scale(1,1)"><g><path fill="none" stroke="none"/><text fill="#000000" stroke="none" font-family="Arial" font-size="13px" font-style="normal" font-weight="normal" text-decoration="none" x="916.5" y="386.5">(from Rail Transport Model)</text></g></g><g transform="translate(-62,-38) scale(1,1)"><path fill="none" stroke="#000000" d="M 1080 377 L 1096 376 L 1080 152 L 944 155" stroke-miterlimit="10"/></g><g transform="translate(-62,-38) scale(1,1)"><path fill="#FFFFFF" stroke="none" d="M 964.1347375943199 146.1347677972946 L 944 155 L 964.5060752976816 162.9687436830289"/></g><g transform="translate(-62,-38) scale(1,1)"><path fill="none" stroke="#000000" d="M 964.1347375943199 146.1347677972946 L 944 155 L 964.5060752976816 162.9687436830289 L 964.1347375943199 146.1347677972946" stroke-miterlimit="10"/></g><g transform="translate(-62,-38) scale(1,1)"><path fill="none" stroke="#000000" d="M 911 366 L 816 349" stroke-miterlimit="10"/></g><g transform="translate(-62,-38) scale(1,1)"><g><path fill="none" stroke="none"/><text fill="#000000" stroke="none" font-family="Arial" font-size="13px" font-style="normal" font-weight="normal" text-decoration="none" x="881.5" y="355.5">1..*</text></g></g><g transform="translate(-62,-38) scale(1,1)"><g><path fill="none" stroke="none"/><text fill="#000000" stroke="none" font-family="Arial" font-size="13px" font-style="normal" font-weight="normal" text-decoration="none" x="829.5" y="346.5">1..*</text></g></g><g transform="translate(-62,-38) scale(1,1)"><path fill="none" stroke="#000000" d="M 464 430 L 647 363" stroke-miterlimit="10"/></g><g transform="translate(-62,-38) scale(1,1)"><g><path fill="none" stroke="none"/><text fill="#000000" stroke="none" font-family="Arial" font-size="13px" font-style="normal" font-weight="normal" text-decoration="none" x="478.5" y="440.5">1..*</text></g></g><g transform="translate(-62,-38) scale(1,1)"><g><path fill="none" stroke="none"/><text fill="#000000" stroke="none" font-family="Arial" font-size="13px" font-style="normal" font-weight="normal" text-decoration="none" x="620.5" y="388.5">1..*</text></g></g></g></svg>