<svg version="1.1" xmlns="http://www.w3.org/2000/svg" xmlns:xlink="http://www.w3.org/1999/xlink" width="843" height="592"><defs/><g><g transform="translate(-62,-38) scale(1,1)"><rect fill="#C0C0C0" stroke="none" x="95" y="151" width="145" height="72" opacity="0.2"/></g><g transform="translate(-62,-38) scale(1,1)"><rect fill="#ffffff" stroke="none" x="88" y="144" width="145" height="72"/></g><g transform="translate(-62,-38) scale(1,1)"><path fill="none" stroke="#000000" d="M 88 144 L 233 144 L 233 216 L 88 216 L 88 144 Z Z" stroke-miterlimit="10"/></g><g transform="translate(-62,-38) scale(1,1)"><path fill="none" stroke="#000000" d="M 88 184 L 233 184" stroke-miterlimit="10"/></g><g transform="translate(-62,-38) scale(1,1)"><g><path fill="none" stroke="none"/><text fill="#000000" stroke="none" font-family="Arial" font-size="13px" font-style="normal" font-weight="bold" text-decoration="none" x="100" y="163.5">Transport Equipment</text></g></g><g transform="translate(-62,-38) scale(1,1)"><g><path fill="none" stroke="none"/><text fill="#000000" stroke="none" font-family="Arial" font-size="13px" font-style="normal" font-weight="normal" text-decoration="none" x="92.5" y="178.5">(from Reference Model)</text></g></g><g transform="translate(-62,-38) scale(1,1)"><g><path fill="none" stroke="none"/><text fill="#000000" stroke="none" font-family="Arial" font-size="13px" font-style="normal" font-weight="normal" text-decoration="none" x="93" y="201.5">+id: string</text></g></g><g transform="translate(-62,-38) scale(1,1)"><rect fill="#C0C0C0" stroke="none" x="95" y="367" width="143" height="96" opacity="0.2"/></g><g transform="translate(-62,-38) scale(1,1)"><rect fill="#ffffff" stroke="none" x="88" y="360" width="143" height="96"/></g><g transform="translate(-62,-38) scale(1,1)"><path fill="none" stroke="#000000" d="M 88 360 L 231 360 L 231 456 L 88 456 L 88 360 Z Z" stroke-miterlimit="10"/></g><g transform="translate(-62,-38) scale(1,1)"><path fill="none" stroke="#000000" d="M 88 385 L 231 385" stroke-miterlimit="10"/></g><g transform="translate(-62,-38) scale(1,1)"><g><path fill="none" stroke="none"/><text fill="#000000" stroke="none" font-family="Arial" font-size="13px" font-style="normal" font-weight="bold" text-decoration="none" x="132" y="379.5">Container</text></g></g><g transform="translate(-62,-38) scale(1,1)"><g><path fill="none" stroke="none"/><text fill="#000000" stroke="none" font-family="Arial" font-size="13px" font-style="normal" font-weight="normal" text-decoration="none" x="93" y="402.5">+bic: identifier</text></g></g><g transform="translate(-62,-38) scale(1,1)"><g><path fill="none" stroke="none"/><text fill="#000000" stroke="none" font-family="Arial" font-size="13px" font-style="normal" font-weight="normal" text-decoration="none" x="93" y="417.5">+type: code</text></g></g><g transform="translate(-62,-38) scale(1,1)"><g><path fill="none" stroke="none"/><text fill="#000000" stroke="none" font-family="Arial" font-size="13px" font-style="normal" font-weight="normal" text-decoration="none" x="93" y="432.5">+operator: party</text></g></g><g transform="translate(-62,-38) scale(1,1)"><path fill="none" stroke="#000000" d="M 159 359 L 160 217" stroke-miterlimit="10"/></g><g transform="translate(-62,-38) scale(1,1)"><path fill="#FFFFFF" stroke="none" d="M 168.27569403934382 237.38413324542324 L 160 217 L 151.4380405277962 237.26555822069403"/></g><g transform="translate(-62,-38) scale(1,1)"><path fill="none" stroke="#000000" d="M 168.27569403934382 237.38413324542324 L 160 217 L 151.4380405277962 237.26555822069403 L 168.27569403934382 237.38413324542324" stroke-miterlimit="10"/></g><g transform="translate(-62,-38) scale(1,1)"><rect fill="#C0C0C0" stroke="none" x="527" y="151" width="145" height="72" opacity="0.2"/></g><g transform="translate(-62,-38) scale(1,1)"><rect fill="#ffffff" stroke="none" x="520" y="144" width="145" height="72"/></g><g transform="translate(-62,-38) scale(1,1)"><path fill="none" stroke="#000000" d="M 520 144 L 665 144 L 665 216 L 520 216 L 520 144 Z Z" stroke-miterlimit="10"/></g><g transform="translate(-62,-38) scale(1,1)"><path fill="none" stroke="#000000" d="M 520 184 L 665 184" stroke-miterlimit="10"/></g><g transform="translate(-62,-38) scale(1,1)"><g><path fill="none" stroke="none"/><text fill="#000000" stroke="none" font-family="Arial" font-size="13px" font-style="normal" font-weight="bold" text-decoration="none" x="532.5" y="163.5">Transport Movement</text></g></g><g transform="translate(-62,-38) scale(1,1)"><g><path fill="none" stroke="none"/><text fill="#000000" stroke="none" font-family="Arial" font-size="13px" font-style="normal" font-weight="normal" text-decoration="none" x="524.5" y="178.5">(from Reference Model)</text></g></g><g transform="translate(-62,-38) scale(1,1)"><g><path fill="none" stroke="none"/><text fill="#000000" stroke="none" font-family="Arial" font-size="13px" font-style="normal" font-weight="normal" text-decoration="none" x="525" y="201.5">+id: string</text></g></g><g transform="translate(-62,-38) scale(1,1)"><path fill="none" stroke="#000000" d="M 592 143 L 592 48 L 160 48 L 160 143" stroke-miterlimit="10"/></g><g transform="translate(-62,-38) scale(1,1)"><g><path fill="none" stroke="none"/><text fill="#000000" stroke="none" font-family="Arial" font-size="13px" font-style="normal" font-weight="normal" text-decoration="none" x="593.5" y="127.5">1..*</text></g></g><g transform="translate(-62,-38) scale(1,1)"><g><path fill="none" stroke="none"/><text fill="#000000" stroke="none" font-family="Arial" font-size="13px" font-style="normal" font-weight="normal" text-decoration="none" x="136.5" y="127.5">1..*</text></g></g><g transform="translate(-62,-38) scale(1,1)"><rect fill="#C0C0C0" stroke="none" x="527" y="351" width="152" height="137" opacity="0.2"/></g><g transform="translate(-62,-38) scale(1,1)"><rect fill="#ffffff" stroke="none" x="520" y="344" width="152" height="137"/></g><g transform="translate(-62,-38) scale(1,1)"><path fill="none" stroke="#000000" d="M 520 344 L 672 344 L 672 481 L 520 481 L 520 344 Z Z" stroke-miterlimit="10"/></g><g transform="translate(-62,-38) scale(1,1)"><path fill="none" stroke="#000000" d="M 520 369 L 672 369" stroke-miterlimit="10"/></g><g transform="translate(-62,-38) scale(1,1)"><g><path fill="none" stroke="none"/><text fill="#000000" stroke="none" font-family="Arial" font-size="13px" font-style="normal" font-weight="bold" text-decoration="none" x="574" y="363.5">Voyage</text></g></g><g transform="translate(-62,-38) scale(1,1)"><g><path fill="none" stroke="none"/><text fill="#000000" stroke="none" font-family="Arial" font-size="13px" font-style="normal" font-weight="normal" text-decoration="none" x="525" y="386.5">+number: string</text></g></g><g transform="translate(-62,-38) scale(1,1)"><g><path fill="none" stroke="none"/><text fill="#000000" stroke="none" font-family="Arial" font-size="13px" font-style="normal" font-weight="normal" text-decoration="none" x="525" y="401.5">+departure_port: locode</text></g></g><g transform="translate(-62,-38) scale(1,1)"><g><path fill="none" stroke="none"/><text fill="#000000" stroke="none" font-family="Arial" font-size="13px" font-style="normal" font-weight="normal" text-decoration="none" x="525" y="416.5">+arrival_port: locode</text></g></g><g transform="translate(-62,-38) scale(1,1)"><g><path fill="none" stroke="none"/><text fill="#000000" stroke="none" font-family="Arial" font-size="13px" font-style="normal" font-weight="normal" text-decoration="none" x="525" y="431.5">+etd: datetime</text></g></g><g transform="translate(-62,-38) scale(1,1)"><g><path fill="none" stroke="none"/><text fill="#000000" stroke="none" font-family="Arial" font-size="13px" font-style="normal" font-weight="normal" text-decoration="none" x="525" y="446.5">+eta: datetime</text></g></g><g transform="translate(-62,-38) scale(1,1)"><g><path fill="none" stroke="none"/><text fill="#000000" stroke="none" font-family="Arial" font-size="13px" font-style="normal" font-weight="normal" text-decoration="none" x="525" y="461.5">+atd: datetime</text></g></g><g transform="translate(-62,-38) scale(1,1)"><g><path fill="none" stroke="none"/><text fill="#000000" stroke="none" font-family="Arial" font-size="13px" font-style="normal" font-weight="normal" text-decoration="none" x="525" y="476.5">+ata: datetime</text></g></g><g transform="translate(-62,-38) scale(1,1)"><path fill="none" stroke="#000000" d="M 595 343 L 593 217" stroke-miterlimit="10"/></g><g transform="translate(-62,-38) scale(1,1)"><path fill="#FFFFFF" stroke="none" d="M 601.7405590765983 237.1891710337125 L 593 217 L 584.9046088499512 237.45640833889738"/></g><g transform="translate(-62,-38) scale(1,1)"><path fill="none" stroke="#000000" d="M 601.7405590765983 237.1891710337125 L 593 217 L 584.9046088499512 237.45640833889738 L 601.7405590765983 237.1891710337125" stroke-miterlimit="10"/></g><g transform="translate(-62,-38) scale(1,1)"><rect fill="#C0C0C0" stroke="none" x="751" y="151" width="145" height="72" opacity="0.2"/></g><g transform="translate(-62,-38) scale(1,1)"><rect fill="#ffffff" stroke="none" x="744" y="144" width="145" height="72"/></g><g transform="translate(-62,-38) scale(1,1)"><path fill="none" stroke="#000000" d="M 744 144 L 889 144 L 889 216 L 744 216 L 744 144 Z Z" stroke-miterlimit="10"/></g><g transform="translate(-62,-38) scale(1,1)"><path fill="none" stroke="#000000" d="M 744 184 L 889 184" stroke-miterlimit="10"/></g><g transform="translate(-62,-38) scale(1,1)"><g><path fill="none" stroke="none"/><text fill="#000000" stroke="none" font-family="Arial" font-size="13px" font-style="normal" font-weight="bold" text-decoration="none" x="767.5" y="163.5">Transport Means</text></g></g><g transform="translate(-62,-38) scale(1,1)"><g><path fill="none" stroke="none"/><text fill="#000000" stroke="none" font-family="Arial" font-size="13px" font-style="normal" font-weight="normal" text-decoration="none" x="748.5" y="178.5">(from Reference Model)</text></g></g><g transform="translate(-62,-38) scale(1,1)"><g><path fill="none" stroke="none"/><text fill="#000000" stroke="none" font-family="Arial" font-size="13px" font-style="normal" font-weight="normal" text-decoration="none" x="749" y="201.5">+id: string</text></g></g><g transform="translate(-62,-38) scale(1,1)"><path fill="none" stroke="#000000" d="M 744 186 L 665 186" stroke-miterlimit="10"/></g><g transform="translate(-62,-38) scale(1,1)"><g><path fill="none" stroke="none"/><text fill="#000000" stroke="none" font-family="Arial" font-size="13px" font-style="normal" font-weight="normal" text-decoration="none" x="727.5" y="178.5">1</text></g></g><g transform="translate(-62,-38) scale(1,1)"><g><path fill="none" stroke="none"/><text fill="#000000" stroke="none" font-family="Arial" font-size="13px" font-style="normal" font-weight="normal" text-decoration="none" x="675.5" y="179.5">1..*</text></g></g><g transform="translate(-62,-38) scale(1,1)"><rect fill="#C0C0C0" stroke="none" x="743" y="367" width="159" height="77" opacity="0.2"/></g><g transform="translate(-62,-38) scale(1,1)"><rect fill="#ffffff" stroke="none" x="736" y="360" width="159" height="77"/></g><g transform="translate(-62,-38) scale(1,1)"><path fill="none" stroke="#000000" d="M 736 360 L 895 360 L 895 437 L 736 437 L 736 360 Z Z" stroke-miterlimit="10"/></g><g transform="translate(-62,-38) scale(1,1)"><path fill="none" stroke="#000000" d="M 736 385 L 895 385" stroke-miterlimit="10"/></g><g transform="translate(-62,-38) scale(1,1)"><g><path fill="none" stroke="none"/><text fill="#000000" stroke="none" font-family="Arial" font-size="13px" font-style="normal" font-weight="bold" text-decoration="none" x="795.5" y="379.5">Vessel</text></g></g><g transform="translate(-62,-38) scale(1,1)"><g><path fill="none" stroke="none"/><text fill="#000000" stroke="none" font-family="Arial" font-size="13px" font-style="normal" font-weight="normal" text-decoration="none" x="741" y="402.5">+name: string</text></g></g><g transform="translate(-62,-38) scale(1,1)"><g><path fill="none" stroke="none"/><text fill="#000000" stroke="none" font-family="Arial" font-size="13px" font-style="normal" font-weight="normal" text-decoration="none" x="741" y="417.5">+number: identifier</text></g></g><g transform="translate(-62,-38) scale(1,1)"><g><path fill="none" stroke="none"/><text fill="#000000" stroke="none" font-family="Arial" font-size="13px" font-style="normal" font-weight="normal" text-decoration="none" x="741" y="432.5">+carrier: party</text></g></g><g transform="translate(-62,-38) scale(1,1)"><path fill="none" stroke="#000000" d="M 815 359 L 816 217" stroke-miterlimit="10"/></g><g transform="translate(-62,-38) scale(1,1)"><path fill="#FFFFFF" stroke="none" d="M 824.2756940393439 237.38413324542324 L 816 217 L 807.4380405277961 237.26555822069403"/></g><g transform="translate(-62,-38) scale(1,1)"><path fill="none" stroke="#000000" d="M 824.2756940393439 237.38413324542324 L 816 217 L 807.4380405277961 237.26555822069403 L 824.2756940393439 237.38413324542324" stroke-miterlimit="10"/></g><g transform="translate(-62,-38) scale(1,1)"><rect fill="#C0C0C0" stroke="none" x="303" y="95" width="152" height="167" opacity="0.2"/></g><g transform="translate(-62,-38) scale(1,1)"><rect fill="#ffffff" stroke="none" x="296" y="88" width="152" height="167"/></g><g transform="translate(-62,-38) scale(1,1)"><path fill="none" stroke="#000000" d="M 296 88 L 448 88 L 448 255 L 296 255 L 296 88 Z Z" stroke-miterlimit="10"/></g><g transform="translate(-62,-38) scale(1,1)"><path fill="none" stroke="#000000" d="M 296 128 L 448 128" stroke-miterlimit="10"/></g><g transform="translate(-62,-38) scale(1,1)"><g><path fill="none" stroke="none"/><text fill="#000000" stroke="none" font-family="Arial" font-size="13px" font-style="normal" font-weight="bold" text-decoration="none" x="334" y="107.5">Consignment</text></g></g><g transform="translate(-62,-38) scale(1,1)"><g><path fill="none" stroke="none"/><text fill="#000000" stroke="none" font-family="Arial" font-size="13px" font-style="normal" font-weight="normal" text-decoration="none" x="304" y="122.5">(from Reference Model)</text></g></g><g transform="translate(-62,-38) scale(1,1)"><g><path fill="none" stroke="none"/><text fill="#000000" stroke="none" font-family="Arial" font-size="13px" font-style="normal" font-weight="normal" text-decoration="none" x="301" y="145.5">+id: string</text></g></g><g transform="translate(-62,-38) scale(1,1)"><g><path fill="none" stroke="none"/><text fill="#000000" stroke="none" font-family="Arial" font-size="13px" font-style="normal" font-weight="normal" text-decoration="none" x="301" y="160.5">+import_country: code</text></g></g><g transform="translate(-62,-38) scale(1,1)"><g><path fill="none" stroke="none"/><text fill="#000000" stroke="none" font-family="Arial" font-size="13px" font-style="normal" font-weight="normal" text-decoration="none" x="301" y="175.5">+export_country: code</text></g></g><g transform="translate(-62,-38) scale(1,1)"><g><path fill="none" stroke="none"/><text fill="#000000" stroke="none" font-family="Arial" font-size="13px" font-style="normal" font-weight="normal" text-decoration="none" x="301" y="190.5">+entry_port: locode</text></g></g><g transform="translate(-62,-38) scale(1,1)"><g><path fill="none" stroke="none"/><text fill="#000000" stroke="none" font-family="Arial" font-size="13px" font-style="normal" font-weight="normal" text-decoration="none" x="301" y="205.5">+exit_port: locode</text></g></g><g transform="translate(-62,-38) scale(1,1)"><g><path fill="none" stroke="none"/><text fill="#000000" stroke="none" font-family="Arial" font-size="13px" font-style="normal" font-weight="normal" text-decoration="none" x="301" y="220.5">+consignee: party</text></g></g><g transform="translate(-62,-38) scale(1,1)"><g><path fill="none" stroke="none"/><text fill="#000000" stroke="none" font-family="Arial" font-size="13px" font-style="normal" font-weight="normal" text-decoration="none" x="301" y="235.5">+consignor: party</text></g></g><g transform="translate(-62,-38) scale(1,1)"><g><path fill="none" stroke="none"/><text fill="#000000" stroke="none" font-family="Arial" font-size="13px" font-style="normal" font-weight="normal" text-decoration="none" x="301" y="250.5">+status: code</text></g></g><g transform="translate(-62,-38) scale(1,1)"><path fill="none" stroke="#000000" d="M 449 174 L 519 177" stroke-miterlimit="10"/></g><g transform="translate(-62,-38) scale(1,1)"><g><path fill="none" stroke="none"/><text fill="#000000" stroke="none" font-family="Arial" font-size="13px" font-style="normal" font-weight="normal" text-decoration="none" x="459.5" y="193.5">1..*</text></g></g><g transform="translate(-62,-38) scale(1,1)"><g><path fill="none" stroke="none"/><text fill="#000000" stroke="none" font-family="Arial" font-size="13px" font-style="normal" font-weight="normal" text-decoration="none" x="494.5" y="168.5">1..*</text></g></g><g transform="translate(-62,-38) scale(1,1)"><path fill="none" stroke="#000000" d="M 295 174 L 234 177" stroke-miterlimit="10"/></g><g transform="translate(-62,-38) scale(1,1)"><g><path fill="none" stroke="none"/><text fill="#000000" stroke="none" font-family="Arial" font-size="13px" font-style="normal" font-weight="normal" text-decoration="none" x="270.5" y="190.5">1..*</text></g></g><g transform="translate(-62,-38) scale(1,1)"><g><path fill="none" stroke="none"/><text fill="#000000" stroke="none" font-family="Arial" font-size="13px" font-style="normal" font-weight="normal" text-decoration="none" x="237.5" y="168.5">1..*</text></g></g><g transform="translate(-62,-38) scale(1,1)"><rect fill="#C0C0C0" stroke="none" x="79" y="535" width="156" height="92" opacity="0.2"/></g><g transform="translate(-62,-38) scale(1,1)"><rect fill="#ffffff" stroke="none" x="72" y="528" width="156" height="92"/></g><g transform="translate(-62,-38) scale(1,1)"><path fill="none" stroke="#000000" d="M 72 528 L 228 528 L 228 620 L 72 620 L 72 528 Z Z" stroke-miterlimit="10"/></g><g transform="translate(-62,-38) scale(1,1)"><path fill="none" stroke="#000000" d="M 72 553 L 228 553" stroke-miterlimit="10"/></g><g transform="translate(-62,-38) scale(1,1)"><g><path fill="none" stroke="none"/><text fill="#000000" stroke="none" font-family="Arial" font-size="13px" font-style="normal" font-weight="bold" text-decoration="none" x="81" y="547.5">Container Sensor Event</text></g></g><g transform="translate(-62,-38) scale(1,1)"><g><path fill="none" stroke="none"/><text fill="#000000" stroke="none" font-family="Arial" font-size="13px" font-style="normal" font-weight="normal" text-decoration="none" x="77" y="570.5">+timestamp: datetime</text></g></g><g transform="translate(-62,-38) scale(1,1)"><g><path fill="none" stroke="none"/><text fill="#000000" stroke="none" font-family="Arial" font-size="13px" font-style="normal" font-weight="normal" text-decoration="none" x="77" y="585.5">+type: code</text></g></g><g transform="translate(-62,-38) scale(1,1)"><g><path fill="none" stroke="none"/><text fill="#000000" stroke="none" font-family="Arial" font-size="13px" font-style="normal" font-weight="normal" text-decoration="none" x="77" y="600.5">+location: geocode</text></g></g><g transform="translate(-62,-38) scale(1,1)"><g><path fill="none" stroke="none"/><text fill="#000000" stroke="none" font-family="Arial" font-size="13px" font-style="normal" font-weight="normal" text-decoration="none" x="77" y="615.5">+value: measure</text></g></g><g transform="translate(-62,-38) scale(1,1)"><path fill="none" stroke="#000000" d="M 152 528 L 152 456" stroke-miterlimit="10"/></g><g transform="translate(-62,-38) scale(1,1)"><path fill="#FFFFFF" stroke="none" d="M 156.209517756016 466.16267485762415 L 152 456 L 147.790482243984 466.16267485762415 L 152 478"/></g><g transform="translate(-62,-38) scale(1,1)"><path fill="none" stroke="#000000" d="M 156.209517756016 466.16267485762415 L 152 456 L 147.790482243984 466.16267485762415 L 152 478 L 156.209517756016 466.16267485762415" stroke-miterlimit="10"/></g><g transform="translate(-62,-38) scale(1,1)"><g><path fill="none" stroke="none"/><text fill="#000000" stroke="none" font-family="Arial" font-size="13px" font-style="normal" font-weight="normal" text-decoration="none" x="158.5" y="524.5">0..*</text></g></g><g transform="translate(-62,-38) scale(1,1)"><g><path fill="none" stroke="none"/><text fill="#000000" stroke="none" font-family="Arial" font-size="13px" font-style="normal" font-weight="normal" text-decoration="none" x="160.5" y="483.5">1</text></g></g><g transform="translate(-62,-38) scale(1,1)"><rect fill="#C0C0C0" stroke="none" x="303" y="359" width="160" height="137" opacity="0.2"/></g><g transform="translate(-62,-38) scale(1,1)"><rect fill="#ffffff" stroke="none" x="296" y="352" width="160" height="137"/></g><g transform="translate(-62,-38) scale(1,1)"><path fill="none" stroke="#000000" d="M 296 352 L 456 352 L 456 489 L 296 489 L 296 352 Z Z" stroke-miterlimit="10"/></g><g transform="translate(-62,-38) scale(1,1)"><path fill="none" stroke="#000000" d="M 296 377 L 456 377" stroke-miterlimit="10"/></g><g transform="translate(-62,-38) scale(1,1)"><g><path fill="none" stroke="none"/><text fill="#000000" stroke="none" font-family="Arial" font-size="13px" font-style="normal" font-weight="bold" text-decoration="none" x="319" y="371.5">Container Transport</text></g></g><g transform="translate(-62,-38) scale(1,1)"><g><path fill="none" stroke="none"/><text fill="#000000" stroke="none" font-family="Arial" font-size="13px" font-style="normal" font-weight="normal" text-decoration="none" x="301" y="394.5">+mode: code</text></g></g><g transform="translate(-62,-38) scale(1,1)"><g><path fill="none" stroke="none"/><text fill="#000000" stroke="none" font-family="Arial" font-size="13px" font-style="normal" font-weight="normal" text-decoration="none" x="301" y="409.5">+leg: code</text></g></g><g transform="translate(-62,-38) scale(1,1)"><g><path fill="none" stroke="none"/><text fill="#000000" stroke="none" font-family="Arial" font-size="13px" font-style="normal" font-weight="normal" text-decoration="none" x="301" y="424.5">+loaded: datetime</text></g></g><g transform="translate(-62,-38) scale(1,1)"><g><path fill="none" stroke="none"/><text fill="#000000" stroke="none" font-family="Arial" font-size="13px" font-style="normal" font-weight="normal" text-decoration="none" x="301" y="439.5">+discharged: datetime</text></g></g><g transform="translate(-62,-38) scale(1,1)"><g><path fill="none" stroke="none"/><text fill="#000000" stroke="none" font-family="Arial" font-size="13px" font-style="normal" font-weight="normal" text-decoration="none" x="301" y="454.5">+stuffed: datetime</text></g></g><g transform="translate(-62,-38) scale(1,1)"><g><path fill="none" stroke="none"/><text fill="#000000" stroke="none" font-family="Arial" font-size="13px" font-style="normal" font-weight="normal" text-decoration="none" x="301" y="469.5">+stripped: datetime</text></g></g><g transform="translate(-62,-38) scale(1,1)"><g><path fill="none" stroke="none"/><text fill="#000000" stroke="none" font-family="Arial" font-size="13px" font-style="normal" font-weight="normal" text-decoration="none" x="301" y="484.5">+status: code</text></g></g><g transform="translate(-62,-38) scale(1,1)"><path fill="none" stroke="#000000" d="M 232 412 L 295 416" stroke-miterlimit="10"/></g><g transform="translate(-62,-38) scale(1,1)"><g><path fill="none" stroke="none"/><text fill="#000000" stroke="none" font-family="Arial" font-size="13px" font-style="normal" font-weight="normal" text-decoration="none" x="240.5" y="401.5">1</text></g></g><g transform="translate(-62,-38) scale(1,1)"><g><path fill="none" stroke="none"/><text fill="#000000" stroke="none" font-family="Arial" font-size="13px" font-style="normal" font-weight="normal" text-decoration="none" x="261.5" y="433.5">1..*</text></g></g><g transform="translate(-62,-38) scale(1,1)"><path fill="none" stroke="#000000" d="M 457 417 L 519 415" stroke-miterlimit="10"/></g><g transform="translate(-62,-38) scale(1,1)"><g><path fill="none" stroke="none"/><text fill="#000000" stroke="none" font-family="Arial" font-size="13px" font-style="normal" font-weight="normal" text-decoration="none" x="468.5" y="434.5">1..*</text></g></g><g transform="translate(-62,-38) scale(1,1)"><g><path fill="none" stroke="none"/><text fill="#000000" stroke="none" font-family="Arial" font-size="13px" font-style="normal" font-weight="normal" text-decoration="none" x="502.5" y="410.5">1</text></g></g><g transform="translate(-62,-38) scale(1,1)"><path fill="none" stroke="#000000" d="M 735 403 L 673 407" stroke-miterlimit="10"/></g><g transform="translate(-62,-38) scale(1,1)"><g><path fill="none" stroke="none"/><text fill="#000000" stroke="none" font-family="Arial" font-size="13px" font-style="normal" font-weight="normal" text-decoration="none" x="719.5" y="397.5">1</text></g></g><g transform="translate(-62,-38) scale(1,1)"><g><path fill="none" stroke="none"/><text fill="#000000" stroke="none" font-family="Arial" font-size="13px" font-style="normal" font-weight="normal" text-decoration="none" x="677.5" y="428.5">1..*</text></g></g><g transform="translate(-62,-38) scale(1,1)"><path fill="none" stroke="#000000" d="M 350 256 L 336 307 L 352 351" stroke-miterlimit="10"/></g><g transform="translate(-62,-38) scale(1,1)"><g><path fill="none" stroke="none"/><text fill="#000000" stroke="none" font-family="Arial" font-size="13px" font-style="normal" font-weight="normal" text-decoration="none" x="270.5" y="317.5">+planned</text></g></g><g transform="translate(-62,-38) scale(1,1)"><g><path fill="none" stroke="none"/><text fill="#000000" stroke="none" font-family="Arial" font-size="13px" font-style="normal" font-weight="normal" text-decoration="none" x="328.5" y="279.5">1</text></g></g><g transform="translate(-62,-38) scale(1,1)"><g><path fill="none" stroke="none"/><text fill="#000000" stroke="none" font-family="Arial" font-size="13px" font-style="normal" font-weight="normal" text-decoration="none" x="321.5" y="340.5">1..*</text></g></g><g transform="translate(-62,-38) scale(1,1)"><rect fill="#C0C0C0" stroke="none" x="527" y="543" width="144" height="77" opacity="0.2"/></g><g transform="translate(-62,-38) scale(1,1)"><rect fill="#ffffff" stroke="none" x="520" y="536" width="144" height="77"/></g><g transform="translate(-62,-38) scale(1,1)"><path fill="none" stroke="#000000" d="M 520 536 L 664 536 L 664 613 L 520 613 L 520 536 Z Z" stroke-miterlimit="10"/></g><g transform="translate(-62,-38) scale(1,1)"><path fill="none" stroke="#000000" d="M 520 561 L 664 561" stroke-miterlimit="10"/></g><g transform="translate(-62,-38) scale(1,1)"><g><path fill="none" stroke="none"/><text fill="#000000" stroke="none" font-family="Arial" font-size="13px" font-style="normal" font-weight="bold" text-decoration="none" x="551" y="555.5">Voyage Event</text></g></g><g transform="translate(-62,-38) scale(1,1)"><g><path fill="none" stroke="none"/><text fill="#000000" stroke="none" font-family="Arial" font-size="13px" font-style="normal" font-weight="normal" text-decoration="none" x="525" y="578.5">+timestamp: datetime</text></g></g><g transform="translate(-62,-38) scale(1,1)"><g><path fill="none" stroke="none"/><text fill="#000000" stroke="none" font-family="Arial" font-size="13px" font-style="normal" font-weight="normal" text-decoration="none" x="525" y="593.5">+type: code</text></g></g><g transform="translate(-62,-38) scale(1,1)"><path fill="none" stroke="#000000" d="M 593 535 L 594 482" stroke-miterlimit="10"/></g><g transform="translate(-62,-38) scale(1,1)"><path fill="#FFFFFF" stroke="none" d="M 598.0170542046347 492.240277121105 L 594 482 L 589.5995168749283 492.08145566205394 L 593.5849795271525 503.9960850609175"/></g><g transform="translate(-62,-38) scale(1,1)"><path fill="none" stroke="#000000" d="M 598.0170542046347 492.240277121105 L 594 482 L 589.5995168749283 492.08145566205394 L 593.5849795271525 503.9960850609175 L 598.0170542046347 492.240277121105" stroke-miterlimit="10"/></g><g transform="translate(-62,-38) scale(1,1)"><rect fill="#C0C0C0" stroke="none" x="295" y="543" width="176" height="80" opacity="0.2"/></g><g transform="translate(-62,-38) scale(1,1)"><rect fill="#ffffff" stroke="none" x="288" y="536" width="176" height="80"/></g><g transform="translate(-62,-38) scale(1,1)"><path fill="none" stroke="#000000" d="M 288 536 L 464 536 L 464 616 L 288 616 L 288 536 Z Z" stroke-miterlimit="10"/></g><g transform="translate(-62,-38) scale(1,1)"><path fill="none" stroke="#000000" d="M 288 561 L 464 561" stroke-miterlimit="10"/></g><g transform="translate(-62,-38) scale(1,1)"><g><path fill="none" stroke="none"/><text fill="#000000" stroke="none" font-family="Arial" font-size="13px" font-style="normal" font-weight="bold" text-decoration="none" x="300" y="555.5">Container Transport Event</text></g></g><g transform="translate(-62,-38) scale(1,1)"><g><path fill="none" stroke="none"/><text fill="#000000" stroke="none" font-family="Arial" font-size="13px" font-style="normal" font-weight="normal" text-decoration="none" x="293" y="578.5">+timestamp: datetime</text></g></g><g transform="translate(-62,-38) scale(1,1)"><g><path fill="none" stroke="none"/><text fill="#000000" stroke="none" font-family="Arial" font-size="13px" font-style="normal" font-weight="normal" text-decoration="none" x="293" y="593.5">+type: code</text></g></g><g transform="translate(-62,-38) scale(1,1)"><path fill="none" stroke="#000000" d="M 376 535 L 376 490" stroke-miterlimit="10"/></g><g transform="translate(-62,-38) scale(1,1)"><path fill="#FFFFFF" stroke="none" d="M 380.209517756016 500.16267485762415 L 376 490 L 371.790482243984 500.16267485762415 L 376 512"/></g><g transform="translate(-62,-38) scale(1,1)"><path fill="none" stroke="#000000" d="M 380.209517756016 500.16267485762415 L 376 490 L 371.790482243984 500.16267485762415 L 376 512 L 380.209517756016 500.16267485762415" stroke-miterlimit="10"/></g><g transform="translate(-62,-38) scale(1,1)"><path fill="none" stroke="#000000" d="M 400 256 L 416 304 L 400 351" stroke-miterlimit="10"/></g><g transform="translate(-62,-38) scale(1,1)"><g><path fill="none" stroke="none"/><text fill="#000000" stroke="none" font-family="Arial" font-size="13px" font-style="normal" font-weight="normal" text-decoration="none" x="430.5" y="314.5">+actual</text></g></g><g transform="translate(-62,-38) scale(1,1)"><g><path fill="none" stroke="none"/><text fill="#000000" stroke="none" font-family="Arial" font-size="13px" font-style="normal" font-weight="normal" text-decoration="none" x="409.5" y="276.5">1</text></g></g><g transform="translate(-62,-38) scale(1,1)"><g><path fill="none" stroke="none"/><text fill="#000000" stroke="none" font-family="Arial" font-size="13px" font-style="normal" font-weight="normal" text-decoration="none" x="410.5" y="340.5">1..*</text></g></g></g></svg>