<svg version="1.1" xmlns="http://www.w3.org/2000/svg" xmlns:xlink="http://www.w3.org/1999/xlink" width="621" height="660"><defs/><g><g transform="translate(-230,-30) scale(1,1)"><rect fill="#C0C0C0" stroke="none" x="479" y="479" width="144" height="64" opacity="0.2"/></g><g transform="translate(-230,-30) scale(1,1)"><rect fill="#ffffff" stroke="none" x="472" y="472" width="144" height="64"/></g><g transform="translate(-230,-30) scale(1,1)"><path fill="none" stroke="#000000" d="M 472 472 L 616 472 L 616 536 L 472 536 L 472 472 Z Z" stroke-miterlimit="10"/></g><g transform="translate(-230,-30) scale(1,1)"><g><path fill="none" stroke="none"/><text fill="#000000" stroke="none" font-family="Arial" font-size="13px" font-style="normal" font-weight="bold" text-decoration="none" x="506" y="491.5">Consignment</text></g></g><g transform="translate(-230,-30) scale(1,1)"><rect fill="#C0C0C0" stroke="none" x="479" y="255" width="144" height="64" opacity="0.2"/></g><g transform="translate(-230,-30) scale(1,1)"><rect fill="#ffffff" stroke="none" x="472" y="248" width="144" height="64"/></g><g transform="translate(-230,-30) scale(1,1)"><path fill="none" stroke="#000000" d="M 472 248 L 616 248 L 616 312 L 472 312 L 472 248 Z Z" stroke-miterlimit="10"/></g><g transform="translate(-230,-30) scale(1,1)"><g><path fill="none" stroke="none"/><text fill="#000000" stroke="none" font-family="Arial" font-size="13px" font-style="normal" font-weight="bold" text-decoration="none" x="516.5" y="267.5">Shipment</text></g></g><g transform="translate(-230,-30) scale(1,1)"><rect fill="#C0C0C0" stroke="none" x="247" y="391" width="144" height="64" opacity="0.2"/></g><g transform="translate(-230,-30) scale(1,1)"><rect fill="#ffffff" stroke="none" x="240" y="384" width="144" height="64"/></g><g transform="translate(-230,-30) scale(1,1)"><path fill="none" stroke="#000000" d="M 240 384 L 384 384 L 384 448 L 240 448 L 240 384 Z Z" stroke-miterlimit="10"/></g><g transform="translate(-230,-30) scale(1,1)"><g><path fill="none" stroke="none"/><text fill="#000000" stroke="none" font-family="Arial" font-size="13px" font-style="normal" font-weight="bold" text-decoration="none" x="259" y="403.5">Consignment Item</text></g></g><g transform="translate(-230,-30) scale(1,1)"><rect fill="#C0C0C0" stroke="none" x="479" y="623" width="144" height="64" opacity="0.2"/></g><g transform="translate(-230,-30) scale(1,1)"><rect fill="#ffffff" stroke="none" x="472" y="616" width="144" height="64"/></g><g transform="translate(-230,-30) scale(1,1)"><path fill="none" stroke="#000000" d="M 472 616 L 616 616 L 616 680 L 472 680 L 472 616 Z Z" stroke-miterlimit="10"/></g><g transform="translate(-230,-30) scale(1,1)"><g><path fill="none" stroke="none"/><text fill="#000000" stroke="none" font-family="Arial" font-size="13px" font-style="normal" font-weight="bold" text-decoration="none" x="484" y="635.5">Transport Movement</text></g></g><g transform="translate(-230,-30) scale(1,1)"><rect fill="#C0C0C0" stroke="none" x="255" y="623" width="144" height="64" opacity="0.2"/></g><g transform="translate(-230,-30) scale(1,1)"><rect fill="#ffffff" stroke="none" x="248" y="616" width="144" height="64"/></g><g transform="translate(-230,-30) scale(1,1)"><path fill="none" stroke="#000000" d="M 248 616 L 392 616 L 392 680 L 248 680 L 248 616 Z Z" stroke-miterlimit="10"/></g><g transform="translate(-230,-30) scale(1,1)"><g><path fill="none" stroke="none"/><text fill="#000000" stroke="none" font-family="Arial" font-size="13px" font-style="normal" font-weight="bold" text-decoration="none" x="259.5" y="635.5">Transport Equipment</text></g></g><g transform="translate(-230,-30) scale(1,1)"><rect fill="#C0C0C0" stroke="none" x="679" y="391" width="144" height="64" opacity="0.2"/></g><g transform="translate(-230,-30) scale(1,1)"><rect fill="#ffffff" stroke="none" x="672" y="384" width="144" height="64"/></g><g transform="translate(-230,-30) scale(1,1)"><path fill="none" stroke="#000000" d="M 672 384 L 816 384 L 816 448 L 672 448 L 672 384 Z Z" stroke-miterlimit="10"/></g><g transform="translate(-230,-30) scale(1,1)"><g><path fill="none" stroke="none"/><text fill="#000000" stroke="none" font-family="Arial" font-size="13px" font-style="normal" font-weight="bold" text-decoration="none" x="684" y="403.5">Transport Packaging</text></g></g><g transform="translate(-230,-30) scale(1,1)"><rect fill="#C0C0C0" stroke="none" x="679" y="623" width="144" height="64" opacity="0.2"/></g><g transform="translate(-230,-30) scale(1,1)"><rect fill="#ffffff" stroke="none" x="672" y="616" width="144" height="64"/></g><g transform="translate(-230,-30) scale(1,1)"><path fill="none" stroke="#000000" d="M 672 616 L 816 616 L 816 680 L 672 680 L 672 616 Z Z" stroke-miterlimit="10"/></g><g transform="translate(-230,-30) scale(1,1)"><g><path fill="none" stroke="none"/><text fill="#000000" stroke="none" font-family="Arial" font-size="13px" font-style="normal" font-weight="bold" text-decoration="none" x="695" y="635.5">Transport Means</text></g></g><g transform="translate(-230,-30) scale(1,1)"><path fill="none" stroke="#000000" d="M 616 496 L 744 496 L 744 448" stroke-miterlimit="10"/></g><g transform="translate(-230,-30) scale(1,1)"><g><path fill="none" stroke="none"/><text fill="#000000" stroke="none" font-family="Arial" font-size="13px" font-style="normal" font-weight="normal" text-decoration="none" x="622.5" y="509.5">1..*</text></g></g><g transform="translate(-230,-30) scale(1,1)"><g><path fill="none" stroke="none"/><text fill="#000000" stroke="none" font-family="Arial" font-size="13px" font-style="normal" font-weight="normal" text-decoration="none" x="745.5" y="475.5">1..*</text></g></g><g transform="translate(-230,-30) scale(1,1)"><path fill="none" stroke="#000000" d="M 312 448 L 312 488 L 472 488" stroke-miterlimit="10"/></g><g transform="translate(-230,-30) scale(1,1)"><path fill="#000000" stroke="none" d="M 461.83732514237585 492.209517756016 L 472 488 L 461.83732514237585 483.790482243984 L 450 488"/></g><g transform="translate(-230,-30) scale(1,1)"><path fill="none" stroke="#000000" d="M 461.83732514237585 492.209517756016 L 472 488 L 461.83732514237585 483.790482243984 L 450 488 L 461.83732514237585 492.209517756016" stroke-miterlimit="10"/></g><g transform="translate(-230,-30) scale(1,1)"><g><path fill="none" stroke="none"/><text fill="#000000" stroke="none" font-family="Arial" font-size="13px" font-style="normal" font-weight="normal" text-decoration="none" x="288.5" y="475.5">1..*</text></g></g><g transform="translate(-230,-30) scale(1,1)"><g><path fill="none" stroke="none"/><text fill="#000000" stroke="none" font-family="Arial" font-size="13px" font-style="normal" font-weight="normal" text-decoration="none" x="447.5" y="483.5">1</text></g></g><g transform="translate(-230,-30) scale(1,1)"><path fill="none" stroke="#000000" d="M 671 648 L 617 648" stroke-miterlimit="10"/></g><g transform="translate(-230,-30) scale(1,1)"><g><path fill="none" stroke="none"/><text fill="#000000" stroke="none" font-family="Arial" font-size="13px" font-style="normal" font-weight="normal" text-decoration="none" x="658.5" y="646.5">1</text></g></g><g transform="translate(-230,-30) scale(1,1)"><g><path fill="none" stroke="none"/><text fill="#000000" stroke="none" font-family="Arial" font-size="13px" font-style="normal" font-weight="normal" text-decoration="none" x="622.5" y="644.5">1..*</text></g></g><g transform="translate(-230,-30) scale(1,1)"><path fill="none" stroke="#000000" d="M 471 648 L 393 648" stroke-miterlimit="10"/></g><g transform="translate(-230,-30) scale(1,1)"><g><path fill="none" stroke="none"/><text fill="#000000" stroke="none" font-family="Arial" font-size="13px" font-style="normal" font-weight="normal" text-decoration="none" x="446.5" y="635.5">1..*</text></g></g><g transform="translate(-230,-30) scale(1,1)"><g><path fill="none" stroke="none"/><text fill="#000000" stroke="none" font-family="Arial" font-size="13px" font-style="normal" font-weight="normal" text-decoration="none" x="398.5" y="636.5">1..*</text></g></g><g transform="translate(-230,-30) scale(1,1)"><path fill="none" stroke="#000000" d="M 544 537 L 544 615" stroke-miterlimit="10"/></g><g transform="translate(-230,-30) scale(1,1)"><g><path fill="none" stroke="none"/><text fill="#000000" stroke="none" font-family="Arial" font-size="13px" font-style="normal" font-weight="normal" text-decoration="none" x="517.5" y="557.5">1..*</text></g></g><g transform="translate(-230,-30) scale(1,1)"><g><path fill="none" stroke="none"/><text fill="#000000" stroke="none" font-family="Arial" font-size="13px" font-style="normal" font-weight="normal" text-decoration="none" x="520.5" y="612.5">1..*</text></g></g><g transform="translate(-230,-30) scale(1,1)"><path fill="none" stroke="#000000" d="M 472 520 L 320 520 L 320 616" stroke-miterlimit="10"/></g><g transform="translate(-230,-30) scale(1,1)"><g><path fill="none" stroke="none"/><text fill="#000000" stroke="none" font-family="Arial" font-size="13px" font-style="normal" font-weight="normal" text-decoration="none" x="446.5" y="540.5">1..*</text></g></g><g transform="translate(-230,-30) scale(1,1)"><g><path fill="none" stroke="none"/><text fill="#000000" stroke="none" font-family="Arial" font-size="13px" font-style="normal" font-weight="normal" text-decoration="none" x="296.5" y="600.5">1..*</text></g></g><g transform="translate(-230,-30) scale(1,1)"><path fill="none" stroke="#000000" d="M 385 416 L 671 416" stroke-miterlimit="10"/></g><g transform="translate(-230,-30) scale(1,1)"><g><path fill="none" stroke="none"/><text fill="#000000" stroke="none" font-family="Arial" font-size="13px" font-style="normal" font-weight="normal" text-decoration="none" x="395.5" y="434.5">1..*</text></g></g><g transform="translate(-230,-30) scale(1,1)"><g><path fill="none" stroke="none"/><text fill="#000000" stroke="none" font-family="Arial" font-size="13px" font-style="normal" font-weight="normal" text-decoration="none" x="655.5" y="434.5">1</text></g></g><g transform="translate(-230,-30) scale(1,1)"><rect fill="#C0C0C0" stroke="none" x="479" y="47" width="144" height="64" opacity="0.2"/></g><g transform="translate(-230,-30) scale(1,1)"><rect fill="#ffffff" stroke="none" x="472" y="40" width="144" height="64"/></g><g transform="translate(-230,-30) scale(1,1)"><path fill="none" stroke="#000000" d="M 472 40 L 616 40 L 616 104 L 472 104 L 472 40 Z Z" stroke-miterlimit="10"/></g><g transform="translate(-230,-30) scale(1,1)"><g><path fill="none" stroke="none"/><text fill="#000000" stroke="none" font-family="Arial" font-size="13px" font-style="normal" font-weight="bold" text-decoration="none" x="527.5" y="59.5">Trade</text></g></g><g transform="translate(-230,-30) scale(1,1)"><rect fill="#C0C0C0" stroke="none" x="247" y="167" width="144" height="64" opacity="0.2"/></g><g transform="translate(-230,-30) scale(1,1)"><rect fill="#ffffff" stroke="none" x="240" y="160" width="144" height="64"/></g><g transform="translate(-230,-30) scale(1,1)"><path fill="none" stroke="#000000" d="M 240 160 L 384 160 L 384 224 L 240 224 L 240 160 Z Z" stroke-miterlimit="10"/></g><g transform="translate(-230,-30) scale(1,1)"><g><path fill="none" stroke="none"/><text fill="#000000" stroke="none" font-family="Arial" font-size="13px" font-style="normal" font-weight="bold" text-decoration="none" x="280.5" y="179.5">Trade Item</text></g></g><g transform="translate(-230,-30) scale(1,1)"><rect fill="#C0C0C0" stroke="none" x="679" y="167" width="144" height="64" opacity="0.2"/></g><g transform="translate(-230,-30) scale(1,1)"><rect fill="#ffffff" stroke="none" x="672" y="160" width="144" height="64"/></g><g transform="translate(-230,-30) scale(1,1)"><path fill="none" stroke="#000000" d="M 672 160 L 816 160 L 816 224 L 672 224 L 672 160 Z Z" stroke-miterlimit="10"/></g><g transform="translate(-230,-30) scale(1,1)"><g><path fill="none" stroke="none"/><text fill="#000000" stroke="none" font-family="Arial" font-size="13px" font-style="normal" font-weight="bold" text-decoration="none" x="684" y="179.5">Shipment Packaging</text></g></g><g transform="translate(-230,-30) scale(1,1)"><path fill="none" stroke="#000000" d="M 312 225 L 312 383" stroke-miterlimit="10"/></g><g transform="translate(-230,-30) scale(1,1)"><g><path fill="none" stroke="none"/><text fill="#000000" stroke="none" font-family="Arial" font-size="13px" font-style="normal" font-weight="normal" text-decoration="none" x="288.5" y="252.5">1..*</text></g></g><g transform="translate(-230,-30) scale(1,1)"><g><path fill="none" stroke="none"/><text fill="#000000" stroke="none" font-family="Arial" font-size="13px" font-style="normal" font-weight="normal" text-decoration="none" x="295.5" y="367.5">1</text></g></g><g transform="translate(-230,-30) scale(1,1)"><path fill="none" stroke="#000000" d="M 744 225 L 744 383" stroke-miterlimit="10"/></g><g transform="translate(-230,-30) scale(1,1)"><g><path fill="none" stroke="none"/><text fill="#000000" stroke="none" font-family="Arial" font-size="13px" font-style="normal" font-weight="normal" text-decoration="none" x="749.5" y="243.5">1..*</text></g></g><g transform="translate(-230,-30) scale(1,1)"><g><path fill="none" stroke="none"/><text fill="#000000" stroke="none" font-family="Arial" font-size="13px" font-style="normal" font-weight="normal" text-decoration="none" x="727.5" y="367.5">1</text></g></g><g transform="translate(-230,-30) scale(1,1)"><path fill="none" stroke="#000000" d="M 544 313 L 544 471" stroke-miterlimit="10"/></g><g transform="translate(-230,-30) scale(1,1)"><g><path fill="none" stroke="none"/><text fill="#000000" stroke="none" font-family="Arial" font-size="13px" font-style="normal" font-weight="normal" text-decoration="none" x="520.5" y="340.5">1..*</text></g></g><g transform="translate(-230,-30) scale(1,1)"><g><path fill="none" stroke="none"/><text fill="#000000" stroke="none" font-family="Arial" font-size="13px" font-style="normal" font-weight="normal" text-decoration="none" x="520.5" y="455.5">1..*</text></g></g><g transform="translate(-230,-30) scale(1,1)"><path fill="none" stroke="#000000" d="M 544 247 L 544 105" stroke-miterlimit="10"/></g><g transform="translate(-230,-30) scale(1,1)"><g><path fill="none" stroke="none"/><text fill="#000000" stroke="none" font-family="Arial" font-size="13px" font-style="normal" font-weight="normal" text-decoration="none" x="545.5" y="231.5">1..*</text></g></g><g transform="translate(-230,-30) scale(1,1)"><g><path fill="none" stroke="none"/><text fill="#000000" stroke="none" font-family="Arial" font-size="13px" font-style="normal" font-weight="normal" text-decoration="none" x="545.5" y="132.5">1..*</text></g></g><g transform="translate(-230,-30) scale(1,1)"><path fill="none" stroke="#000000" d="M 312 160 L 312 72 L 472 72" stroke-miterlimit="10"/></g><g transform="translate(-230,-30) scale(1,1)"><path fill="#000000" stroke="none" d="M 461.83732514237585 76.20951775601598 L 472 72 L 461.83732514237585 67.79048224398402 L 450 72"/></g><g transform="translate(-230,-30) scale(1,1)"><path fill="none" stroke="#000000" d="M 461.83732514237585 76.20951775601598 L 472 72 L 461.83732514237585 67.79048224398402 L 450 72 L 461.83732514237585 76.20951775601598" stroke-miterlimit="10"/></g><g transform="translate(-230,-30) scale(1,1)"><g><path fill="none" stroke="none"/><text fill="#000000" stroke="none" font-family="Arial" font-size="13px" font-style="normal" font-weight="normal" text-decoration="none" x="313.5" y="144.5">1..*</text></g></g><g transform="translate(-230,-30) scale(1,1)"><g><path fill="none" stroke="none"/><text fill="#000000" stroke="none" font-family="Arial" font-size="13px" font-style="normal" font-weight="normal" text-decoration="none" x="455.5" y="59.5">1</text></g></g><g transform="translate(-230,-30) scale(1,1)"><path fill="none" stroke="#000000" d="M 385 192 L 671 192" stroke-miterlimit="10"/></g><g transform="translate(-230,-30) scale(1,1)"><g><path fill="none" stroke="none"/><text fill="#000000" stroke="none" font-family="Arial" font-size="13px" font-style="normal" font-weight="normal" text-decoration="none" x="395.5" y="210.5">1..*</text></g></g><g transform="translate(-230,-30) scale(1,1)"><g><path fill="none" stroke="none"/><text fill="#000000" stroke="none" font-family="Arial" font-size="13px" font-style="normal" font-weight="normal" text-decoration="none" x="638.5" y="210.5">0..*</text></g></g><g transform="translate(-230,-30) scale(1,1)"><path fill="none" stroke="#000000" d="M 616 272 L 704 272 L 704 224" stroke-miterlimit="10"/></g><g transform="translate(-230,-30) scale(1,1)"><g><path fill="none" stroke="none"/><text fill="#000000" stroke="none" font-family="Arial" font-size="13px" font-style="normal" font-weight="normal" text-decoration="none" x="617.5" y="291.5">1</text></g></g><g transform="translate(-230,-30) scale(1,1)"><g><path fill="none" stroke="none"/><text fill="#000000" stroke="none" font-family="Arial" font-size="13px" font-style="normal" font-weight="normal" text-decoration="none" x="678.5" y="236.5">0..*</text></g></g><g transform="translate(-230,-30) scale(1,1)"><path fill="none" stroke="#000000" d="M 472 280 L 344 280 L 344 224" stroke-miterlimit="10"/></g><g transform="translate(-230,-30) scale(1,1)"><g><path fill="none" stroke="none"/><text fill="#000000" stroke="none" font-family="Arial" font-size="13px" font-style="normal" font-weight="normal" text-decoration="none" x="446.5" y="273.5">1</text></g></g><g transform="translate(-230,-30) scale(1,1)"><g><path fill="none" stroke="none"/><text fill="#000000" stroke="none" font-family="Arial" font-size="13px" font-style="normal" font-weight="normal" text-decoration="none" x="345.5" y="251.5">1..*</text></g></g><g transform="translate(-230,-30) scale(1,1)"><path fill="none" stroke="#000000" d="M 792 160 L 792 140 L 840 140 L 840 182 L 816 182" stroke-miterlimit="10"/></g><g transform="translate(-230,-30) scale(1,1)"><path fill="#000000" stroke="none" d="M 826.1626748576241 177.790482243984 L 816 182 L 826.1626748576241 186.209517756016 L 838 182"/></g><g transform="translate(-230,-30) scale(1,1)"><path fill="none" stroke="#000000" d="M 826.1626748576241 177.790482243984 L 816 182 L 826.1626748576241 186.209517756016 L 838 182 L 826.1626748576241 177.790482243984" stroke-miterlimit="10"/></g><g transform="translate(-230,-30) scale(1,1)"><path fill="none" stroke="#000000" d="M 776 384 L 776 364 L 840 364 L 840 407 L 816 407" stroke-miterlimit="10"/></g><g transform="translate(-230,-30) scale(1,1)"><path fill="#000000" stroke="none" d="M 826.1626748576241 402.790482243984 L 816 407 L 826.1626748576241 411.209517756016 L 838 407"/></g><g transform="translate(-230,-30) scale(1,1)"><path fill="none" stroke="#000000" d="M 826.1626748576241 402.790482243984 L 816 407 L 826.1626748576241 411.209517756016 L 838 407 L 826.1626748576241 402.790482243984" stroke-miterlimit="10"/></g><g transform="translate(-230,-30) scale(1,1)"><path fill="none" stroke="#000000" d="M 616 72 L 744 72 L 744 160" stroke-miterlimit="10"/></g><g transform="translate(-230,-30) scale(1,1)"><g><path fill="none" stroke="none"/><text fill="#000000" stroke="none" font-family="Arial" font-size="13px" font-style="normal" font-weight="normal" text-decoration="none" x="623.5" y="68.5">1</text></g></g><g transform="translate(-230,-30) scale(1,1)"><g><path fill="none" stroke="none"/><text fill="#000000" stroke="none" font-family="Arial" font-size="13px" font-style="normal" font-weight="normal" text-decoration="none" x="720.5" y="144.5">0..*</text></g></g></g></svg>