<svg version="1.1" xmlns="http://www.w3.org/2000/svg" xmlns:xlink="http://www.w3.org/1999/xlink" width="906.50439453125" height="647"><defs/><g><g transform="translate(-62,-54) scale(1,1)"><rect fill="#C0C0C0" stroke="none" x="87" y="119" width="146.26806640625" height="80" opacity="0.2"/></g><g transform="translate(-62,-54) scale(1,1)"><rect fill="#ffffff" stroke="none" x="80" y="112" width="146.26806640625" height="80"/></g><g transform="translate(-62,-54) scale(1,1)"><path fill="none" stroke="#000000" d="M 80 112 L 226.26806640625 112 L 226.26806640625 192 L 80 192 L 80 112 Z Z" stroke-miterlimit="10"/></g><g transform="translate(-62,-54) scale(1,1)"><path fill="none" stroke="#000000" d="M 80 152 L 226.26806640625 152" stroke-miterlimit="10"/></g><g transform="translate(-62,-54) scale(1,1)"><g><path fill="none" stroke="none"/><text fill="#000000" stroke="none" font-family="Arial" font-size="13px" font-style="normal" font-weight="bold" text-decoration="none" x="92.678955078125" y="131.5">Transport Equipment</text></g></g><g transform="translate(-62,-54) scale(1,1)"><g><path fill="none" stroke="none"/><text fill="#000000" stroke="none" font-family="Arial" font-size="13px" font-style="normal" font-weight="normal" text-decoration="none" x="84.5" y="146.5">(from Reference Model)</text></g></g><g transform="translate(-62,-54) scale(1,1)"><g><path fill="none" stroke="none"/><text fill="#000000" stroke="none" font-family="Arial" font-size="13px" font-style="normal" font-weight="normal" text-decoration="none" x="85" y="169.5">+id: string</text></g></g><g transform="translate(-62,-54) scale(1,1)"><rect fill="#C0C0C0" stroke="none" x="95" y="423" width="143" height="96" opacity="0.2"/></g><g transform="translate(-62,-54) scale(1,1)"><rect fill="#ffffff" stroke="none" x="88" y="416" width="143" height="96"/></g><g transform="translate(-62,-54) scale(1,1)"><path fill="none" stroke="#000000" d="M 88 416 L 231 416 L 231 512 L 88 512 L 88 416 Z Z" stroke-miterlimit="10"/></g><g transform="translate(-62,-54) scale(1,1)"><path fill="none" stroke="#000000" d="M 88 441 L 231 441" stroke-miterlimit="10"/></g><g transform="translate(-62,-54) scale(1,1)"><g><path fill="none" stroke="none"/><text fill="#000000" stroke="none" font-family="Arial" font-size="13px" font-style="normal" font-weight="bold" text-decoration="none" x="131.31640625" y="435.5">Container</text></g></g><g transform="translate(-62,-54) scale(1,1)"><g><path fill="none" stroke="none"/><text fill="#000000" stroke="none" font-family="Arial" font-size="13px" font-style="normal" font-weight="normal" text-decoration="none" x="93" y="458.5">+bic: identifier</text></g></g><g transform="translate(-62,-54) scale(1,1)"><g><path fill="none" stroke="none"/><text fill="#000000" stroke="none" font-family="Arial" font-size="13px" font-style="normal" font-weight="normal" text-decoration="none" x="93" y="473.5">+type: code</text></g></g><g transform="translate(-62,-54) scale(1,1)"><g><path fill="none" stroke="none"/><text fill="#000000" stroke="none" font-family="Arial" font-size="13px" font-style="normal" font-weight="normal" text-decoration="none" x="93" y="488.5">+operator: party</text></g></g><g transform="translate(-62,-54) scale(1,1)"><path fill="none" stroke="#000000" d="M 154 416 L 154 192" stroke-miterlimit="10"/></g><g transform="translate(-62,-54) scale(1,1)"><path fill="#FFFFFF" stroke="none" d="M 162.41903551203197 212.3253497152483 L 154 192 L 145.58096448796803 212.3253497152483"/></g><g transform="translate(-62,-54) scale(1,1)"><path fill="none" stroke="#000000" d="M 162.41903551203197 212.3253497152483 L 154 192 L 145.58096448796803 212.3253497152483 L 162.41903551203197 212.3253497152483" stroke-miterlimit="10"/></g><g transform="translate(-62,-54) scale(1,1)"><rect fill="#C0C0C0" stroke="none" x="567" y="119" width="146.26806640625" height="88" opacity="0.2"/></g><g transform="translate(-62,-54) scale(1,1)"><rect fill="#ffffff" stroke="none" x="560" y="112" width="146.26806640625" height="88"/></g><g transform="translate(-62,-54) scale(1,1)"><path fill="none" stroke="#000000" d="M 560 112 L 706.26806640625 112 L 706.26806640625 200 L 560 200 L 560 112 Z Z" stroke-miterlimit="10"/></g><g transform="translate(-62,-54) scale(1,1)"><path fill="none" stroke="#000000" d="M 560 152 L 706.26806640625 152" stroke-miterlimit="10"/></g><g transform="translate(-62,-54) scale(1,1)"><g><path fill="none" stroke="none"/><text fill="#000000" stroke="none" font-family="Arial" font-size="13px" font-style="normal" font-weight="bold" text-decoration="none" x="573.408935546875" y="131.5">Transport Movement</text></g></g><g transform="translate(-62,-54) scale(1,1)"><g><path fill="none" stroke="none"/><text fill="#000000" stroke="none" font-family="Arial" font-size="13px" font-style="normal" font-weight="normal" text-decoration="none" x="564.5" y="146.5">(from Reference Model)</text></g></g><g transform="translate(-62,-54) scale(1,1)"><g><path fill="none" stroke="none"/><text fill="#000000" stroke="none" font-family="Arial" font-size="13px" font-style="normal" font-weight="normal" text-decoration="none" x="565" y="169.5">+id: string</text></g></g><g transform="translate(-62,-54) scale(1,1)"><rect fill="#C0C0C0" stroke="none" x="567" y="399" width="152" height="137" opacity="0.2"/></g><g transform="translate(-62,-54) scale(1,1)"><rect fill="#ffffff" stroke="none" x="560" y="392" width="152" height="137"/></g><g transform="translate(-62,-54) scale(1,1)"><path fill="none" stroke="#000000" d="M 560 392 L 712 392 L 712 529 L 560 529 L 560 392 Z Z" stroke-miterlimit="10"/></g><g transform="translate(-62,-54) scale(1,1)"><path fill="none" stroke="#000000" d="M 560 417 L 712 417" stroke-miterlimit="10"/></g><g transform="translate(-62,-54) scale(1,1)"><g><path fill="none" stroke="none"/><text fill="#000000" stroke="none" font-family="Arial" font-size="13px" font-style="normal" font-weight="bold" text-decoration="none" x="614.313232421875" y="411.5">Voyage</text></g></g><g transform="translate(-62,-54) scale(1,1)"><g><path fill="none" stroke="none"/><text fill="#000000" stroke="none" font-family="Arial" font-size="13px" font-style="normal" font-weight="normal" text-decoration="none" x="565" y="434.5">+number: string</text></g></g><g transform="translate(-62,-54) scale(1,1)"><g><path fill="none" stroke="none"/><text fill="#000000" stroke="none" font-family="Arial" font-size="13px" font-style="normal" font-weight="normal" text-decoration="none" x="565" y="449.5">+departure_port: locode</text></g></g><g transform="translate(-62,-54) scale(1,1)"><g><path fill="none" stroke="none"/><text fill="#000000" stroke="none" font-family="Arial" font-size="13px" font-style="normal" font-weight="normal" text-decoration="none" x="565" y="464.5">+arrival_port: locode</text></g></g><g transform="translate(-62,-54) scale(1,1)"><g><path fill="none" stroke="none"/><text fill="#000000" stroke="none" font-family="Arial" font-size="13px" font-style="normal" font-weight="normal" text-decoration="none" x="565" y="479.5">+etd: datetime</text></g></g><g transform="translate(-62,-54) scale(1,1)"><g><path fill="none" stroke="none"/><text fill="#000000" stroke="none" font-family="Arial" font-size="13px" font-style="normal" font-weight="normal" text-decoration="none" x="565" y="494.5">+eta: datetime</text></g></g><g transform="translate(-62,-54) scale(1,1)"><g><path fill="none" stroke="none"/><text fill="#000000" stroke="none" font-family="Arial" font-size="13px" font-style="normal" font-weight="normal" text-decoration="none" x="565" y="509.5">+atd: datetime</text></g></g><g transform="translate(-62,-54) scale(1,1)"><g><path fill="none" stroke="none"/><text fill="#000000" stroke="none" font-family="Arial" font-size="13px" font-style="normal" font-weight="normal" text-decoration="none" x="565" y="524.5">+ata: datetime</text></g></g><g transform="translate(-62,-54) scale(1,1)"><path fill="none" stroke="#000000" d="M 640 392 L 640 200" stroke-miterlimit="10"/></g><g transform="translate(-62,-54) scale(1,1)"><path fill="#FFFFFF" stroke="none" d="M 648.419035512032 220.3253497152483 L 640 200 L 631.580964487968 220.3253497152483"/></g><g transform="translate(-62,-54) scale(1,1)"><path fill="none" stroke="#000000" d="M 648.419035512032 220.3253497152483 L 640 200 L 631.580964487968 220.3253497152483 L 648.419035512032 220.3253497152483" stroke-miterlimit="10"/></g><g transform="translate(-62,-54) scale(1,1)"><rect fill="#C0C0C0" stroke="none" x="799" y="415" width="166.50439453125" height="95" opacity="0.2"/></g><g transform="translate(-62,-54) scale(1,1)"><rect fill="#ffffff" stroke="none" x="792" y="408" width="166.50439453125" height="95"/></g><g transform="translate(-62,-54) scale(1,1)"><path fill="none" stroke="#000000" d="M 792 408 L 958.50439453125 408 L 958.50439453125 503 L 792 503 L 792 408 Z Z" stroke-miterlimit="10"/></g><g transform="translate(-62,-54) scale(1,1)"><path fill="none" stroke="#000000" d="M 792 433 L 958.50439453125 433" stroke-miterlimit="10"/></g><g transform="translate(-62,-54) scale(1,1)"><g><path fill="none" stroke="none"/><text fill="#000000" stroke="none" font-family="Arial" font-size="13px" font-style="normal" font-weight="bold" text-decoration="none" x="856.101318359375" y="427.5">Vessel</text></g></g><g transform="translate(-62,-54) scale(1,1)"><g><path fill="none" stroke="none"/><text fill="#000000" stroke="none" font-family="Arial" font-size="13px" font-style="normal" font-weight="normal" text-decoration="none" x="797" y="450.5">+name: string</text></g></g><g transform="translate(-62,-54) scale(1,1)"><g><path fill="none" stroke="none"/><text fill="#000000" stroke="none" font-family="Arial" font-size="13px" font-style="normal" font-weight="normal" text-decoration="none" x="797" y="465.5">+number: identifier</text></g></g><g transform="translate(-62,-54) scale(1,1)"><g><path fill="none" stroke="none"/><text fill="#000000" stroke="none" font-family="Arial" font-size="13px" font-style="normal" font-weight="normal" text-decoration="none" x="797" y="480.5">+carrier: party</text></g></g><g transform="translate(-62,-54) scale(1,1)"><rect fill="#C0C0C0" stroke="none" x="303" y="71" width="160" height="168" opacity="0.2"/></g><g transform="translate(-62,-54) scale(1,1)"><rect fill="#ffffff" stroke="none" x="296" y="64" width="160" height="168"/></g><g transform="translate(-62,-54) scale(1,1)"><path fill="none" stroke="#000000" d="M 296 64 L 456 64 L 456 232 L 296 232 L 296 64 Z Z" stroke-miterlimit="10"/></g><g transform="translate(-62,-54) scale(1,1)"><path fill="none" stroke="#000000" d="M 296 104 L 456 104" stroke-miterlimit="10"/></g><g transform="translate(-62,-54) scale(1,1)"><g><path fill="none" stroke="none"/><text fill="#000000" stroke="none" font-family="Arial" font-size="13px" font-style="normal" font-weight="bold" text-decoration="none" x="337.701416015625" y="83.5">Consignment</text></g></g><g transform="translate(-62,-54) scale(1,1)"><g><path fill="none" stroke="none"/><text fill="#000000" stroke="none" font-family="Arial" font-size="13px" font-style="normal" font-weight="normal" text-decoration="none" x="307.365966796875" y="98.5">(from Reference Model)</text></g></g><g transform="translate(-62,-54) scale(1,1)"><g><path fill="none" stroke="none"/><text fill="#000000" stroke="none" font-family="Arial" font-size="13px" font-style="normal" font-weight="normal" text-decoration="none" x="301" y="121.5">+id: string</text></g></g><g transform="translate(-62,-54) scale(1,1)"><g><path fill="none" stroke="none"/><text fill="#000000" stroke="none" font-family="Arial" font-size="13px" font-style="normal" font-weight="normal" text-decoration="none" x="301" y="136.5">+bill_number: string</text></g></g><g transform="translate(-62,-54) scale(1,1)"><g><path fill="none" stroke="none"/><text fill="#000000" stroke="none" font-family="Arial" font-size="13px" font-style="normal" font-weight="normal" text-decoration="none" x="301" y="151.5">+import_country: code</text></g></g><g transform="translate(-62,-54) scale(1,1)"><g><path fill="none" stroke="none"/><text fill="#000000" stroke="none" font-family="Arial" font-size="13px" font-style="normal" font-weight="normal" text-decoration="none" x="301" y="166.5">+export_country: code</text></g></g><g transform="translate(-62,-54) scale(1,1)"><g><path fill="none" stroke="none"/><text fill="#000000" stroke="none" font-family="Arial" font-size="13px" font-style="normal" font-weight="normal" text-decoration="none" x="301" y="181.5">+entry_port: locode</text></g></g><g transform="translate(-62,-54) scale(1,1)"><g><path fill="none" stroke="none"/><text fill="#000000" stroke="none" font-family="Arial" font-size="13px" font-style="normal" font-weight="normal" text-decoration="none" x="301" y="196.5">+exit_port: locode</text></g></g><g transform="translate(-62,-54) scale(1,1)"><g><path fill="none" stroke="none"/><text fill="#000000" stroke="none" font-family="Arial" font-size="13px" font-style="normal" font-weight="normal" text-decoration="none" x="301" y="211.5">+consignee: party</text></g></g><g transform="translate(-62,-54) scale(1,1)"><g><path fill="none" stroke="none"/><text fill="#000000" stroke="none" font-family="Arial" font-size="13px" font-style="normal" font-weight="normal" text-decoration="none" x="301" y="226.5">+consignor: party</text></g></g><g transform="translate(-62,-54) scale(1,1)"><path fill="none" stroke="#000000" d="M 456 156 L 560 156" stroke-miterlimit="10"/></g><g transform="translate(-62,-54) scale(1,1)"><g><path fill="none" stroke="none"/><text fill="#000000" stroke="none" font-family="Arial" font-size="13px" font-style="normal" font-weight="normal" text-decoration="none" x="466.74365234375" y="174.5">1..*</text></g></g><g transform="translate(-62,-54) scale(1,1)"><g><path fill="none" stroke="none"/><text fill="#000000" stroke="none" font-family="Arial" font-size="13px" font-style="normal" font-weight="normal" text-decoration="none" x="535.74365234375" y="147.5">1..*</text></g></g><g transform="translate(-62,-54) scale(1,1)"><path fill="none" stroke="#000000" d="M 296 154 L 226 154" stroke-miterlimit="10"/></g><g transform="translate(-62,-54) scale(1,1)"><g><path fill="none" stroke="none"/><text fill="#000000" stroke="none" font-family="Arial" font-size="13px" font-style="normal" font-weight="normal" text-decoration="none" x="271.74365234375" y="170.5">1..*</text></g></g><g transform="translate(-62,-54) scale(1,1)"><g><path fill="none" stroke="none"/><text fill="#000000" stroke="none" font-family="Arial" font-size="13px" font-style="normal" font-weight="normal" text-decoration="none" x="230.74365234375" y="146.5">1..*</text></g></g><g transform="translate(-62,-54) scale(1,1)"><rect fill="#C0C0C0" stroke="none" x="79" y="591" width="156.3671875" height="92" opacity="0.2"/></g><g transform="translate(-62,-54) scale(1,1)"><rect fill="#ffffff" stroke="none" x="72" y="584" width="156.3671875" height="92"/></g><g transform="translate(-62,-54) scale(1,1)"><path fill="none" stroke="#000000" d="M 72 584 L 228.3671875 584 L 228.3671875 676 L 72 676 L 72 584 Z Z" stroke-miterlimit="10"/></g><g transform="translate(-62,-54) scale(1,1)"><path fill="none" stroke="#000000" d="M 72 609 L 228.3671875 609" stroke-miterlimit="10"/></g><g transform="translate(-62,-54) scale(1,1)"><g><path fill="none" stroke="none"/><text fill="#000000" stroke="none" font-family="Arial" font-size="13px" font-style="normal" font-weight="bold" text-decoration="none" x="81.171875" y="603.5">Container Sensor Event</text></g></g><g transform="translate(-62,-54) scale(1,1)"><g><path fill="none" stroke="none"/><text fill="#000000" stroke="none" font-family="Arial" font-size="13px" font-style="normal" font-weight="normal" text-decoration="none" x="77" y="626.5">+timestamp: datetime</text></g></g><g transform="translate(-62,-54) scale(1,1)"><g><path fill="none" stroke="none"/><text fill="#000000" stroke="none" font-family="Arial" font-size="13px" font-style="normal" font-weight="normal" text-decoration="none" x="77" y="641.5">+type: code</text></g></g><g transform="translate(-62,-54) scale(1,1)"><g><path fill="none" stroke="none"/><text fill="#000000" stroke="none" font-family="Arial" font-size="13px" font-style="normal" font-weight="normal" text-decoration="none" x="77" y="656.5">+location: geocode</text></g></g><g transform="translate(-62,-54) scale(1,1)"><g><path fill="none" stroke="none"/><text fill="#000000" stroke="none" font-family="Arial" font-size="13px" font-style="normal" font-weight="normal" text-decoration="none" x="77" y="671.5">+value: measure</text></g></g><g transform="translate(-62,-54) scale(1,1)"><path fill="none" stroke="#000000" d="M 152 584 L 152 512" stroke-miterlimit="10"/></g><g transform="translate(-62,-54) scale(1,1)"><path fill="#000000" stroke="none" d="M 156.209517756016 522.1626748576241 L 152 512 L 147.790482243984 522.1626748576241 L 152 534"/></g><g transform="translate(-62,-54) scale(1,1)"><path fill="none" stroke="#000000" d="M 156.209517756016 522.1626748576241 L 152 512 L 147.790482243984 522.1626748576241 L 152 534 L 156.209517756016 522.1626748576241" stroke-miterlimit="10"/></g><g transform="translate(-62,-54) scale(1,1)"><g><path fill="none" stroke="none"/><text fill="#000000" stroke="none" font-family="Arial" font-size="13px" font-style="normal" font-weight="normal" text-decoration="none" x="158.74365234375" y="580.5">0..*</text></g></g><g transform="translate(-62,-54) scale(1,1)"><g><path fill="none" stroke="none"/><text fill="#000000" stroke="none" font-family="Arial" font-size="13px" font-style="normal" font-weight="normal" text-decoration="none" x="160.5" y="539.5">1</text></g></g><g transform="translate(-62,-54) scale(1,1)"><rect fill="#C0C0C0" stroke="none" x="303" y="415" width="166.50439453125" height="104" opacity="0.2"/></g><g transform="translate(-62,-54) scale(1,1)"><rect fill="#ffffff" stroke="none" x="296" y="408" width="166.50439453125" height="104"/></g><g transform="translate(-62,-54) scale(1,1)"><path fill="none" stroke="#000000" d="M 296 408 L 462.50439453125 408 L 462.50439453125 512 L 296 512 L 296 408 Z Z" stroke-miterlimit="10"/></g><g transform="translate(-62,-54) scale(1,1)"><path fill="none" stroke="#000000" d="M 296 433 L 462.50439453125 433" stroke-miterlimit="10"/></g><g transform="translate(-62,-54) scale(1,1)"><g><path fill="none" stroke="none"/><text fill="#000000" stroke="none" font-family="Arial" font-size="13px" font-style="normal" font-weight="bold" text-decoration="none" x="321.6884765625" y="427.5">Container Transport</text></g></g><g transform="translate(-62,-54) scale(1,1)"><g><path fill="none" stroke="none"/><text fill="#000000" stroke="none" font-family="Arial" font-size="13px" font-style="normal" font-weight="normal" text-decoration="none" x="301" y="450.5">+stuffed: datetime</text></g></g><g transform="translate(-62,-54) scale(1,1)"><g><path fill="none" stroke="none"/><text fill="#000000" stroke="none" font-family="Arial" font-size="13px" font-style="normal" font-weight="normal" text-decoration="none" x="301" y="465.5">+stripped: datetime</text></g></g><g transform="translate(-62,-54) scale(1,1)"><path fill="none" stroke="#000000" d="M 232 463 L 295 462" stroke-miterlimit="10"/></g><g transform="translate(-62,-54) scale(1,1)"><g><path fill="none" stroke="none"/><text fill="#000000" stroke="none" font-family="Arial" font-size="13px" font-style="normal" font-weight="normal" text-decoration="none" x="239.5" y="451.5">1</text></g></g><g transform="translate(-62,-54) scale(1,1)"><g><path fill="none" stroke="none"/><text fill="#000000" stroke="none" font-family="Arial" font-size="13px" font-style="normal" font-weight="normal" text-decoration="none" x="262.74365234375" y="480.5">1..*</text></g></g><g transform="translate(-62,-54) scale(1,1)"><path fill="none" stroke="#000000" d="M 464 460 L 559 460" stroke-miterlimit="10"/></g><g transform="translate(-62,-54) scale(1,1)"><g><path fill="none" stroke="none"/><text fill="#000000" stroke="none" font-family="Arial" font-size="13px" font-style="normal" font-weight="normal" text-decoration="none" x="474.74365234375" y="478.5">1..*</text></g></g><g transform="translate(-62,-54) scale(1,1)"><g><path fill="none" stroke="none"/><text fill="#000000" stroke="none" font-family="Arial" font-size="13px" font-style="normal" font-weight="normal" text-decoration="none" x="536.5" y="455.5">1..*</text></g></g><g transform="translate(-62,-54) scale(1,1)"><path fill="none" stroke="#000000" d="M 791 457 L 713 458" stroke-miterlimit="10"/></g><g transform="translate(-62,-54) scale(1,1)"><g><path fill="none" stroke="none"/><text fill="#000000" stroke="none" font-family="Arial" font-size="13px" font-style="normal" font-weight="normal" text-decoration="none" x="775.5" y="451.5">1</text></g></g><g transform="translate(-62,-54) scale(1,1)"><g><path fill="none" stroke="none"/><text fill="#000000" stroke="none" font-family="Arial" font-size="13px" font-style="normal" font-weight="normal" text-decoration="none" x="716.74365234375" y="480.5">1..*</text></g></g><g transform="translate(-62,-54) scale(1,1)"><rect fill="#C0C0C0" stroke="none" x="567" y="599" width="152" height="77" opacity="0.2"/></g><g transform="translate(-62,-54) scale(1,1)"><rect fill="#ffffff" stroke="none" x="560" y="592" width="152" height="77"/></g><g transform="translate(-62,-54) scale(1,1)"><path fill="none" stroke="#000000" d="M 560 592 L 712 592 L 712 669 L 560 669 L 560 592 Z Z" stroke-miterlimit="10"/></g><g transform="translate(-62,-54) scale(1,1)"><path fill="none" stroke="#000000" d="M 560 617 L 712 617" stroke-miterlimit="10"/></g><g transform="translate(-62,-54) scale(1,1)"><g><path fill="none" stroke="none"/><text fill="#000000" stroke="none" font-family="Arial" font-size="13px" font-style="normal" font-weight="bold" text-decoration="none" x="595.885986328125" y="611.5">Voyage Event</text></g></g><g transform="translate(-62,-54) scale(1,1)"><g><path fill="none" stroke="none"/><text fill="#000000" stroke="none" font-family="Arial" font-size="13px" font-style="normal" font-weight="normal" text-decoration="none" x="565" y="634.5">+timestamp: datetime</text></g></g><g transform="translate(-62,-54) scale(1,1)"><g><path fill="none" stroke="none"/><text fill="#000000" stroke="none" font-family="Arial" font-size="13px" font-style="normal" font-weight="normal" text-decoration="none" x="565" y="649.5">+type: code</text></g></g><g transform="translate(-62,-54) scale(1,1)"><path fill="none" stroke="#000000" d="M 636 592 L 636 529" stroke-miterlimit="10"/></g><g transform="translate(-62,-54) scale(1,1)"><path fill="#000000" stroke="none" d="M 640.209517756016 539.1626748576241 L 636 529 L 631.790482243984 539.1626748576241 L 636 551"/></g><g transform="translate(-62,-54) scale(1,1)"><path fill="none" stroke="#000000" d="M 640.209517756016 539.1626748576241 L 636 529 L 631.790482243984 539.1626748576241 L 636 551 L 640.209517756016 539.1626748576241" stroke-miterlimit="10"/></g><g transform="translate(-62,-54) scale(1,1)"><g><path fill="none" stroke="none"/><text fill="#000000" stroke="none" font-family="Arial" font-size="13px" font-style="normal" font-weight="normal" text-decoration="none" x="638.5" y="588.5">1..*</text></g></g><g transform="translate(-62,-54) scale(1,1)"><g><path fill="none" stroke="none"/><text fill="#000000" stroke="none" font-family="Arial" font-size="13px" font-style="normal" font-weight="normal" text-decoration="none" x="644.5" y="556.5">1</text></g></g><g transform="translate(-62,-54) scale(1,1)"><rect fill="#C0C0C0" stroke="none" x="303" y="591" width="176" height="107" opacity="0.2"/></g><g transform="translate(-62,-54) scale(1,1)"><rect fill="#ffffff" stroke="none" x="296" y="584" width="176" height="107"/></g><g transform="translate(-62,-54) scale(1,1)"><path fill="none" stroke="#000000" d="M 296 584 L 472 584 L 472 691 L 296 691 L 296 584 Z Z" stroke-miterlimit="10"/></g><g transform="translate(-62,-54) scale(1,1)"><path fill="none" stroke="#000000" d="M 296 609 L 472 609" stroke-miterlimit="10"/></g><g transform="translate(-62,-54) scale(1,1)"><g><path fill="none" stroke="none"/><text fill="#000000" stroke="none" font-family="Arial" font-size="13px" font-style="normal" font-weight="bold" text-decoration="none" x="308.009033203125" y="603.5">Container Transport Event</text></g></g><g transform="translate(-62,-54) scale(1,1)"><g><path fill="none" stroke="none"/><text fill="#000000" stroke="none" font-family="Arial" font-size="13px" font-style="normal" font-weight="normal" text-decoration="none" x="301" y="626.5">+timestamp: datetime</text></g></g><g transform="translate(-62,-54) scale(1,1)"><g><path fill="none" stroke="none"/><text fill="#000000" stroke="none" font-family="Arial" font-size="13px" font-style="normal" font-weight="normal" text-decoration="none" x="301" y="641.5">+type: code</text></g></g><g transform="translate(-62,-54) scale(1,1)"><g><path fill="none" stroke="none"/><text fill="#000000" stroke="none" font-family="Arial" font-size="13px" font-style="normal" font-weight="normal" text-decoration="none" x="301" y="656.5">+leg: code</text></g></g><g transform="translate(-62,-54) scale(1,1)"><g><path fill="none" stroke="none"/><text fill="#000000" stroke="none" font-family="Arial" font-size="13px" font-style="normal" font-weight="normal" text-decoration="none" x="301" y="671.5">+mode: code</text></g></g><g transform="translate(-62,-54) scale(1,1)"><g><path fill="none" stroke="none"/><text fill="#000000" stroke="none" font-family="Arial" font-size="13px" font-style="normal" font-weight="normal" text-decoration="none" x="301" y="686.5">+location: locode</text></g></g><g transform="translate(-62,-54) scale(1,1)"><path fill="none" stroke="#000000" d="M 381 584 L 381 512" stroke-miterlimit="10"/></g><g transform="translate(-62,-54) scale(1,1)"><path fill="#000000" stroke="none" d="M 385.209517756016 522.1626748576241 L 381 512 L 376.790482243984 522.1626748576241 L 381 534"/></g><g transform="translate(-62,-54) scale(1,1)"><path fill="none" stroke="#000000" d="M 385.209517756016 522.1626748576241 L 381 512 L 376.790482243984 522.1626748576241 L 381 534 L 385.209517756016 522.1626748576241" stroke-miterlimit="10"/></g><g transform="translate(-62,-54) scale(1,1)"><g><path fill="none" stroke="none"/><text fill="#000000" stroke="none" font-family="Arial" font-size="13px" font-style="normal" font-weight="normal" text-decoration="none" x="382.5" y="580.5">1..*</text></g></g><g transform="translate(-62,-54) scale(1,1)"><g><path fill="none" stroke="none"/><text fill="#000000" stroke="none" font-family="Arial" font-size="13px" font-style="normal" font-weight="normal" text-decoration="none" x="389.5" y="539.5">1</text></g></g><g transform="translate(-62,-54) scale(1,1)"><rect fill="#C0C0C0" stroke="none" x="303" y="295" width="160" height="80" opacity="0.2"/></g><g transform="translate(-62,-54) scale(1,1)"><rect fill="#ffffff" stroke="none" x="296" y="288" width="160" height="80"/></g><g transform="translate(-62,-54) scale(1,1)"><path fill="none" stroke="#000000" d="M 296 288 L 456 288 L 456 368 L 296 368 L 296 288 Z Z" stroke-miterlimit="10"/></g><g transform="translate(-62,-54) scale(1,1)"><path fill="none" stroke="#000000" d="M 296 328 L 456 328" stroke-miterlimit="10"/></g><g transform="translate(-62,-54) scale(1,1)"><g><path fill="none" stroke="none"/><text fill="#000000" stroke="none" font-family="Arial" font-size="13px" font-style="normal" font-weight="bold" text-decoration="none" x="323.254150390625" y="307.5">Consignment Item</text></g></g><g transform="translate(-62,-54) scale(1,1)"><g><path fill="none" stroke="none"/><text fill="#000000" stroke="none" font-family="Arial" font-size="13px" font-style="normal" font-weight="normal" text-decoration="none" x="307.365966796875" y="322.5">(from Reference Model)</text></g></g><g transform="translate(-62,-54) scale(1,1)"><g><path fill="none" stroke="none"/><text fill="#000000" stroke="none" font-family="Arial" font-size="13px" font-style="normal" font-weight="normal" text-decoration="none" x="301" y="345.5">+id: string</text></g></g><g transform="translate(-62,-54) scale(1,1)"><g><path fill="none" stroke="none"/><text fill="#000000" stroke="none" font-family="Arial" font-size="13px" font-style="normal" font-weight="normal" text-decoration="none" x="301" y="360.5">+Tariff_code: code[1..*]</text></g></g><g transform="translate(-62,-54) scale(1,1)"><path fill="none" stroke="#000000" d="M 376 287 L 376 233" stroke-miterlimit="10"/></g><g transform="translate(-62,-54) scale(1,1)"><path fill="#000000" stroke="none" d="M 380.209517756016 243.16267485762415 L 376 233 L 371.790482243984 243.16267485762415 L 376 255"/></g><g transform="translate(-62,-54) scale(1,1)"><path fill="none" stroke="#000000" d="M 380.209517756016 243.16267485762415 L 376 233 L 371.790482243984 243.16267485762415 L 376 255 L 380.209517756016 243.16267485762415" stroke-miterlimit="10"/></g><g transform="translate(-62,-54) scale(1,1)"><g><path fill="none" stroke="none"/><text fill="#000000" stroke="none" font-family="Arial" font-size="13px" font-style="normal" font-weight="normal" text-decoration="none" x="377.5" y="284.5">1..*</text></g></g><g transform="translate(-62,-54) scale(1,1)"><g><path fill="none" stroke="none"/><text fill="#000000" stroke="none" font-family="Arial" font-size="13px" font-style="normal" font-weight="normal" text-decoration="none" x="384.5" y="260.5">1</text></g></g><g transform="translate(-62,-54) scale(1,1)"><path fill="none" stroke="#000000" d="M 378 407 L 377 369" stroke-miterlimit="10"/></g><g transform="translate(-62,-54) scale(1,1)"><path fill="#FFFFFF" stroke="none" d="M 385.9508143600648 389.0968386143607 L 377 369 L 369.1185706665176 389.53979239576984"/></g><g transform="translate(-62,-54) scale(1,1)"><path fill="none" stroke="#000000" d="M 385.9508143600648 389.0968386143607 L 377 369 L 369.1185706665176 389.53979239576984 L 385.9508143600648 389.0968386143607" stroke-miterlimit="10"/></g><g transform="translate(-62,-54) scale(1,1)"><rect fill="#C0C0C0" stroke="none" x="804" y="127" width="146.26806640625" height="72" opacity="0.2"/></g><g transform="translate(-62,-54) scale(1,1)"><rect fill="#ffffff" stroke="none" x="797" y="120" width="146.26806640625" height="72"/></g><g transform="translate(-62,-54) scale(1,1)"><path fill="none" stroke="#000000" d="M 797 120 L 943.26806640625 120 L 943.26806640625 192 L 797 192 L 797 120 Z Z" stroke-miterlimit="10"/></g><g transform="translate(-62,-54) scale(1,1)"><path fill="none" stroke="#000000" d="M 797 160 L 943.26806640625 160" stroke-miterlimit="10"/></g><g transform="translate(-62,-54) scale(1,1)"><path fill="none" stroke="#000000" d="M 797 183 L 943.26806640625 183" stroke-miterlimit="10"/></g><g transform="translate(-62,-54) scale(1,1)"><g><path fill="none" stroke="none"/><text fill="#000000" stroke="none" font-family="Arial" font-size="13px" font-style="normal" font-weight="bold" text-decoration="none" x="821.244384765625" y="139.5">Transport Means</text></g></g><g transform="translate(-62,-54) scale(1,1)"><g><path fill="none" stroke="none"/><text fill="#000000" stroke="none" font-family="Arial" font-size="13px" font-style="normal" font-weight="normal" text-decoration="none" x="801.5" y="154.5">(from Reference Model)</text></g></g><g transform="translate(-62,-54) scale(1,1)"><g><path fill="none" stroke="none"/><text fill="#000000" stroke="none" font-family="Arial" font-size="13px" font-style="normal" font-weight="normal" text-decoration="none" x="802" y="177.5">+id: string</text></g></g><g transform="translate(-62,-54) scale(1,1)"><path fill="none" stroke="#000000" d="M 797 156 L 706 156" stroke-miterlimit="10"/></g><g transform="translate(-62,-54) scale(1,1)"><g><path fill="none" stroke="none"/><text fill="#000000" stroke="none" font-family="Arial" font-size="13px" font-style="normal" font-weight="normal" text-decoration="none" x="771.5" y="149.5">1</text></g></g><g transform="translate(-62,-54) scale(1,1)"><g><path fill="none" stroke="none"/><text fill="#000000" stroke="none" font-family="Arial" font-size="13px" font-style="normal" font-weight="normal" text-decoration="none" x="717.5" y="149.5">1..*</text></g></g><g transform="translate(-62,-54) scale(1,1)"><path fill="none" stroke="#000000" d="M 874 407 L 871 193" stroke-miterlimit="10"/></g><g transform="translate(-62,-54) scale(1,1)"><path fill="#FFFFFF" stroke="none" d="M 879.7031151788775 213.20534053618476 L 871 193 L 862.8666984511123 213.44136506975155"/></g><g transform="translate(-62,-54) scale(1,1)"><path fill="none" stroke="#000000" d="M 879.7031151788775 213.20534053618476 L 871 193 L 862.8666984511123 213.44136506975155 L 879.7031151788775 213.20534053618476" stroke-miterlimit="10"/></g></g></svg>